<?xml version="1.0" encoding="UTF-8"?>
<svg id="Capa_2" data-name="Capa 2" xmlns="http://www.w3.org/2000/svg" version="1.1" viewBox="0 0 572 212.3">
  <defs>
    <style>
      .cls-1 {
        fill: #006bcf;
        stroke-width: 0px;
      }

      .cls-2 {
        isolation: isolate;
      }
    </style>
  </defs>
  <g id="Capa_1-2" data-name="Capa 1-2">
    <circle class="cls-1" cx="53.5" cy="32.9" r="26.1"/>
    <circle class="cls-1" cx="143.4" cy="32.9" r="26.1"/>
    <path class="cls-1" d="M146.2,176.5c-13.9,0-26.5-5.4-36-14.1-5.9-5.4-6-14.8-.3-20.5h0c5.4-5.4,14.2-5.8,19.8-.6,4.8,4.4,11.3,6.9,18.4,6.4,12.3-.8,22.2-10.6,23.2-22.9,1.1-14.6-10.4-26.8-24.7-26.9-8.4,0-13.8,3.9-20.5,10.5-2.2,2.2-36.8,36.1-36.8,36.1-2.5,2.5-2.5,6.5,0,8.9h0c1.1,1.1,2.5,1.7,4,1.8,1.2,0,1.7,1.5.9,2.4-9.9,11.4-24.5,18.5-40.8,18.4-29.6-.2-53.6-24.4-53.4-54,.2-29.6,24.4-53.6,54-53.4,13.9,0,26.6,5.5,36.1,14.2,5.9,5.4,5.9,14.8.2,20.4l-.4.4c-5.4,5.3-13.9,5.3-19.5.2-4.8-4.3-11.3-6.8-18.4-6.4-12.2.8-22.2,10.6-23.1,22.9-1.1,14.6,10.4,26.8,24.7,26.9,8.2,0,13.8-3.7,20.1-10,6.7-6.7,38.8-38.1,38.8-38.1,2.5-2.5,2.5-6.5,0-8.9h0c-1.1-1.1-2.6-1.8-4-1.9-1.3,0-1.9-1.6-1-2.5,9.9-10.4,23.9-16.9,39.3-16.8,29.6.2,53.6,24.4,53.4,54-.2,29.6-24.4,53.6-54,53.4h0Z"/>
    <g class="cls-2">
      <g class="cls-2">
        <path class="cls-1" d="M232.4,78.7V26.3h-20.5v-11.7h55.1v11.7h-20.6v52.3h-14Z"/>
      </g>
      <g class="cls-2">
        <path class="cls-1" d="M287.8,79.8c-5,0-8.9-1.4-11.9-4.1-2.9-2.7-4.4-7.2-4.4-13.2V29.6h13v30.7c0,1.6.2,3,.6,4.1.4,1.1.9,2,1.6,2.7.7.7,1.6,1.2,2.7,1.5,1.1.3,2.2.5,3.5.5,1.9,0,3.7-.5,5.2-1.4,1.6-.9,2.8-2.2,3.6-3.9.9-1.6,1.3-3.5,1.3-5.6v-28.6h13v49.1h-10.6l-.9-6.7h-.7c-1.2,1.6-2.6,2.9-4.2,4.1-1.6,1.2-3.4,2.1-5.4,2.8-2,.7-4.2,1-6.5,1Z"/>
        <path class="cls-1" d="M347.9,79.8c-3.4,0-6.5-.4-9.2-1.1-2.7-.7-5.1-1.8-7-3.1-1.9-1.3-3.4-2.9-4.4-4.8s-1.5-4-1.5-6.3v-.7c0-.2,0-.4,0-.6h12.5v.7c0,1.6.6,2.8,1.5,3.8.9,1,2.2,1.7,3.7,2.1,1.5.4,3.1.7,4.8.7s2.9-.1,4.3-.4c1.4-.3,2.6-.8,3.5-1.5,1-.7,1.4-1.7,1.4-2.9s-.6-2.6-1.8-3.5c-1.2-.8-2.8-1.5-4.8-2-2-.5-4.1-1.1-6.4-1.7-2.1-.5-4.2-1.1-6.3-1.7-2.1-.7-4-1.5-5.7-2.6-1.7-1.1-3.1-2.4-4.2-4.2-1.1-1.7-1.6-3.9-1.6-6.5s.6-4.8,1.7-6.7c1.1-1.9,2.7-3.5,4.6-4.7,2-1.2,4.3-2.2,6.9-2.8,2.6-.6,5.5-.9,8.5-.9s5.5.3,8,.9c2.5.6,4.7,1.5,6.5,2.6,1.9,1.2,3.3,2.6,4.4,4.3,1.1,1.7,1.6,3.6,1.6,5.7v1.2c0,.4,0,.6,0,.7h-12.4v-.7c0-1.1-.3-2.1-1-2.8-.7-.8-1.7-1.4-2.9-1.8-1.3-.4-2.8-.7-4.6-.7s-2.4,0-3.4.3c-1,.2-1.9.5-2.7.8-.7.4-1.3.8-1.7,1.4-.4.5-.6,1.2-.6,1.9,0,1.1.5,1.9,1.4,2.6.9.7,2.1,1.2,3.6,1.6,1.5.4,3.1.9,4.9,1.4,2.2.6,4.6,1.2,7,1.8,2.5.6,4.7,1.4,6.9,2.4,2.1,1,3.8,2.4,5.1,4.2,1.3,1.8,2,4.3,2,7.4s-.6,5.5-1.7,7.6c-1.2,2.1-2.8,3.7-4.8,4.9-2.1,1.2-4.4,2.1-7.2,2.7-2.7.6-5.7.8-8.9.8Z"/>
      </g>
      <g class="cls-2">
        <path class="cls-1" d="M210.1,171.7l24.6-64h17.2l24.6,64h-15l-4.6-12.6h-27.9l-4.6,12.6h-14.4ZM233.1,147.9h19.9l-5.7-15.8c-.2-.7-.5-1.5-.9-2.5-.3-1-.7-2-1.1-3.2-.4-1.2-.7-2.3-1.1-3.5-.3-1.2-.7-2.2-1-3.1h-.6c-.3,1.2-.7,2.6-1.2,4.2-.5,1.6-1,3.1-1.5,4.6-.5,1.5-.9,2.7-1.2,3.6l-5.7,15.8Z"/>
        <path class="cls-1" d="M283.1,171.7v-67.5h13v67.5h-13Z"/>
        <path class="cls-1" d="M308,115.4v-11.2h13v11.2h-13ZM308,171.7v-49.1h13v49.1h-13Z"/>
        <path class="cls-1" d="M345.9,172.8c-1.6,0-3.3-.2-5.2-.6-1.8-.4-3.6-1-5.2-2-1.6-1-2.9-2.4-4-4.2-1-1.8-1.5-4.2-1.5-7s.7-6.3,2.2-8.5c1.5-2.2,3.6-4,6.4-5.3,2.8-1.3,6.1-2.2,9.9-2.7,3.9-.5,8.1-.7,12.8-.7v-3.6c0-1.4-.2-2.7-.7-3.7-.5-1.1-1.3-1.9-2.4-2.5-1.2-.6-2.8-.9-4.8-.9s-3.7.2-5,.7c-1.3.5-2.2,1.1-2.7,1.9-.5.8-.8,1.6-.8,2.6v1.1h-12.6c0-.3,0-.6,0-.9v-1.1c0-2.9.9-5.3,2.6-7.4,1.7-2.1,4.2-3.7,7.4-4.8,3.2-1.1,6.9-1.7,11.1-1.7s8.4.6,11.4,1.8c3.1,1.2,5.4,2.9,7.1,5.2,1.6,2.3,2.5,5.2,2.5,8.7v22.3c0,1.1.3,1.9,1,2.5.7.5,1.4.8,2.2.8h3.1v8.5c-.6.3-1.6.6-2.9,1-1.3.3-2.9.5-4.8.5s-3.4-.3-4.8-.8c-1.4-.5-2.6-1.3-3.5-2.2-.9-1-1.6-2.1-2-3.5h-.7c-1.1,1.3-2.3,2.5-3.9,3.5-1.5,1-3.3,1.8-5.3,2.3-2,.6-4.3.8-7,.8ZM350.3,163c1.7,0,3.3-.3,4.7-.8,1.4-.5,2.5-1.2,3.5-2.1.9-.9,1.7-2,2.2-3.3.5-1.3.8-2.7.8-4.2v-2.7c-3.5,0-6.6.2-9.3.7-2.7.5-4.9,1.3-6.5,2.4-1.6,1.1-2.4,2.7-2.4,4.7s.3,2.1.8,2.9c.6.8,1.4,1.4,2.4,1.9,1.1.4,2.3.7,3.8.7Z"/>
        <path class="cls-1" d="M404.4,172.8c-4,0-7.5-.9-10.5-2.8-3-1.8-5.2-4.6-6.9-8.4-1.6-3.8-2.4-8.6-2.4-14.6s.8-10.7,2.5-14.5c1.6-3.8,3.9-6.5,6.8-8.4,2.9-1.8,6.2-2.7,10-2.7s4.1.2,5.9.7c1.8.5,3.5,1.2,4.9,2.2,1.4,1,2.6,2.2,3.6,3.6h.6v-23.8h13v67.5h-10.6l-1-6.6h-.7c-1.6,2.6-3.7,4.6-6.3,5.8-2.6,1.3-5.5,1.9-8.8,1.9ZM408.5,162.2c2.4,0,4.4-.6,5.9-1.7,1.5-1.1,2.7-2.7,3.4-4.9.7-2.1,1.1-4.6,1.1-7.6v-1.7c0-2.2-.2-4.2-.6-6-.4-1.8-1-3.3-1.9-4.5s-2-2.1-3.3-2.8c-1.3-.7-2.9-1-4.7-1-2.6,0-4.7.5-6.3,1.5-1.6,1-2.7,2.6-3.4,4.7-.7,2.1-1,4.7-1,7.8v2.1c0,3.1.3,5.7,1,7.7.7,2.1,1.8,3.6,3.4,4.6,1.6,1,3.6,1.5,6.3,1.5Z"/>
        <path class="cls-1" d="M466.3,172.8c-5.4,0-9.9-.9-13.6-2.8s-6.6-4.7-8.5-8.5c-1.9-3.8-2.9-8.6-2.9-14.4s1-10.7,2.9-14.5c1.9-3.8,4.8-6.6,8.5-8.4,3.7-1.8,8.3-2.8,13.6-2.8s10.1.9,13.8,2.8c3.7,1.8,6.5,4.6,8.4,8.4,1.9,3.8,2.9,8.6,2.9,14.5s-1,10.6-2.9,14.4c-1.9,3.8-4.7,6.7-8.4,8.5-3.7,1.8-8.3,2.8-13.8,2.8ZM466.3,162.7c2.9,0,5.1-.5,6.9-1.6,1.7-1.1,3-2.7,3.8-4.9.8-2.2,1.2-4.9,1.2-8v-2.2c0-3.2-.4-5.8-1.2-8-.8-2.2-2.1-3.8-3.8-4.9-1.7-1.1-4-1.6-6.9-1.6s-5.1.5-6.8,1.6c-1.7,1.1-3,2.7-3.8,4.9-.8,2.2-1.2,4.9-1.2,8v2.2c0,3.2.4,5.8,1.2,8,.8,2.2,2.1,3.8,3.8,4.9,1.7,1.1,4,1.6,6.8,1.6Z"/>
        <path class="cls-1" d="M520.8,172.8c-3.4,0-6.5-.4-9.2-1.1-2.7-.7-5.1-1.8-7-3.1-1.9-1.3-3.4-2.9-4.4-4.8s-1.5-4-1.5-6.3v-.7c0-.2,0-.4,0-.6h12.5v.7c0,1.6.6,2.8,1.5,3.8.9,1,2.2,1.7,3.7,2.1,1.5.4,3.1.7,4.8.7s2.9-.1,4.3-.4c1.4-.3,2.6-.8,3.5-1.5,1-.7,1.4-1.7,1.4-2.9s-.6-2.6-1.8-3.5c-1.2-.8-2.8-1.5-4.8-2-2-.5-4.1-1.1-6.4-1.7-2.1-.5-4.2-1.1-6.3-1.7-2.1-.7-4-1.5-5.7-2.6-1.7-1.1-3.1-2.4-4.2-4.2-1.1-1.7-1.6-3.9-1.6-6.5s.6-4.8,1.7-6.7c1.1-1.9,2.7-3.5,4.6-4.7,2-1.2,4.3-2.2,6.9-2.8,2.6-.6,5.5-.9,8.5-.9s5.5.3,8,.9c2.5.6,4.7,1.5,6.5,2.6,1.9,1.2,3.3,2.6,4.4,4.3,1.1,1.7,1.6,3.6,1.6,5.7v1.2c0,.4,0,.6,0,.7h-12.4v-.7c0-1.1-.3-2.1-1-2.8-.7-.8-1.7-1.4-2.9-1.8-1.3-.4-2.8-.7-4.6-.7s-2.4,0-3.4.3c-1,.2-1.9.5-2.7.8-.7.4-1.3.8-1.7,1.4-.4.5-.6,1.2-.6,1.9,0,1.1.5,1.9,1.4,2.6.9.7,2.1,1.2,3.6,1.6,1.5.4,3.1.9,4.9,1.4,2.2.6,4.6,1.2,7,1.8,2.5.6,4.7,1.4,6.9,2.4,2.1,1,3.8,2.4,5.1,4.2,1.3,1.8,2,4.3,2,7.4s-.6,5.5-1.7,7.6c-1.2,2.1-2.8,3.7-4.8,4.9-2.1,1.2-4.4,2.1-7.2,2.7-2.7.6-5.7.8-8.9.8Z"/>
      </g>
    </g>
  </g>
</svg>