<?xml version="1.0" encoding="UTF-8"?><svg id="Capa_2" xmlns="http://www.w3.org/2000/svg" viewBox="0 0 251.86 213.48"><defs><style>.cls-1{fill:none;stroke:#006bcf;stroke-width:29.26px;}.cls-2{fill:#fff;stroke-width:0px;}</style></defs><g id="Capa_1-2"><circle class="cls-1" cx="67.3" cy="32.85" r="32.85"/><circle class="cls-1" cx="67.3" cy="32.85" r="32.85"/><circle class="cls-1" cx="180.38" cy="32.85" r="32.85"/><circle class="cls-1" cx="180.38" cy="32.85" r="32.85"/><path class="cls-1" d="M183.89,213.47c-17.45-.1-33.33-6.83-45.27-17.8-7.47-6.86-7.56-18.64-.38-25.82h0c6.8-6.8,17.84-7.31,24.95-.82,6.03,5.5,14.22,8.68,23.14,8.11,15.43-.99,27.98-13.36,29.19-28.78,1.43-18.32-13.02-33.73-31.07-33.84-10.62-.06-17.41,4.92-25.76,13.27-2.73,2.73-46.35,45.44-46.35,45.44-3.11,3.11-3.11,8.15,0,11.26h0c1.4,1.4,3.19,2.17,5.03,2.31,1.44.11,2.12,1.87,1.17,2.96-12.48,14.31-30.87,23.32-51.31,23.21C29.95,212.77-.21,182.28,0,145.01c.21-37.27,30.7-67.43,67.97-67.22,17.49.1,33.41,6.87,45.36,17.88,7.42,6.84,7.48,18.56.3,25.65l-.51.5c-6.77,6.69-17.49,6.69-24.55.31-6.04-5.46-14.2-8.6-23.1-8.01-15.4,1.02-27.92,13.38-29.12,28.77-1.43,18.32,13.02,33.74,31.07,33.84,10.32.06,17.3-4.62,25.27-12.59,8.48-8.48,48.75-47.92,48.75-47.92,3.13-3.09,3.15-8.13.06-11.26h0c-1.41-1.42-3.22-2.2-5.07-2.34-1.6-.12-2.38-1.97-1.28-3.13,12.42-13.14,30.03-21.31,49.49-21.21,37.27.21,67.43,30.7,67.22,67.97-.21,37.27-30.7,67.43-67.97,67.22Z"/><path class="cls-1" d="M183.89,213.47c-17.45-.1-33.33-6.83-45.27-17.8-7.47-6.86-7.56-18.64-.38-25.82h0c6.8-6.8,17.84-7.31,24.95-.82,6.03,5.5,14.22,8.68,23.14,8.11,15.43-.99,27.98-13.36,29.19-28.78,1.43-18.32-13.02-33.73-31.07-33.84-10.62-.06-17.41,4.92-25.76,13.27-2.73,2.73-46.35,45.44-46.35,45.44-3.11,3.11-3.11,8.15,0,11.26h0c1.4,1.4,3.19,2.17,5.03,2.31,1.44.11,2.12,1.87,1.17,2.96-12.48,14.31-30.87,23.32-51.31,23.21C29.95,212.77-.21,182.28,0,145.01c.21-37.27,30.7-67.43,67.97-67.22,17.49.1,33.41,6.87,45.36,17.88,7.42,6.84,7.48,18.56.3,25.65l-.51.5c-6.77,6.69-17.49,6.69-24.55.31-6.04-5.46-14.2-8.6-23.1-8.01-15.4,1.02-27.92,13.38-29.12,28.77-1.43,18.32,13.02,33.74,31.07,33.84,10.32.06,17.3-4.62,25.27-12.59,8.48-8.48,48.75-47.92,48.75-47.92,3.13-3.09,3.15-8.13.06-11.26h0c-1.41-1.42-3.22-2.2-5.07-2.34-1.6-.12-2.38-1.97-1.28-3.13,12.42-13.14,30.03-21.31,49.49-21.21,37.27.21,67.43,30.7,67.22,67.97-.21,37.27-30.7,67.43-67.97,67.22Z"/><circle class="cls-2" cx="67.3" cy="32.85" r="32.85"/><circle class="cls-2" cx="180.38" cy="32.85" r="32.85"/><path class="cls-2" d="M183.89,213.47c-17.45-.1-33.33-6.83-45.27-17.8-7.47-6.86-7.56-18.64-.38-25.82h0c6.8-6.8,17.84-7.31,24.95-.82,6.03,5.5,14.22,8.68,23.14,8.11,15.43-.99,27.98-13.36,29.19-28.78,1.43-18.32-13.02-33.73-31.07-33.84-10.62-.06-17.41,4.92-25.76,13.27-2.73,2.73-46.35,45.44-46.35,45.44-3.11,3.11-3.11,8.15,0,11.26h0c1.4,1.4,3.19,2.17,5.03,2.31,1.44.11,2.12,1.87,1.17,2.96-12.48,14.31-30.87,23.32-51.31,23.21C29.95,212.77-.21,182.28,0,145.01c.21-37.27,30.7-67.43,67.97-67.22,17.49.1,33.41,6.87,45.36,17.88,7.42,6.84,7.48,18.56.3,25.65l-.51.5c-6.77,6.69-17.49,6.69-24.55.31-6.04-5.46-14.2-8.6-23.1-8.01-15.4,1.02-27.92,13.38-29.12,28.77-1.43,18.32,13.02,33.74,31.07,33.84,10.32.06,17.3-4.62,25.27-12.59,8.48-8.48,48.75-47.92,48.75-47.92,3.13-3.09,3.15-8.13.06-11.26h0c-1.41-1.42-3.22-2.2-5.07-2.34-1.6-.12-2.38-1.97-1.28-3.13,12.42-13.14,30.03-21.31,49.49-21.21,37.27.21,67.43,30.7,67.22,67.97-.21,37.27-30.7,67.43-67.97,67.22Z"/></g></svg>