<?xml version="1.0" encoding="UTF-8"?><svg id="Capa_2" xmlns="http://www.w3.org/2000/svg" xmlns:xlink="http://www.w3.org/1999/xlink" viewBox="0 0 810.63 802.99"><defs><style>.cls-1{fill:#b0d9ff;}.cls-1,.cls-2,.cls-3{stroke-width:0px;}.cls-4{clip-path:url(#clippath);}.cls-2{fill:none;}.cls-5{clip-path:url(#clippath-1);}.cls-3{fill:#006bcf;}</style><clipPath id="clippath"><rect class="cls-2" y=".23" width="802.76" height="802.76" rx="37.33" ry="37.33"/></clipPath><clipPath id="clippath-1"><rect class="cls-2" x="1.94" width="808.69" height="802.47"/></clipPath></defs><g id="Capa_1-2"><rect class="cls-1" x="1.37" y=".23" width="802.76" height="802.76" rx="37.33" ry="37.33"/><g class="cls-4"><g class="cls-5"><g id="_Repetición_de_cuadrícula_"><path class="cls-3" d="M16.38,47.98c6.61-.6,12.41-3.65,16.58-8.19,2.61-2.84,2.27-7.3-.68-9.79h0c-2.79-2.36-6.99-2.2-9.48.49-2.11,2.28-5.11,3.74-8.5,3.81-5.88.12-11.03-4.17-11.97-9.96-1.13-6.89,3.85-13.19,10.68-13.81,4.02-.36,6.75,1.3,10.18,4.2,1.12.95,19.01,15.73,19.01,15.73,1.28,1.08,1.44,2.99.36,4.26h0c-.49.58-1.14.92-1.83,1.03-.54.09-.74.77-.35,1.16,5.19,5.02,12.44,7.85,20.17,7.15,14.11-1.27,24.55-13.78,23.28-27.89-1.27-14.11-13.78-24.55-27.89-23.28-6.62.6-12.43,3.67-16.61,8.22-2.59,2.83-2.24,7.27.71,9.73l.21.17c2.78,2.32,6.84,1.97,9.31-.67,2.11-2.26,5.1-3.71,8.49-3.77,5.87-.11,11,4.17,11.95,9.96,1.13,6.89-3.85,13.19-10.68,13.81-3.91.35-6.7-1.2-9.97-3.96-3.48-2.94-20-16.59-20-16.59-1.28-1.07-1.45-2.98-.38-4.26h0c.49-.58,1.15-.94,1.85-1.05.6-.09.84-.82.38-1.23C26.07-1.33,19.14-3.86,11.77-3.2-2.34-1.93-12.79,10.58-11.51,24.69c1.27,14.11,13.78,24.55,27.89,23.28Z"/></g><g id="_Repetición_de_cuadrícula_-2"><circle class="cls-3" cx="159.92" cy="43.68" r="12.48"/><circle class="cls-3" cx="117.09" cy="47.3" r="12.48"/><path class="cls-3" d="M121.54,115.82c6.61-.6,12.41-3.65,16.58-8.19,2.61-2.84,2.27-7.3-.68-9.79h0c-2.79-2.36-6.99-2.2-9.48.49-2.11,2.28-5.11,3.74-8.5,3.81-5.88.12-11.03-4.17-11.97-9.96-1.13-6.89,3.85-13.19,10.68-13.81,4.02-.36,6.75,1.3,10.18,4.2,1.12.95,19.01,15.73,19.01,15.73,1.28,1.08,1.44,2.99.36,4.26h0c-.49.58-1.14.92-1.83,1.03-.54.09-.74.77-.35,1.16,5.19,5.02,12.44,7.85,20.17,7.15,14.11-1.27,24.55-13.78,23.28-27.89-1.27-14.11-13.78-24.55-27.89-23.28-6.62.6-12.43,3.67-16.61,8.22-2.59,2.83-2.24,7.27.71,9.73l.21.17c2.78,2.32,6.84,1.97,9.31-.67,2.11-2.26,5.1-3.71,8.49-3.77,5.87-.11,11,4.17,11.95,9.96,1.13,6.89-3.85,13.19-10.68,13.81-3.91.35-6.7-1.2-9.97-3.96-3.48-2.94-20-16.59-20-16.59-1.28-1.07-1.45-2.98-.38-4.26h0c.49-.58,1.15-.94,1.85-1.05.6-.09.84-.82.38-1.23-5.12-4.58-12.05-7.11-19.42-6.45-14.11,1.27-24.55,13.78-23.28,27.89,1.27,14.11,13.78,24.55,27.89,23.28Z"/></g><g id="_Repetición_de_cuadrícula_-3"><path class="cls-3" d="M226.7,47.98c6.61-.6,12.41-3.65,16.58-8.19,2.61-2.84,2.27-7.3-.68-9.79h0c-2.79-2.36-6.99-2.2-9.48.49-2.11,2.28-5.11,3.74-8.5,3.81-5.88.12-11.03-4.17-11.97-9.96-1.13-6.89,3.85-13.19,10.68-13.81,4.02-.36,6.75,1.3,10.18,4.2,1.12.95,19.01,15.73,19.01,15.73,1.28,1.08,1.44,2.99.36,4.26h0c-.49.58-1.14.92-1.83,1.03-.54.09-.74.77-.35,1.16,5.19,5.02,12.44,7.85,20.17,7.15,14.11-1.27,24.55-13.78,23.28-27.89-1.27-14.11-13.78-24.55-27.89-23.28-6.62.6-12.43,3.67-16.61,8.22-2.59,2.83-2.24,7.27.71,9.73l.21.17c2.78,2.32,6.84,1.97,9.31-.67,2.11-2.26,5.1-3.71,8.49-3.77,5.87-.11,11,4.17,11.95,9.96,1.13,6.89-3.85,13.19-10.68,13.81-3.91.35-6.7-1.2-9.97-3.96-3.48-2.94-20-16.59-20-16.59-1.28-1.07-1.45-2.98-.38-4.26h0c.49-.58,1.15-.94,1.85-1.05.6-.09.84-.82.38-1.23-5.12-4.58-12.05-7.11-19.42-6.45-14.11,1.27-24.55,13.78-23.28,27.89,1.27,14.11,13.78,24.55,27.89,23.28Z"/></g><g id="_Repetición_de_cuadrícula_-4"><circle class="cls-3" cx="370.24" cy="43.68" r="12.48"/><circle class="cls-3" cx="327.42" cy="47.3" r="12.48"/><path class="cls-3" d="M331.87,115.82c6.61-.6,12.41-3.65,16.58-8.19,2.61-2.84,2.27-7.3-.68-9.79h0c-2.79-2.36-6.99-2.2-9.48.49-2.11,2.28-5.11,3.74-8.5,3.81-5.88.12-11.03-4.17-11.97-9.96-1.13-6.89,3.85-13.19,10.68-13.81,4.02-.36,6.75,1.3,10.18,4.2,1.12.95,19.01,15.73,19.01,15.73,1.28,1.08,1.44,2.99.36,4.26h0c-.49.58-1.14.92-1.83,1.03-.54.09-.74.77-.35,1.16,5.19,5.02,12.44,7.85,20.17,7.15,14.11-1.27,24.55-13.78,23.28-27.89-1.27-14.11-13.78-24.55-27.89-23.28-6.62.6-12.43,3.67-16.61,8.22-2.59,2.83-2.24,7.27.71,9.73l.21.17c2.78,2.32,6.84,1.97,9.31-.67,2.11-2.26,5.1-3.71,8.49-3.77,5.87-.11,11,4.17,11.95,9.96,1.13,6.89-3.85,13.19-10.68,13.81-3.91.35-6.7-1.2-9.97-3.96-3.48-2.94-20-16.59-20-16.59-1.28-1.07-1.45-2.98-.38-4.26h0c.49-.58,1.15-.94,1.85-1.05.6-.09.84-.82.38-1.23-5.12-4.58-12.05-7.11-19.42-6.45-14.11,1.27-24.55,13.78-23.28,27.89,1.27,14.11,13.78,24.55,27.89,23.28Z"/></g><g id="_Repetición_de_cuadrícula_-5"><path class="cls-3" d="M437.03,47.98c6.61-.6,12.41-3.65,16.58-8.19,2.61-2.84,2.27-7.3-.68-9.79h0c-2.79-2.36-6.99-2.2-9.48.49-2.11,2.28-5.11,3.74-8.5,3.81-5.88.12-11.03-4.17-11.97-9.96-1.13-6.89,3.85-13.19,10.68-13.81,4.02-.36,6.75,1.3,10.18,4.2,1.12.95,19.01,15.73,19.01,15.73,1.28,1.08,1.44,2.99.36,4.26h0c-.49.58-1.14.92-1.83,1.03-.54.09-.74.77-.35,1.16,5.19,5.02,12.44,7.85,20.17,7.15,14.11-1.27,24.55-13.78,23.28-27.89-1.27-14.11-13.78-24.55-27.89-23.28-6.62.6-12.43,3.67-16.61,8.22-2.59,2.83-2.24,7.27.71,9.73l.21.17c2.78,2.32,6.84,1.97,9.31-.67,2.11-2.26,5.1-3.71,8.49-3.77,5.87-.11,11,4.17,11.95,9.96,1.13,6.89-3.85,13.19-10.68,13.81-3.91.35-6.7-1.2-9.97-3.96-3.48-2.94-20-16.59-20-16.59-1.28-1.07-1.45-2.98-.38-4.26h0c.49-.58,1.15-.94,1.85-1.05.6-.09.84-.82.38-1.23-5.12-4.58-12.05-7.11-19.42-6.45-14.11,1.27-24.55,13.78-23.28,27.89,1.27,14.11,13.78,24.55,27.89,23.28Z"/></g><g id="_Repetición_de_cuadrícula_-6"><circle class="cls-3" cx="580.57" cy="43.68" r="12.48"/><circle class="cls-3" cx="537.74" cy="47.3" r="12.48"/><path class="cls-3" d="M542.19,115.82c6.61-.6,12.41-3.65,16.58-8.19,2.61-2.84,2.27-7.3-.68-9.79h0c-2.79-2.36-6.99-2.2-9.48.49-2.11,2.28-5.11,3.74-8.5,3.81-5.88.12-11.03-4.17-11.97-9.96-1.13-6.89,3.85-13.19,10.68-13.81,4.02-.36,6.75,1.3,10.18,4.2,1.12.95,19.01,15.73,19.01,15.73,1.28,1.08,1.44,2.99.36,4.26h0c-.49.58-1.14.92-1.83,1.03-.54.09-.74.77-.35,1.16,5.19,5.02,12.44,7.85,20.17,7.15,14.11-1.27,24.55-13.78,23.28-27.89-1.27-14.11-13.78-24.55-27.89-23.28-6.62.6-12.43,3.67-16.61,8.22-2.59,2.83-2.24,7.27.71,9.73l.21.17c2.78,2.32,6.84,1.97,9.31-.67,2.11-2.26,5.1-3.71,8.49-3.77,5.87-.11,11,4.17,11.95,9.96,1.13,6.89-3.85,13.19-10.68,13.81-3.91.35-6.7-1.2-9.97-3.96-3.48-2.94-20-16.59-20-16.59-1.28-1.07-1.45-2.98-.38-4.26h0c.49-.58,1.15-.94,1.85-1.05.6-.09.84-.82.38-1.23-5.12-4.58-12.05-7.11-19.42-6.45-14.11,1.27-24.55,13.78-23.28,27.89,1.27,14.11,13.78,24.55,27.89,23.28Z"/></g><g id="_Repetición_de_cuadrícula_-7"><path class="cls-3" d="M647.35,47.98c6.61-.6,12.41-3.65,16.58-8.19,2.61-2.84,2.27-7.3-.68-9.79h0c-2.79-2.36-6.99-2.2-9.48.49-2.11,2.28-5.11,3.74-8.5,3.81-5.88.12-11.03-4.17-11.97-9.96-1.13-6.89,3.85-13.19,10.68-13.81,4.02-.36,6.75,1.3,10.18,4.2,1.12.95,19.01,15.73,19.01,15.73,1.28,1.08,1.44,2.99.36,4.26h0c-.49.58-1.14.92-1.83,1.03-.54.09-.74.77-.35,1.16,5.19,5.02,12.44,7.85,20.17,7.15,14.11-1.27,24.55-13.78,23.28-27.89-1.27-14.11-13.78-24.55-27.89-23.28-6.62.6-12.43,3.67-16.61,8.22-2.59,2.83-2.24,7.27.71,9.73l.21.17c2.78,2.32,6.84,1.97,9.31-.67,2.11-2.26,5.1-3.71,8.49-3.77,5.87-.11,11,4.17,11.95,9.96,1.13,6.89-3.85,13.19-10.68,13.81-3.91.35-6.7-1.2-9.97-3.96-3.48-2.94-20-16.59-20-16.59-1.28-1.07-1.45-2.98-.38-4.26h0c.49-.58,1.15-.94,1.85-1.05.6-.09.84-.82.38-1.23-5.12-4.58-12.05-7.11-19.42-6.45-14.11,1.27-24.55,13.78-23.28,27.89,1.27,14.11,13.78,24.55,27.89,23.28Z"/></g><g id="_Repetición_de_cuadrícula_-8"><circle class="cls-3" cx="790.89" cy="43.68" r="12.48"/><circle class="cls-3" cx="748.07" cy="47.3" r="12.48"/><path class="cls-3" d="M752.52,115.82c6.61-.6,12.41-3.65,16.58-8.19,2.61-2.84,2.27-7.3-.68-9.79h0c-2.79-2.36-6.99-2.2-9.48.49-2.11,2.28-5.11,3.74-8.5,3.81-5.88.12-11.03-4.17-11.97-9.96-1.13-6.89,3.85-13.19,10.68-13.81,4.02-.36,6.75,1.3,10.18,4.2,1.12.95,19.01,15.73,19.01,15.73,1.28,1.08,1.44,2.99.36,4.26h0c-.49.58-1.14.92-1.83,1.03-.54.09-.74.77-.35,1.16,5.19,5.02,12.44,7.85,20.17,7.15,14.11-1.27,24.55-13.78,23.28-27.89-1.27-14.11-13.78-24.55-27.89-23.28-6.62.6-12.43,3.67-16.61,8.22-2.59,2.83-2.24,7.27.71,9.73l.21.17c2.78,2.32,6.84,1.97,9.31-.67,2.11-2.26,5.1-3.71,8.49-3.77,5.87-.11,11,4.17,11.95,9.96,1.13,6.89-3.85,13.19-10.68,13.81-3.91.35-6.7-1.2-9.97-3.96-3.48-2.94-20-16.59-20-16.59-1.28-1.07-1.45-2.98-.38-4.26h0c.49-.58,1.15-.94,1.85-1.05.6-.09.84-.82.38-1.23-5.12-4.58-12.05-7.11-19.42-6.45-14.11,1.27-24.55,13.78-23.28,27.89,1.27,14.11,13.78,24.55,27.89,23.28Z"/></g><g id="_Repetición_de_cuadrícula_-9"><circle class="cls-3" cx="54.76" cy="111.53" r="12.48"/><circle class="cls-3" cx="11.93" cy="115.14" r="12.48"/><path class="cls-3" d="M16.38,183.66c6.61-.6,12.41-3.65,16.58-8.19,2.61-2.84,2.27-7.3-.68-9.79h0c-2.79-2.36-6.99-2.2-9.48.49-2.11,2.28-5.11,3.74-8.5,3.81-5.88.12-11.03-4.17-11.97-9.96-1.13-6.89,3.85-13.19,10.68-13.81,4.02-.36,6.75,1.3,10.18,4.2,1.12.95,19.01,15.73,19.01,15.73,1.28,1.08,1.44,2.99.36,4.26h0c-.49.58-1.14.92-1.83,1.03-.54.09-.74.77-.35,1.16,5.19,5.02,12.44,7.85,20.17,7.15,14.11-1.27,24.55-13.78,23.28-27.89-1.27-14.11-13.78-24.55-27.89-23.28-6.62.6-12.43,3.67-16.61,8.22-2.59,2.83-2.24,7.27.71,9.73l.21.17c2.78,2.32,6.84,1.97,9.31-.67,2.11-2.26,5.1-3.71,8.49-3.77,5.87-.11,11,4.17,11.95,9.96,1.13,6.89-3.85,13.19-10.68,13.81-3.91.35-6.7-1.2-9.97-3.96-3.48-2.94-20-16.59-20-16.59-1.28-1.07-1.45-2.98-.38-4.26h0c.49-.58,1.15-.94,1.85-1.05.6-.09.84-.82.38-1.23-5.12-4.58-12.05-7.11-19.42-6.45-14.11,1.27-24.55,13.78-23.28,27.89,1.27,14.11,13.78,24.55,27.89,23.28Z"/></g><g id="_Repetición_de_cuadrícula_-10"><circle class="cls-3" cx="159.92" cy="179.37" r="12.48"/><circle class="cls-3" cx="117.09" cy="182.99" r="12.48"/><path class="cls-3" d="M121.54,251.51c6.61-.6,12.41-3.65,16.58-8.19,2.61-2.84,2.27-7.3-.68-9.79h0c-2.79-2.36-6.99-2.2-9.48.49-2.11,2.28-5.11,3.74-8.5,3.81-5.88.12-11.03-4.17-11.97-9.96-1.13-6.89,3.85-13.19,10.68-13.81,4.02-.36,6.75,1.3,10.18,4.2,1.12.95,19.01,15.73,19.01,15.73,1.28,1.08,1.44,2.99.36,4.26h0c-.49.58-1.14.92-1.83,1.03-.54.09-.74.77-.35,1.16,5.19,5.02,12.44,7.85,20.17,7.15,14.11-1.27,24.55-13.78,23.28-27.89-1.27-14.11-13.78-24.55-27.89-23.28-6.62.6-12.43,3.67-16.61,8.22-2.59,2.83-2.24,7.27.71,9.73l.21.17c2.78,2.32,6.84,1.97,9.31-.67,2.11-2.26,5.1-3.71,8.49-3.77,5.87-.11,11,4.17,11.95,9.96,1.13,6.89-3.85,13.19-10.68,13.81-3.91.35-6.7-1.2-9.97-3.96-3.48-2.94-20-16.59-20-16.59-1.28-1.07-1.45-2.98-.38-4.26h0c.49-.58,1.15-.94,1.85-1.05.6-.09.84-.82.38-1.23-5.12-4.58-12.05-7.11-19.42-6.45-14.11,1.27-24.55,13.78-23.28,27.89,1.27,14.11,13.78,24.55,27.89,23.28Z"/></g><g id="_Repetición_de_cuadrícula_-11"><circle class="cls-3" cx="265.08" cy="111.53" r="12.48"/><circle class="cls-3" cx="222.25" cy="115.14" r="12.48"/><path class="cls-3" d="M226.7,183.66c6.61-.6,12.41-3.65,16.58-8.19,2.61-2.84,2.27-7.3-.68-9.79h0c-2.79-2.36-6.99-2.2-9.48.49-2.11,2.28-5.11,3.74-8.5,3.81-5.88.12-11.03-4.17-11.97-9.96-1.13-6.89,3.85-13.19,10.68-13.81,4.02-.36,6.75,1.3,10.18,4.2,1.12.95,19.01,15.73,19.01,15.73,1.28,1.08,1.44,2.99.36,4.26h0c-.49.58-1.14.92-1.83,1.03-.54.09-.74.77-.35,1.16,5.19,5.02,12.44,7.85,20.17,7.15,14.11-1.27,24.55-13.78,23.28-27.89-1.27-14.11-13.78-24.55-27.89-23.28-6.62.6-12.43,3.67-16.61,8.22-2.59,2.83-2.24,7.27.71,9.73l.21.17c2.78,2.32,6.84,1.97,9.31-.67,2.11-2.26,5.1-3.71,8.49-3.77,5.87-.11,11,4.17,11.95,9.96,1.13,6.89-3.85,13.19-10.68,13.81-3.91.35-6.7-1.2-9.97-3.96-3.48-2.94-20-16.59-20-16.59-1.28-1.07-1.45-2.98-.38-4.26h0c.49-.58,1.15-.94,1.85-1.05.6-.09.84-.82.38-1.23-5.12-4.58-12.05-7.11-19.42-6.45-14.11,1.27-24.55,13.78-23.28,27.89,1.27,14.11,13.78,24.55,27.89,23.28Z"/></g><g id="_Repetición_de_cuadrícula_-12"><circle class="cls-3" cx="370.24" cy="179.37" r="12.48"/><circle class="cls-3" cx="327.42" cy="182.99" r="12.48"/><path class="cls-3" d="M331.87,251.51c6.61-.6,12.41-3.65,16.58-8.19,2.61-2.84,2.27-7.3-.68-9.79h0c-2.79-2.36-6.99-2.2-9.48.49-2.11,2.28-5.11,3.74-8.5,3.81-5.88.12-11.03-4.17-11.97-9.96-1.13-6.89,3.85-13.19,10.68-13.81,4.02-.36,6.75,1.3,10.18,4.2,1.12.95,19.01,15.73,19.01,15.73,1.28,1.08,1.44,2.99.36,4.26h0c-.49.58-1.14.92-1.83,1.03-.54.09-.74.77-.35,1.16,5.19,5.02,12.44,7.85,20.17,7.15,14.11-1.27,24.55-13.78,23.28-27.89-1.27-14.11-13.78-24.55-27.89-23.28-6.62.6-12.43,3.67-16.61,8.22-2.59,2.83-2.24,7.27.71,9.73l.21.17c2.78,2.32,6.84,1.97,9.31-.67,2.11-2.26,5.1-3.71,8.49-3.77,5.87-.11,11,4.17,11.95,9.96,1.13,6.89-3.85,13.19-10.68,13.81-3.91.35-6.7-1.2-9.97-3.96-3.48-2.94-20-16.59-20-16.59-1.28-1.07-1.45-2.98-.38-4.26h0c.49-.58,1.15-.94,1.85-1.05.6-.09.84-.82.38-1.23-5.12-4.58-12.05-7.11-19.42-6.45-14.11,1.27-24.55,13.78-23.28,27.89,1.27,14.11,13.78,24.55,27.89,23.28Z"/></g><g id="_Repetición_de_cuadrícula_-13"><circle class="cls-3" cx="475.4" cy="111.53" r="12.48"/><circle class="cls-3" cx="432.58" cy="115.14" r="12.48"/><path class="cls-3" d="M437.03,183.66c6.61-.6,12.41-3.65,16.58-8.19,2.61-2.84,2.27-7.3-.68-9.79h0c-2.79-2.36-6.99-2.2-9.48.49-2.11,2.28-5.11,3.74-8.5,3.81-5.88.12-11.03-4.17-11.97-9.96-1.13-6.89,3.85-13.19,10.68-13.81,4.02-.36,6.75,1.3,10.18,4.2,1.12.95,19.01,15.73,19.01,15.73,1.28,1.08,1.44,2.99.36,4.26h0c-.49.58-1.14.92-1.83,1.03-.54.09-.74.77-.35,1.16,5.19,5.02,12.44,7.85,20.17,7.15,14.11-1.27,24.55-13.78,23.28-27.89-1.27-14.11-13.78-24.55-27.89-23.28-6.62.6-12.43,3.67-16.61,8.22-2.59,2.83-2.24,7.27.71,9.73l.21.17c2.78,2.32,6.84,1.97,9.31-.67,2.11-2.26,5.1-3.71,8.49-3.77,5.87-.11,11,4.17,11.95,9.96,1.13,6.89-3.85,13.19-10.68,13.81-3.91.35-6.7-1.2-9.97-3.96-3.48-2.94-20-16.59-20-16.59-1.28-1.07-1.45-2.98-.38-4.26h0c.49-.58,1.15-.94,1.85-1.05.6-.09.84-.82.38-1.23-5.12-4.58-12.05-7.11-19.42-6.45-14.11,1.27-24.55,13.78-23.28,27.89,1.27,14.11,13.78,24.55,27.89,23.28Z"/></g><g id="_Repetición_de_cuadrícula_-14"><circle class="cls-3" cx="580.57" cy="179.37" r="12.48"/><circle class="cls-3" cx="537.74" cy="182.99" r="12.48"/><path class="cls-3" d="M542.19,251.51c6.61-.6,12.41-3.65,16.58-8.19,2.61-2.84,2.27-7.3-.68-9.79h0c-2.79-2.36-6.99-2.2-9.48.49-2.11,2.28-5.11,3.74-8.5,3.81-5.88.12-11.03-4.17-11.97-9.96-1.13-6.89,3.85-13.19,10.68-13.81,4.02-.36,6.75,1.3,10.18,4.2,1.12.95,19.01,15.73,19.01,15.73,1.28,1.08,1.44,2.99.36,4.26h0c-.49.58-1.14.92-1.83,1.03-.54.09-.74.77-.35,1.16,5.19,5.02,12.44,7.85,20.17,7.15,14.11-1.27,24.55-13.78,23.28-27.89-1.27-14.11-13.78-24.55-27.89-23.28-6.62.6-12.43,3.67-16.61,8.22-2.59,2.83-2.24,7.27.71,9.73l.21.17c2.78,2.32,6.84,1.97,9.31-.67,2.11-2.26,5.1-3.71,8.49-3.77,5.87-.11,11,4.17,11.95,9.96,1.13,6.89-3.85,13.19-10.68,13.81-3.91.35-6.7-1.2-9.97-3.96-3.48-2.94-20-16.59-20-16.59-1.28-1.07-1.45-2.98-.38-4.26h0c.49-.58,1.15-.94,1.85-1.05.6-.09.84-.82.38-1.23-5.12-4.58-12.05-7.11-19.42-6.45-14.11,1.27-24.55,13.78-23.28,27.89,1.27,14.11,13.78,24.55,27.89,23.28Z"/></g><g id="_Repetición_de_cuadrícula_-15"><circle class="cls-3" cx="685.73" cy="111.53" r="12.48"/><circle class="cls-3" cx="642.9" cy="115.14" r="12.48"/><path class="cls-3" d="M647.35,183.66c6.61-.6,12.41-3.65,16.58-8.19,2.61-2.84,2.27-7.3-.68-9.79h0c-2.79-2.36-6.99-2.2-9.48.49-2.11,2.28-5.11,3.74-8.5,3.81-5.88.12-11.03-4.17-11.97-9.96-1.13-6.89,3.85-13.19,10.68-13.81,4.02-.36,6.75,1.3,10.18,4.2,1.12.95,19.01,15.73,19.01,15.73,1.28,1.08,1.44,2.99.36,4.26h0c-.49.58-1.14.92-1.83,1.03-.54.09-.74.77-.35,1.16,5.19,5.02,12.44,7.85,20.17,7.15,14.11-1.27,24.55-13.78,23.28-27.89-1.27-14.11-13.78-24.55-27.89-23.28-6.62.6-12.43,3.67-16.61,8.22-2.59,2.83-2.24,7.27.71,9.73l.21.17c2.78,2.32,6.84,1.97,9.31-.67,2.11-2.26,5.1-3.71,8.49-3.77,5.87-.11,11,4.17,11.95,9.96,1.13,6.89-3.85,13.19-10.68,13.81-3.91.35-6.7-1.2-9.97-3.96-3.48-2.94-20-16.59-20-16.59-1.28-1.07-1.45-2.98-.38-4.26h0c.49-.58,1.15-.94,1.85-1.05.6-.09.84-.82.38-1.23-5.12-4.58-12.05-7.11-19.42-6.45-14.11,1.27-24.55,13.78-23.28,27.89,1.27,14.11,13.78,24.55,27.89,23.28Z"/></g><g id="_Repetición_de_cuadrícula_-16"><circle class="cls-3" cx="790.89" cy="179.37" r="12.48"/><circle class="cls-3" cx="748.07" cy="182.99" r="12.48"/><path class="cls-3" d="M752.52,251.51c6.61-.6,12.41-3.65,16.58-8.19,2.61-2.84,2.27-7.3-.68-9.79h0c-2.79-2.36-6.99-2.2-9.48.49-2.11,2.28-5.11,3.74-8.5,3.81-5.88.12-11.03-4.17-11.97-9.96-1.13-6.89,3.85-13.19,10.68-13.81,4.02-.36,6.75,1.3,10.18,4.2,1.12.95,19.01,15.73,19.01,15.73,1.28,1.08,1.44,2.99.36,4.26h0c-.49.58-1.14.92-1.83,1.03-.54.09-.74.77-.35,1.16,5.19,5.02,12.44,7.85,20.17,7.15,14.11-1.27,24.55-13.78,23.28-27.89-1.27-14.11-13.78-24.55-27.89-23.28-6.62.6-12.43,3.67-16.61,8.22-2.59,2.83-2.24,7.27.71,9.73l.21.17c2.78,2.32,6.84,1.97,9.31-.67,2.11-2.26,5.1-3.71,8.49-3.77,5.87-.11,11,4.17,11.95,9.96,1.13,6.89-3.85,13.19-10.68,13.81-3.91.35-6.7-1.2-9.97-3.96-3.48-2.94-20-16.59-20-16.59-1.28-1.07-1.45-2.98-.38-4.26h0c.49-.58,1.15-.94,1.85-1.05.6-.09.84-.82.38-1.23-5.12-4.58-12.05-7.11-19.42-6.45-14.11,1.27-24.55,13.78-23.28,27.89,1.27,14.11,13.78,24.55,27.89,23.28Z"/></g><g id="_Repetición_de_cuadrícula_-17"><circle class="cls-3" cx="54.76" cy="247.21" r="12.48"/><circle class="cls-3" cx="11.93" cy="250.83" r="12.48"/><path class="cls-3" d="M16.38,319.35c6.61-.6,12.41-3.65,16.58-8.19,2.61-2.84,2.27-7.3-.68-9.79h0c-2.79-2.36-6.99-2.2-9.48.49-2.11,2.28-5.11,3.74-8.5,3.81-5.88.12-11.03-4.17-11.97-9.96-1.13-6.89,3.85-13.19,10.68-13.81,4.02-.36,6.75,1.3,10.18,4.2,1.12.95,19.01,15.73,19.01,15.73,1.28,1.08,1.44,2.99.36,4.26h0c-.49.58-1.14.92-1.83,1.03-.54.09-.74.77-.35,1.16,5.19,5.02,12.44,7.85,20.17,7.15,14.11-1.27,24.55-13.78,23.28-27.89-1.27-14.11-13.78-24.55-27.89-23.28-6.62.6-12.43,3.67-16.61,8.22-2.59,2.83-2.24,7.27.71,9.73l.21.17c2.78,2.32,6.84,1.97,9.31-.67,2.11-2.26,5.1-3.71,8.49-3.77,5.87-.11,11,4.17,11.95,9.96,1.13,6.89-3.85,13.19-10.68,13.81-3.91.35-6.7-1.2-9.97-3.96-3.48-2.94-20-16.59-20-16.59-1.28-1.07-1.45-2.98-.38-4.26h0c.49-.58,1.15-.94,1.85-1.05.6-.09.84-.82.38-1.23-5.12-4.58-12.05-7.11-19.42-6.45-14.11,1.27-24.55,13.78-23.28,27.89,1.27,14.11,13.78,24.55,27.89,23.28Z"/></g><g id="_Repetición_de_cuadrícula_-18"><circle class="cls-3" cx="159.92" cy="315.06" r="12.48"/><circle class="cls-3" cx="117.09" cy="318.68" r="12.48"/><path class="cls-3" d="M121.54,387.2c6.61-.6,12.41-3.65,16.58-8.19,2.61-2.84,2.27-7.3-.68-9.79h0c-2.79-2.36-6.99-2.2-9.48.49-2.11,2.28-5.11,3.74-8.5,3.81-5.88.12-11.03-4.17-11.97-9.96-1.13-6.89,3.85-13.19,10.68-13.81,4.02-.36,6.75,1.3,10.18,4.2,1.12.95,19.01,15.73,19.01,15.73,1.28,1.08,1.44,2.99.36,4.26h0c-.49.58-1.14.92-1.83,1.03-.54.09-.74.77-.35,1.16,5.19,5.02,12.44,7.85,20.17,7.15,14.11-1.27,24.55-13.78,23.28-27.89-1.27-14.11-13.78-24.55-27.89-23.28-6.62.6-12.43,3.67-16.61,8.22-2.59,2.83-2.24,7.27.71,9.73l.21.17c2.78,2.32,6.84,1.97,9.31-.67,2.11-2.26,5.1-3.71,8.49-3.77,5.87-.11,11,4.17,11.95,9.96,1.13,6.89-3.85,13.19-10.68,13.81-3.91.35-6.7-1.2-9.97-3.96-3.48-2.94-20-16.59-20-16.59-1.28-1.07-1.45-2.98-.38-4.26h0c.49-.58,1.15-.94,1.85-1.05.6-.09.84-.82.38-1.23-5.12-4.58-12.05-7.11-19.42-6.45-14.11,1.27-24.55,13.78-23.28,27.89,1.27,14.11,13.78,24.55,27.89,23.28Z"/></g><g id="_Repetición_de_cuadrícula_-19"><circle class="cls-3" cx="265.08" cy="247.21" r="12.48"/><circle class="cls-3" cx="222.25" cy="250.83" r="12.48"/><path class="cls-3" d="M226.7,319.35c6.61-.6,12.41-3.65,16.58-8.19,2.61-2.84,2.27-7.3-.68-9.79h0c-2.79-2.36-6.99-2.2-9.48.49-2.11,2.28-5.11,3.74-8.5,3.81-5.88.12-11.03-4.17-11.97-9.96-1.13-6.89,3.85-13.19,10.68-13.81,4.02-.36,6.75,1.3,10.18,4.2,1.12.95,19.01,15.73,19.01,15.73,1.28,1.08,1.44,2.99.36,4.26h0c-.49.58-1.14.92-1.83,1.03-.54.09-.74.77-.35,1.16,5.19,5.02,12.44,7.85,20.17,7.15,14.11-1.27,24.55-13.78,23.28-27.89-1.27-14.11-13.78-24.55-27.89-23.28-6.62.6-12.43,3.67-16.61,8.22-2.59,2.83-2.24,7.27.71,9.73l.21.17c2.78,2.32,6.84,1.97,9.31-.67,2.11-2.26,5.1-3.71,8.49-3.77,5.87-.11,11,4.17,11.95,9.96,1.13,6.89-3.85,13.19-10.68,13.81-3.91.35-6.7-1.2-9.97-3.96-3.48-2.94-20-16.59-20-16.59-1.28-1.07-1.45-2.98-.38-4.26h0c.49-.58,1.15-.94,1.85-1.05.6-.09.84-.82.38-1.23-5.12-4.58-12.05-7.11-19.42-6.45-14.11,1.27-24.55,13.78-23.28,27.89,1.27,14.11,13.78,24.55,27.89,23.28Z"/></g><g id="_Repetición_de_cuadrícula_-20"><circle class="cls-3" cx="370.24" cy="315.06" r="12.48"/><circle class="cls-3" cx="327.42" cy="318.68" r="12.48"/><path class="cls-3" d="M331.87,387.2c6.61-.6,12.41-3.65,16.58-8.19,2.61-2.84,2.27-7.3-.68-9.79h0c-2.79-2.36-6.99-2.2-9.48.49-2.11,2.28-5.11,3.74-8.5,3.81-5.88.12-11.03-4.17-11.97-9.96-1.13-6.89,3.85-13.19,10.68-13.81,4.02-.36,6.75,1.3,10.18,4.2,1.12.95,19.01,15.73,19.01,15.73,1.28,1.08,1.44,2.99.36,4.26h0c-.49.58-1.14.92-1.83,1.03-.54.09-.74.77-.35,1.16,5.19,5.02,12.44,7.85,20.17,7.15,14.11-1.27,24.55-13.78,23.28-27.89-1.27-14.11-13.78-24.55-27.89-23.28-6.62.6-12.43,3.67-16.61,8.22-2.59,2.83-2.24,7.27.71,9.73l.21.17c2.78,2.32,6.84,1.97,9.31-.67,2.11-2.26,5.1-3.71,8.49-3.77,5.87-.11,11,4.17,11.95,9.96,1.13,6.89-3.85,13.19-10.68,13.81-3.91.35-6.7-1.2-9.97-3.96-3.48-2.94-20-16.59-20-16.59-1.28-1.07-1.45-2.98-.38-4.26h0c.49-.58,1.15-.94,1.85-1.05.6-.09.84-.82.38-1.23-5.12-4.58-12.05-7.11-19.42-6.45-14.11,1.27-24.55,13.78-23.28,27.89,1.27,14.11,13.78,24.55,27.89,23.28Z"/></g><g id="_Repetición_de_cuadrícula_-21"><circle class="cls-3" cx="475.4" cy="247.21" r="12.48"/><circle class="cls-3" cx="432.58" cy="250.83" r="12.48"/><path class="cls-3" d="M437.03,319.35c6.61-.6,12.41-3.65,16.58-8.19,2.61-2.84,2.27-7.3-.68-9.79h0c-2.79-2.36-6.99-2.2-9.48.49-2.11,2.28-5.11,3.74-8.5,3.81-5.88.12-11.03-4.17-11.97-9.96-1.13-6.89,3.85-13.19,10.68-13.81,4.02-.36,6.75,1.3,10.18,4.2,1.12.95,19.01,15.73,19.01,15.73,1.28,1.08,1.44,2.99.36,4.26h0c-.49.58-1.14.92-1.83,1.03-.54.09-.74.77-.35,1.16,5.19,5.02,12.44,7.85,20.17,7.15,14.11-1.27,24.55-13.78,23.28-27.89-1.27-14.11-13.78-24.55-27.89-23.28-6.62.6-12.43,3.67-16.61,8.22-2.59,2.83-2.24,7.27.71,9.73l.21.17c2.78,2.32,6.84,1.97,9.31-.67,2.11-2.26,5.1-3.71,8.49-3.77,5.87-.11,11,4.17,11.95,9.96,1.13,6.89-3.85,13.19-10.68,13.81-3.91.35-6.7-1.2-9.97-3.96-3.48-2.94-20-16.59-20-16.59-1.28-1.07-1.45-2.98-.38-4.26h0c.49-.58,1.15-.94,1.85-1.05.6-.09.84-.82.38-1.23-5.12-4.58-12.05-7.11-19.42-6.45-14.11,1.27-24.55,13.78-23.28,27.89,1.27,14.11,13.78,24.55,27.89,23.28Z"/></g><g id="_Repetición_de_cuadrícula_-22"><circle class="cls-3" cx="580.57" cy="315.06" r="12.48"/><circle class="cls-3" cx="537.74" cy="318.68" r="12.48"/><path class="cls-3" d="M542.19,387.2c6.61-.6,12.41-3.65,16.58-8.19,2.61-2.84,2.27-7.3-.68-9.79h0c-2.79-2.36-6.99-2.2-9.48.49-2.11,2.28-5.11,3.74-8.5,3.81-5.88.12-11.03-4.17-11.97-9.96-1.13-6.89,3.85-13.19,10.68-13.81,4.02-.36,6.75,1.3,10.18,4.2,1.12.95,19.01,15.73,19.01,15.73,1.28,1.08,1.44,2.99.36,4.26h0c-.49.58-1.14.92-1.83,1.03-.54.09-.74.77-.35,1.16,5.19,5.02,12.44,7.85,20.17,7.15,14.11-1.27,24.55-13.78,23.28-27.89-1.27-14.11-13.78-24.55-27.89-23.28-6.62.6-12.43,3.67-16.61,8.22-2.59,2.83-2.24,7.27.71,9.73l.21.17c2.78,2.32,6.84,1.97,9.31-.67,2.11-2.26,5.1-3.71,8.49-3.77,5.87-.11,11,4.17,11.95,9.96,1.13,6.89-3.85,13.19-10.68,13.81-3.91.35-6.7-1.2-9.97-3.96-3.48-2.94-20-16.59-20-16.59-1.28-1.07-1.45-2.98-.38-4.26h0c.49-.58,1.15-.94,1.85-1.05.6-.09.84-.82.38-1.23-5.12-4.58-12.05-7.11-19.42-6.45-14.11,1.27-24.55,13.78-23.28,27.89,1.27,14.11,13.78,24.55,27.89,23.28Z"/></g><g id="_Repetición_de_cuadrícula_-23"><circle class="cls-3" cx="685.73" cy="247.21" r="12.48"/><circle class="cls-3" cx="642.9" cy="250.83" r="12.48"/><path class="cls-3" d="M647.35,319.35c6.61-.6,12.41-3.65,16.58-8.19,2.61-2.84,2.27-7.3-.68-9.79h0c-2.79-2.36-6.99-2.2-9.48.49-2.11,2.28-5.11,3.74-8.5,3.81-5.88.12-11.03-4.17-11.97-9.96-1.13-6.89,3.85-13.19,10.68-13.81,4.02-.36,6.75,1.3,10.18,4.2,1.12.95,19.01,15.73,19.01,15.73,1.28,1.08,1.44,2.99.36,4.26h0c-.49.58-1.14.92-1.83,1.03-.54.09-.74.77-.35,1.16,5.19,5.02,12.44,7.85,20.17,7.15,14.11-1.27,24.55-13.78,23.28-27.89-1.27-14.11-13.78-24.55-27.89-23.28-6.62.6-12.43,3.67-16.61,8.22-2.59,2.83-2.24,7.27.71,9.73l.21.17c2.78,2.32,6.84,1.97,9.31-.67,2.11-2.26,5.1-3.71,8.49-3.77,5.87-.11,11,4.17,11.95,9.96,1.13,6.89-3.85,13.19-10.68,13.81-3.91.35-6.7-1.2-9.97-3.96-3.48-2.94-20-16.59-20-16.59-1.28-1.07-1.45-2.98-.38-4.26h0c.49-.58,1.15-.94,1.85-1.05.6-.09.84-.82.38-1.23-5.12-4.58-12.05-7.11-19.42-6.45-14.11,1.27-24.55,13.78-23.28,27.89,1.27,14.11,13.78,24.55,27.89,23.28Z"/></g><g id="_Repetición_de_cuadrícula_-24"><circle class="cls-3" cx="790.89" cy="315.06" r="12.48"/><circle class="cls-3" cx="748.07" cy="318.68" r="12.48"/><path class="cls-3" d="M752.52,387.2c6.61-.6,12.41-3.65,16.58-8.19,2.61-2.84,2.27-7.3-.68-9.79h0c-2.79-2.36-6.99-2.2-9.48.49-2.11,2.28-5.11,3.74-8.5,3.81-5.88.12-11.03-4.17-11.97-9.96-1.13-6.89,3.85-13.19,10.68-13.81,4.02-.36,6.75,1.3,10.18,4.2,1.12.95,19.01,15.73,19.01,15.73,1.28,1.08,1.44,2.99.36,4.26h0c-.49.58-1.14.92-1.83,1.03-.54.09-.74.77-.35,1.16,5.19,5.02,12.44,7.85,20.17,7.15,14.11-1.27,24.55-13.78,23.28-27.89-1.27-14.11-13.78-24.55-27.89-23.28-6.62.6-12.43,3.67-16.61,8.22-2.59,2.83-2.24,7.27.71,9.73l.21.17c2.78,2.32,6.84,1.97,9.31-.67,2.11-2.26,5.1-3.71,8.49-3.77,5.87-.11,11,4.17,11.95,9.96,1.13,6.89-3.85,13.19-10.68,13.81-3.91.35-6.7-1.2-9.97-3.96-3.48-2.94-20-16.59-20-16.59-1.28-1.07-1.45-2.98-.38-4.26h0c.49-.58,1.15-.94,1.85-1.05.6-.09.84-.82.38-1.23-5.12-4.58-12.05-7.11-19.42-6.45-14.11,1.27-24.55,13.78-23.28,27.89,1.27,14.11,13.78,24.55,27.89,23.28Z"/></g><g id="_Repetición_de_cuadrícula_-25"><circle class="cls-3" cx="54.76" cy="382.9" r="12.48"/><circle class="cls-3" cx="11.93" cy="386.52" r="12.48"/><path class="cls-3" d="M16.38,455.04c6.61-.6,12.41-3.65,16.58-8.19,2.61-2.84,2.27-7.3-.68-9.79h0c-2.79-2.36-6.99-2.2-9.48.49-2.11,2.28-5.11,3.74-8.5,3.81-5.88.12-11.03-4.17-11.97-9.96-1.13-6.89,3.85-13.19,10.68-13.81,4.02-.36,6.75,1.3,10.18,4.2,1.12.95,19.01,15.73,19.01,15.73,1.28,1.08,1.44,2.99.36,4.26h0c-.49.58-1.14.92-1.83,1.03-.54.09-.74.77-.35,1.16,5.19,5.02,12.44,7.85,20.17,7.15,14.11-1.27,24.55-13.78,23.28-27.89-1.27-14.11-13.78-24.55-27.89-23.28-6.62.6-12.43,3.67-16.61,8.22-2.59,2.83-2.24,7.27.71,9.73l.21.17c2.78,2.32,6.84,1.97,9.31-.67,2.11-2.26,5.1-3.71,8.49-3.77,5.87-.11,11,4.17,11.95,9.96,1.13,6.89-3.85,13.19-10.68,13.81-3.91.35-6.7-1.2-9.97-3.96-3.48-2.94-20-16.59-20-16.59-1.28-1.07-1.45-2.98-.38-4.26h0c.49-.58,1.15-.94,1.85-1.05.6-.09.84-.82.38-1.23-5.12-4.58-12.05-7.11-19.42-6.45-14.11,1.27-24.55,13.78-23.28,27.89,1.27,14.11,13.78,24.55,27.89,23.28Z"/></g><g id="_Repetición_de_cuadrícula_-26"><circle class="cls-3" cx="159.92" cy="450.75" r="12.48"/><circle class="cls-3" cx="117.09" cy="454.36" r="12.48"/><path class="cls-3" d="M121.54,522.88c6.61-.6,12.41-3.65,16.58-8.19,2.61-2.84,2.27-7.3-.68-9.79h0c-2.79-2.36-6.99-2.2-9.48.49-2.11,2.28-5.11,3.74-8.5,3.81-5.88.12-11.03-4.17-11.97-9.96-1.13-6.89,3.85-13.19,10.68-13.81,4.02-.36,6.75,1.3,10.18,4.2,1.12.95,19.01,15.73,19.01,15.73,1.28,1.08,1.44,2.99.36,4.26h0c-.49.58-1.14.92-1.83,1.03-.54.09-.74.77-.35,1.16,5.19,5.02,12.44,7.85,20.17,7.15,14.11-1.27,24.55-13.78,23.28-27.89-1.27-14.11-13.78-24.55-27.89-23.28-6.62.6-12.43,3.67-16.61,8.22-2.59,2.83-2.24,7.27.71,9.73l.21.17c2.78,2.32,6.84,1.97,9.31-.67,2.11-2.26,5.1-3.71,8.49-3.77,5.87-.11,11,4.17,11.95,9.96,1.13,6.89-3.85,13.19-10.68,13.81-3.91.35-6.7-1.2-9.97-3.96-3.48-2.94-20-16.59-20-16.59-1.28-1.07-1.45-2.98-.38-4.26h0c.49-.58,1.15-.94,1.85-1.05.6-.09.84-.82.38-1.23-5.12-4.58-12.05-7.11-19.42-6.45-14.11,1.27-24.55,13.78-23.28,27.89,1.27,14.11,13.78,24.55,27.89,23.28Z"/></g><g id="_Repetición_de_cuadrícula_-27"><circle class="cls-3" cx="265.08" cy="382.9" r="12.48"/><circle class="cls-3" cx="222.25" cy="386.52" r="12.48"/><path class="cls-3" d="M226.7,455.04c6.61-.6,12.41-3.65,16.58-8.19,2.61-2.84,2.27-7.3-.68-9.79h0c-2.79-2.36-6.99-2.2-9.48.49-2.11,2.28-5.11,3.74-8.5,3.81-5.88.12-11.03-4.17-11.97-9.96-1.13-6.89,3.85-13.19,10.68-13.81,4.02-.36,6.75,1.3,10.18,4.2,1.12.95,19.01,15.73,19.01,15.73,1.28,1.08,1.44,2.99.36,4.26h0c-.49.58-1.14.92-1.83,1.03-.54.09-.74.77-.35,1.16,5.19,5.02,12.44,7.85,20.17,7.15,14.11-1.27,24.55-13.78,23.28-27.89-1.27-14.11-13.78-24.55-27.89-23.28-6.62.6-12.43,3.67-16.61,8.22-2.59,2.83-2.24,7.27.71,9.73l.21.17c2.78,2.32,6.84,1.97,9.31-.67,2.11-2.26,5.1-3.71,8.49-3.77,5.87-.11,11,4.17,11.95,9.96,1.13,6.89-3.85,13.19-10.68,13.81-3.91.35-6.7-1.2-9.97-3.96-3.48-2.94-20-16.59-20-16.59-1.28-1.07-1.45-2.98-.38-4.26h0c.49-.58,1.15-.94,1.85-1.05.6-.09.84-.82.38-1.23-5.12-4.58-12.05-7.11-19.42-6.45-14.11,1.27-24.55,13.78-23.28,27.89,1.27,14.11,13.78,24.55,27.89,23.28Z"/></g><g id="_Repetición_de_cuadrícula_-28"><circle class="cls-3" cx="370.24" cy="450.75" r="12.48"/><circle class="cls-3" cx="327.42" cy="454.36" r="12.48"/><path class="cls-3" d="M331.87,522.88c6.61-.6,12.41-3.65,16.58-8.19,2.61-2.84,2.27-7.3-.68-9.79h0c-2.79-2.36-6.99-2.2-9.48.49-2.11,2.28-5.11,3.74-8.5,3.81-5.88.12-11.03-4.17-11.97-9.96-1.13-6.89,3.85-13.19,10.68-13.81,4.02-.36,6.75,1.3,10.18,4.2,1.12.95,19.01,15.73,19.01,15.73,1.28,1.08,1.44,2.99.36,4.26h0c-.49.58-1.14.92-1.83,1.03-.54.09-.74.77-.35,1.16,5.19,5.02,12.44,7.85,20.17,7.15,14.11-1.27,24.55-13.78,23.28-27.89-1.27-14.11-13.78-24.55-27.89-23.28-6.62.6-12.43,3.67-16.61,8.22-2.59,2.83-2.24,7.27.71,9.73l.21.17c2.78,2.32,6.84,1.97,9.31-.67,2.11-2.26,5.1-3.71,8.49-3.77,5.87-.11,11,4.17,11.95,9.96,1.13,6.89-3.85,13.19-10.68,13.81-3.91.35-6.7-1.2-9.97-3.96-3.48-2.94-20-16.59-20-16.59-1.28-1.07-1.45-2.98-.38-4.26h0c.49-.58,1.15-.94,1.85-1.05.6-.09.84-.82.38-1.23-5.12-4.58-12.05-7.11-19.42-6.45-14.11,1.27-24.55,13.78-23.28,27.89,1.27,14.11,13.78,24.55,27.89,23.28Z"/></g><g id="_Repetición_de_cuadrícula_-29"><circle class="cls-3" cx="475.4" cy="382.9" r="12.48"/><circle class="cls-3" cx="432.58" cy="386.52" r="12.48"/><path class="cls-3" d="M437.03,455.04c6.61-.6,12.41-3.65,16.58-8.19,2.61-2.84,2.27-7.3-.68-9.79h0c-2.79-2.36-6.99-2.2-9.48.49-2.11,2.28-5.11,3.74-8.5,3.81-5.88.12-11.03-4.17-11.97-9.96-1.13-6.89,3.85-13.19,10.68-13.81,4.02-.36,6.75,1.3,10.18,4.2,1.12.95,19.01,15.73,19.01,15.73,1.28,1.08,1.44,2.99.36,4.26h0c-.49.58-1.14.92-1.83,1.03-.54.09-.74.77-.35,1.16,5.19,5.02,12.44,7.85,20.17,7.15,14.11-1.27,24.55-13.78,23.28-27.89-1.27-14.11-13.78-24.55-27.89-23.28-6.62.6-12.43,3.67-16.61,8.22-2.59,2.83-2.24,7.27.71,9.73l.21.17c2.78,2.32,6.84,1.97,9.31-.67,2.11-2.26,5.1-3.71,8.49-3.77,5.87-.11,11,4.17,11.95,9.96,1.13,6.89-3.85,13.19-10.68,13.81-3.91.35-6.7-1.2-9.97-3.96-3.48-2.94-20-16.59-20-16.59-1.28-1.07-1.45-2.98-.38-4.26h0c.49-.58,1.15-.94,1.85-1.05.6-.09.84-.82.38-1.23-5.12-4.58-12.05-7.11-19.42-6.45-14.11,1.27-24.55,13.78-23.28,27.89,1.27,14.11,13.78,24.55,27.89,23.28Z"/></g><g id="_Repetición_de_cuadrícula_-30"><circle class="cls-3" cx="580.57" cy="450.75" r="12.48"/><circle class="cls-3" cx="537.74" cy="454.36" r="12.48"/><path class="cls-3" d="M542.19,522.88c6.61-.6,12.41-3.65,16.58-8.19,2.61-2.84,2.27-7.3-.68-9.79h0c-2.79-2.36-6.99-2.2-9.48.49-2.11,2.28-5.11,3.74-8.5,3.81-5.88.12-11.03-4.17-11.97-9.96-1.13-6.89,3.85-13.19,10.68-13.81,4.02-.36,6.75,1.3,10.18,4.2,1.12.95,19.01,15.73,19.01,15.73,1.28,1.08,1.44,2.99.36,4.26h0c-.49.58-1.14.92-1.83,1.03-.54.09-.74.77-.35,1.16,5.19,5.02,12.44,7.85,20.17,7.15,14.11-1.27,24.55-13.78,23.28-27.89-1.27-14.11-13.78-24.55-27.89-23.28-6.62.6-12.43,3.67-16.61,8.22-2.59,2.83-2.24,7.27.71,9.73l.21.17c2.78,2.32,6.84,1.97,9.31-.67,2.11-2.26,5.1-3.71,8.49-3.77,5.87-.11,11,4.17,11.95,9.96,1.13,6.89-3.85,13.19-10.68,13.81-3.91.35-6.7-1.2-9.97-3.96-3.48-2.94-20-16.59-20-16.59-1.28-1.07-1.45-2.98-.38-4.26h0c.49-.58,1.15-.94,1.85-1.05.6-.09.84-.82.38-1.23-5.12-4.58-12.05-7.11-19.42-6.45-14.11,1.27-24.55,13.78-23.28,27.89,1.27,14.11,13.78,24.55,27.89,23.28Z"/></g><g id="_Repetición_de_cuadrícula_-31"><circle class="cls-3" cx="685.73" cy="382.9" r="12.48"/><circle class="cls-3" cx="642.9" cy="386.52" r="12.48"/><path class="cls-3" d="M647.35,455.04c6.61-.6,12.41-3.65,16.58-8.19,2.61-2.84,2.27-7.3-.68-9.79h0c-2.79-2.36-6.99-2.2-9.48.49-2.11,2.28-5.11,3.74-8.5,3.81-5.88.12-11.03-4.17-11.97-9.96-1.13-6.89,3.85-13.19,10.68-13.81,4.02-.36,6.75,1.3,10.18,4.2,1.12.95,19.01,15.73,19.01,15.73,1.28,1.08,1.44,2.99.36,4.26h0c-.49.58-1.14.92-1.83,1.03-.54.09-.74.77-.35,1.16,5.19,5.02,12.44,7.85,20.17,7.15,14.11-1.27,24.55-13.78,23.28-27.89-1.27-14.11-13.78-24.55-27.89-23.28-6.62.6-12.43,3.67-16.61,8.22-2.59,2.83-2.24,7.27.71,9.73l.21.17c2.78,2.32,6.84,1.97,9.31-.67,2.11-2.26,5.1-3.71,8.49-3.77,5.87-.11,11,4.17,11.95,9.96,1.13,6.89-3.85,13.19-10.68,13.81-3.91.35-6.7-1.2-9.97-3.96-3.48-2.94-20-16.59-20-16.59-1.28-1.07-1.45-2.98-.38-4.26h0c.49-.58,1.15-.94,1.85-1.05.6-.09.84-.82.38-1.23-5.12-4.58-12.05-7.11-19.42-6.45-14.11,1.27-24.55,13.78-23.28,27.89,1.27,14.11,13.78,24.55,27.89,23.28Z"/></g><g id="_Repetición_de_cuadrícula_-32"><circle class="cls-3" cx="790.89" cy="450.75" r="12.48"/><circle class="cls-3" cx="748.07" cy="454.36" r="12.48"/><path class="cls-3" d="M752.52,522.88c6.61-.6,12.41-3.65,16.58-8.19,2.61-2.84,2.27-7.3-.68-9.79h0c-2.79-2.36-6.99-2.2-9.48.49-2.11,2.28-5.11,3.74-8.5,3.81-5.88.12-11.03-4.17-11.97-9.96-1.13-6.89,3.85-13.19,10.68-13.81,4.02-.36,6.75,1.3,10.18,4.2,1.12.95,19.01,15.73,19.01,15.73,1.28,1.08,1.44,2.99.36,4.26h0c-.49.58-1.14.92-1.83,1.03-.54.09-.74.77-.35,1.16,5.19,5.02,12.44,7.85,20.17,7.15,14.11-1.27,24.55-13.78,23.28-27.89-1.27-14.11-13.78-24.55-27.89-23.28-6.62.6-12.43,3.67-16.61,8.22-2.59,2.83-2.24,7.27.71,9.73l.21.17c2.78,2.32,6.84,1.97,9.31-.67,2.11-2.26,5.1-3.71,8.49-3.77,5.87-.11,11,4.17,11.95,9.96,1.13,6.89-3.85,13.19-10.68,13.81-3.91.35-6.7-1.2-9.97-3.96-3.48-2.94-20-16.59-20-16.59-1.28-1.07-1.45-2.98-.38-4.26h0c.49-.58,1.15-.94,1.85-1.05.6-.09.84-.82.38-1.23-5.12-4.58-12.05-7.11-19.42-6.45-14.11,1.27-24.55,13.78-23.28,27.89,1.27,14.11,13.78,24.55,27.89,23.28Z"/></g><g id="_Repetición_de_cuadrícula_-33"><circle class="cls-3" cx="54.76" cy="518.59" r="12.48"/><circle class="cls-3" cx="11.93" cy="522.21" r="12.48"/><path class="cls-3" d="M16.38,590.73c6.61-.6,12.41-3.65,16.58-8.19,2.61-2.84,2.27-7.3-.68-9.79h0c-2.79-2.36-6.99-2.2-9.48.49-2.11,2.28-5.11,3.74-8.5,3.81-5.88.12-11.03-4.17-11.97-9.96-1.13-6.89,3.85-13.19,10.68-13.81,4.02-.36,6.75,1.3,10.18,4.2,1.12.95,19.01,15.73,19.01,15.73,1.28,1.08,1.44,2.99.36,4.26h0c-.49.58-1.14.92-1.83,1.03-.54.09-.74.77-.35,1.16,5.19,5.02,12.44,7.85,20.17,7.15,14.11-1.27,24.55-13.78,23.28-27.89-1.27-14.11-13.78-24.55-27.89-23.28-6.62.6-12.43,3.67-16.61,8.22-2.59,2.83-2.24,7.27.71,9.73l.21.17c2.78,2.32,6.84,1.97,9.31-.67,2.11-2.26,5.1-3.71,8.49-3.77,5.87-.11,11,4.17,11.95,9.96,1.13,6.89-3.85,13.19-10.68,13.81-3.91.35-6.7-1.2-9.97-3.96-3.48-2.94-20-16.59-20-16.59-1.28-1.07-1.45-2.98-.38-4.26h0c.49-.58,1.15-.94,1.85-1.05.6-.09.84-.82.38-1.23-5.12-4.58-12.05-7.11-19.42-6.45-14.11,1.27-24.55,13.78-23.28,27.89,1.27,14.11,13.78,24.55,27.89,23.28Z"/></g><g id="_Repetición_de_cuadrícula_-34"><circle class="cls-3" cx="159.92" cy="586.43" r="12.48"/><circle class="cls-3" cx="117.09" cy="590.05" r="12.48"/><path class="cls-3" d="M121.54,658.57c6.61-.6,12.41-3.65,16.58-8.19,2.61-2.84,2.27-7.3-.68-9.79h0c-2.79-2.36-6.99-2.2-9.48.49-2.11,2.28-5.11,3.74-8.5,3.81-5.88.12-11.03-4.17-11.97-9.96-1.13-6.89,3.85-13.19,10.68-13.81,4.02-.36,6.75,1.3,10.18,4.2,1.12.95,19.01,15.73,19.01,15.73,1.28,1.08,1.44,2.99.36,4.26h0c-.49.58-1.14.92-1.83,1.03-.54.09-.74.77-.35,1.16,5.19,5.02,12.44,7.85,20.17,7.15,14.11-1.27,24.55-13.78,23.28-27.89-1.27-14.11-13.78-24.55-27.89-23.28-6.62.6-12.43,3.67-16.61,8.22-2.59,2.83-2.24,7.27.71,9.73l.21.17c2.78,2.32,6.84,1.97,9.31-.67,2.11-2.26,5.1-3.71,8.49-3.77,5.87-.11,11,4.17,11.95,9.96,1.13,6.89-3.85,13.19-10.68,13.81-3.91.35-6.7-1.2-9.97-3.96-3.48-2.94-20-16.59-20-16.59-1.28-1.07-1.45-2.98-.38-4.26h0c.49-.58,1.15-.94,1.85-1.05.6-.09.84-.82.38-1.23-5.12-4.58-12.05-7.11-19.42-6.45-14.11,1.27-24.55,13.78-23.28,27.89,1.27,14.11,13.78,24.55,27.89,23.28Z"/></g><g id="_Repetición_de_cuadrícula_-35"><circle class="cls-3" cx="265.08" cy="518.59" r="12.48"/><circle class="cls-3" cx="222.25" cy="522.21" r="12.48"/><path class="cls-3" d="M226.7,590.73c6.61-.6,12.41-3.65,16.58-8.19,2.61-2.84,2.27-7.3-.68-9.79h0c-2.79-2.36-6.99-2.2-9.48.49-2.11,2.28-5.11,3.74-8.5,3.81-5.88.12-11.03-4.17-11.97-9.96-1.13-6.89,3.85-13.19,10.68-13.81,4.02-.36,6.75,1.3,10.18,4.2,1.12.95,19.01,15.73,19.01,15.73,1.28,1.08,1.44,2.99.36,4.26h0c-.49.58-1.14.92-1.83,1.03-.54.09-.74.77-.35,1.16,5.19,5.02,12.44,7.85,20.17,7.15,14.11-1.27,24.55-13.78,23.28-27.89-1.27-14.11-13.78-24.55-27.89-23.28-6.62.6-12.43,3.67-16.61,8.22-2.59,2.83-2.24,7.27.71,9.73l.21.17c2.78,2.32,6.84,1.97,9.31-.67,2.11-2.26,5.1-3.71,8.49-3.77,5.87-.11,11,4.17,11.95,9.96,1.13,6.89-3.85,13.19-10.68,13.81-3.91.35-6.7-1.2-9.97-3.96-3.48-2.94-20-16.59-20-16.59-1.28-1.07-1.45-2.98-.38-4.26h0c.49-.58,1.15-.94,1.85-1.05.6-.09.84-.82.38-1.23-5.12-4.58-12.05-7.11-19.42-6.45-14.11,1.27-24.55,13.78-23.28,27.89,1.27,14.11,13.78,24.55,27.89,23.28Z"/></g><g id="_Repetición_de_cuadrícula_-36"><circle class="cls-3" cx="370.24" cy="586.43" r="12.48"/><circle class="cls-3" cx="327.42" cy="590.05" r="12.48"/><path class="cls-3" d="M331.87,658.57c6.61-.6,12.41-3.65,16.58-8.19,2.61-2.84,2.27-7.3-.68-9.79h0c-2.79-2.36-6.99-2.2-9.48.49-2.11,2.28-5.11,3.74-8.5,3.81-5.88.12-11.03-4.17-11.97-9.96-1.13-6.89,3.85-13.19,10.68-13.81,4.02-.36,6.75,1.3,10.18,4.2,1.12.95,19.01,15.73,19.01,15.73,1.28,1.08,1.44,2.99.36,4.26h0c-.49.58-1.14.92-1.83,1.03-.54.09-.74.77-.35,1.16,5.19,5.02,12.44,7.85,20.17,7.15,14.11-1.27,24.55-13.78,23.28-27.89-1.27-14.11-13.78-24.55-27.89-23.28-6.62.6-12.43,3.67-16.61,8.22-2.59,2.83-2.24,7.27.71,9.73l.21.17c2.78,2.32,6.84,1.97,9.31-.67,2.11-2.26,5.1-3.71,8.49-3.77,5.87-.11,11,4.17,11.95,9.96,1.13,6.89-3.85,13.19-10.68,13.81-3.91.35-6.7-1.2-9.97-3.96-3.48-2.94-20-16.59-20-16.59-1.28-1.07-1.45-2.98-.38-4.26h0c.49-.58,1.15-.94,1.85-1.05.6-.09.84-.82.38-1.23-5.12-4.58-12.05-7.11-19.42-6.45-14.11,1.27-24.55,13.78-23.28,27.89,1.27,14.11,13.78,24.55,27.89,23.28Z"/></g><g id="_Repetición_de_cuadrícula_-37"><circle class="cls-3" cx="475.4" cy="518.59" r="12.48"/><circle class="cls-3" cx="432.58" cy="522.21" r="12.48"/><path class="cls-3" d="M437.03,590.73c6.61-.6,12.41-3.65,16.58-8.19,2.61-2.84,2.27-7.3-.68-9.79h0c-2.79-2.36-6.99-2.2-9.48.49-2.11,2.28-5.11,3.74-8.5,3.81-5.88.12-11.03-4.17-11.97-9.96-1.13-6.89,3.85-13.19,10.68-13.81,4.02-.36,6.75,1.3,10.18,4.2,1.12.95,19.01,15.73,19.01,15.73,1.28,1.08,1.44,2.99.36,4.26h0c-.49.58-1.14.92-1.83,1.03-.54.09-.74.77-.35,1.16,5.19,5.02,12.44,7.85,20.17,7.15,14.11-1.27,24.55-13.78,23.28-27.89-1.27-14.11-13.78-24.55-27.89-23.28-6.62.6-12.43,3.67-16.61,8.22-2.59,2.83-2.24,7.27.71,9.73l.21.17c2.78,2.32,6.84,1.97,9.31-.67,2.11-2.26,5.1-3.71,8.49-3.77,5.87-.11,11,4.17,11.95,9.96,1.13,6.89-3.85,13.19-10.68,13.81-3.91.35-6.7-1.2-9.97-3.96-3.48-2.94-20-16.59-20-16.59-1.28-1.07-1.45-2.98-.38-4.26h0c.49-.58,1.15-.94,1.85-1.05.6-.09.84-.82.38-1.23-5.12-4.58-12.05-7.11-19.42-6.45-14.11,1.27-24.55,13.78-23.28,27.89,1.27,14.11,13.78,24.55,27.89,23.28Z"/></g><g id="_Repetición_de_cuadrícula_-38"><circle class="cls-3" cx="580.57" cy="586.43" r="12.48"/><circle class="cls-3" cx="537.74" cy="590.05" r="12.48"/><path class="cls-3" d="M542.19,658.57c6.61-.6,12.41-3.65,16.58-8.19,2.61-2.84,2.27-7.3-.68-9.79h0c-2.79-2.36-6.99-2.2-9.48.49-2.11,2.28-5.11,3.74-8.5,3.81-5.88.12-11.03-4.17-11.97-9.96-1.13-6.89,3.85-13.19,10.68-13.81,4.02-.36,6.75,1.3,10.18,4.2,1.12.95,19.01,15.73,19.01,15.73,1.28,1.08,1.44,2.99.36,4.26h0c-.49.58-1.14.92-1.83,1.03-.54.09-.74.77-.35,1.16,5.19,5.02,12.44,7.85,20.17,7.15,14.11-1.27,24.55-13.78,23.28-27.89-1.27-14.11-13.78-24.55-27.89-23.28-6.62.6-12.43,3.67-16.61,8.22-2.59,2.83-2.24,7.27.71,9.73l.21.17c2.78,2.32,6.84,1.97,9.31-.67,2.11-2.26,5.1-3.71,8.49-3.77,5.87-.11,11,4.17,11.95,9.96,1.13,6.89-3.85,13.19-10.68,13.81-3.91.35-6.7-1.2-9.97-3.96-3.48-2.94-20-16.59-20-16.59-1.28-1.07-1.45-2.98-.38-4.26h0c.49-.58,1.15-.94,1.85-1.05.6-.09.84-.82.38-1.23-5.12-4.58-12.05-7.11-19.42-6.45-14.11,1.27-24.55,13.78-23.28,27.89,1.27,14.11,13.78,24.55,27.89,23.28Z"/></g><g id="_Repetición_de_cuadrícula_-39"><circle class="cls-3" cx="685.73" cy="518.59" r="12.48"/><circle class="cls-3" cx="642.9" cy="522.21" r="12.48"/><path class="cls-3" d="M647.35,590.73c6.61-.6,12.41-3.65,16.58-8.19,2.61-2.84,2.27-7.3-.68-9.79h0c-2.79-2.36-6.99-2.2-9.48.49-2.11,2.28-5.11,3.74-8.5,3.81-5.88.12-11.03-4.17-11.97-9.96-1.13-6.89,3.85-13.19,10.68-13.81,4.02-.36,6.75,1.3,10.18,4.2,1.12.95,19.01,15.73,19.01,15.73,1.28,1.08,1.44,2.99.36,4.26h0c-.49.58-1.14.92-1.83,1.03-.54.09-.74.77-.35,1.16,5.19,5.02,12.44,7.85,20.17,7.15,14.11-1.27,24.55-13.78,23.28-27.89-1.27-14.11-13.78-24.55-27.89-23.28-6.62.6-12.43,3.67-16.61,8.22-2.59,2.83-2.24,7.27.71,9.73l.21.17c2.78,2.32,6.84,1.97,9.31-.67,2.11-2.26,5.1-3.71,8.49-3.77,5.87-.11,11,4.17,11.95,9.96,1.13,6.89-3.85,13.19-10.68,13.81-3.91.35-6.7-1.2-9.97-3.96-3.48-2.94-20-16.59-20-16.59-1.28-1.07-1.45-2.98-.38-4.26h0c.49-.58,1.15-.94,1.85-1.05.6-.09.84-.82.38-1.23-5.12-4.58-12.05-7.11-19.42-6.45-14.11,1.27-24.55,13.78-23.28,27.89,1.27,14.11,13.78,24.55,27.89,23.28Z"/></g><g id="_Repetición_de_cuadrícula_-40"><circle class="cls-3" cx="790.89" cy="586.43" r="12.48"/><circle class="cls-3" cx="748.07" cy="590.05" r="12.48"/><path class="cls-3" d="M752.52,658.57c6.61-.6,12.41-3.65,16.58-8.19,2.61-2.84,2.27-7.3-.68-9.79h0c-2.79-2.36-6.99-2.2-9.48.49-2.11,2.28-5.11,3.74-8.5,3.81-5.88.12-11.03-4.17-11.97-9.96-1.13-6.89,3.85-13.19,10.68-13.81,4.02-.36,6.75,1.3,10.18,4.2,1.12.95,19.01,15.73,19.01,15.73,1.28,1.08,1.44,2.99.36,4.26h0c-.49.58-1.14.92-1.83,1.03-.54.09-.74.77-.35,1.16,5.19,5.02,12.44,7.85,20.17,7.15,14.11-1.27,24.55-13.78,23.28-27.89-1.27-14.11-13.78-24.55-27.89-23.28-6.62.6-12.43,3.67-16.61,8.22-2.59,2.83-2.24,7.27.71,9.73l.21.17c2.78,2.32,6.84,1.97,9.31-.67,2.11-2.26,5.1-3.71,8.49-3.77,5.87-.11,11,4.17,11.95,9.96,1.13,6.89-3.85,13.19-10.68,13.81-3.91.35-6.7-1.2-9.97-3.96-3.48-2.94-20-16.59-20-16.59-1.28-1.07-1.45-2.98-.38-4.26h0c.49-.58,1.15-.94,1.85-1.05.6-.09.84-.82.38-1.23-5.12-4.58-12.05-7.11-19.42-6.45-14.11,1.27-24.55,13.78-23.28,27.89,1.27,14.11,13.78,24.55,27.89,23.28Z"/></g><g id="_Repetición_de_cuadrícula_-41"><circle class="cls-3" cx="54.76" cy="654.28" r="12.48"/><circle class="cls-3" cx="11.93" cy="657.9" r="12.48"/><path class="cls-3" d="M16.38,726.42c6.61-.6,12.41-3.65,16.58-8.19,2.61-2.84,2.27-7.3-.68-9.79h0c-2.79-2.36-6.99-2.2-9.48.49-2.11,2.28-5.11,3.74-8.5,3.81-5.88.12-11.03-4.17-11.97-9.96-1.13-6.89,3.85-13.19,10.68-13.81,4.02-.36,6.75,1.3,10.18,4.2,1.12.95,19.01,15.73,19.01,15.73,1.28,1.08,1.44,2.99.36,4.26h0c-.49.58-1.14.92-1.83,1.03-.54.09-.74.77-.35,1.16,5.19,5.02,12.44,7.85,20.17,7.15,14.11-1.27,24.55-13.78,23.28-27.89-1.27-14.11-13.78-24.55-27.89-23.28-6.62.6-12.43,3.67-16.61,8.22-2.59,2.83-2.24,7.27.71,9.73l.21.17c2.78,2.32,6.84,1.97,9.31-.67,2.11-2.26,5.1-3.71,8.49-3.77,5.87-.11,11,4.17,11.95,9.96,1.13,6.89-3.85,13.19-10.68,13.81-3.91.35-6.7-1.2-9.97-3.96-3.48-2.94-20-16.59-20-16.59-1.28-1.07-1.45-2.98-.38-4.26h0c.49-.58,1.15-.94,1.85-1.05.6-.09.84-.82.38-1.23-5.12-4.58-12.05-7.11-19.42-6.45-14.11,1.27-24.55,13.78-23.28,27.89,1.27,14.11,13.78,24.55,27.89,23.28Z"/></g><g id="_Repetición_de_cuadrícula_-42"><circle class="cls-3" cx="159.92" cy="722.12" r="12.48"/><circle class="cls-3" cx="117.09" cy="725.74" r="12.48"/><path class="cls-3" d="M121.54,794.26c6.61-.6,12.41-3.65,16.58-8.19,2.61-2.84,2.27-7.3-.68-9.79h0c-2.79-2.36-6.99-2.2-9.48.49-2.11,2.28-5.11,3.74-8.5,3.81-5.88.12-11.03-4.17-11.97-9.96-1.13-6.89,3.85-13.19,10.68-13.81,4.02-.36,6.75,1.3,10.18,4.2,1.12.95,19.01,15.73,19.01,15.73,1.28,1.08,1.44,2.99.36,4.26h0c-.49.58-1.14.92-1.83,1.03-.54.09-.74.77-.35,1.16,5.19,5.02,12.44,7.85,20.17,7.15,14.11-1.27,24.55-13.78,23.28-27.89-1.27-14.11-13.78-24.55-27.89-23.28-6.62.6-12.43,3.67-16.61,8.22-2.59,2.83-2.24,7.27.71,9.73l.21.17c2.78,2.32,6.84,1.97,9.31-.67,2.11-2.26,5.1-3.71,8.49-3.77,5.87-.11,11,4.17,11.95,9.96,1.13,6.89-3.85,13.19-10.68,13.81-3.91.35-6.7-1.2-9.97-3.96-3.48-2.94-20-16.59-20-16.59-1.28-1.07-1.45-2.98-.38-4.26h0c.49-.58,1.15-.94,1.85-1.05.6-.09.84-.82.38-1.23-5.12-4.58-12.05-7.11-19.42-6.45-14.11,1.27-24.55,13.78-23.28,27.89,1.27,14.11,13.78,24.55,27.89,23.28Z"/></g><g id="_Repetición_de_cuadrícula_-43"><circle class="cls-3" cx="265.08" cy="654.28" r="12.48"/><circle class="cls-3" cx="222.25" cy="657.9" r="12.48"/><path class="cls-3" d="M226.7,726.42c6.61-.6,12.41-3.65,16.58-8.19,2.61-2.84,2.27-7.3-.68-9.79h0c-2.79-2.36-6.99-2.2-9.48.49-2.11,2.28-5.11,3.74-8.5,3.81-5.88.12-11.03-4.17-11.97-9.96-1.13-6.89,3.85-13.19,10.68-13.81,4.02-.36,6.75,1.3,10.18,4.2,1.12.95,19.01,15.73,19.01,15.73,1.28,1.08,1.44,2.99.36,4.26h0c-.49.58-1.14.92-1.83,1.03-.54.09-.74.77-.35,1.16,5.19,5.02,12.44,7.85,20.17,7.15,14.11-1.27,24.55-13.78,23.28-27.89-1.27-14.11-13.78-24.55-27.89-23.28-6.62.6-12.43,3.67-16.61,8.22-2.59,2.83-2.24,7.27.71,9.73l.21.17c2.78,2.32,6.84,1.97,9.31-.67,2.11-2.26,5.1-3.71,8.49-3.77,5.87-.11,11,4.17,11.95,9.96,1.13,6.89-3.85,13.19-10.68,13.81-3.91.35-6.7-1.2-9.97-3.96-3.48-2.94-20-16.59-20-16.59-1.28-1.07-1.45-2.98-.38-4.26h0c.49-.58,1.15-.94,1.85-1.05.6-.09.84-.82.38-1.23-5.12-4.58-12.05-7.11-19.42-6.45-14.11,1.27-24.55,13.78-23.28,27.89,1.27,14.11,13.78,24.55,27.89,23.28Z"/></g><g id="_Repetición_de_cuadrícula_-44"><circle class="cls-3" cx="370.24" cy="722.12" r="12.48"/><circle class="cls-3" cx="327.42" cy="725.74" r="12.48"/><path class="cls-3" d="M331.87,794.26c6.61-.6,12.41-3.65,16.58-8.19,2.61-2.84,2.27-7.3-.68-9.79h0c-2.79-2.36-6.99-2.2-9.48.49-2.11,2.28-5.11,3.74-8.5,3.81-5.88.12-11.03-4.17-11.97-9.96-1.13-6.89,3.85-13.19,10.68-13.81,4.02-.36,6.75,1.3,10.18,4.2,1.12.95,19.01,15.73,19.01,15.73,1.28,1.08,1.44,2.99.36,4.26h0c-.49.58-1.14.92-1.83,1.03-.54.09-.74.77-.35,1.16,5.19,5.02,12.44,7.85,20.17,7.15,14.11-1.27,24.55-13.78,23.28-27.89-1.27-14.11-13.78-24.55-27.89-23.28-6.62.6-12.43,3.67-16.61,8.22-2.59,2.83-2.24,7.27.71,9.73l.21.17c2.78,2.32,6.84,1.97,9.31-.67,2.11-2.26,5.1-3.71,8.49-3.77,5.87-.11,11,4.17,11.95,9.96,1.13,6.89-3.85,13.19-10.68,13.81-3.91.35-6.7-1.2-9.97-3.96-3.48-2.94-20-16.59-20-16.59-1.28-1.07-1.45-2.98-.38-4.26h0c.49-.58,1.15-.94,1.85-1.05.6-.09.84-.82.38-1.23-5.12-4.58-12.05-7.11-19.42-6.45-14.11,1.27-24.55,13.78-23.28,27.89,1.27,14.11,13.78,24.55,27.89,23.28Z"/></g><g id="_Repetición_de_cuadrícula_-45"><circle class="cls-3" cx="475.4" cy="654.28" r="12.48"/><circle class="cls-3" cx="432.58" cy="657.9" r="12.48"/><path class="cls-3" d="M437.03,726.42c6.61-.6,12.41-3.65,16.58-8.19,2.61-2.84,2.27-7.3-.68-9.79h0c-2.79-2.36-6.99-2.2-9.48.49-2.11,2.28-5.11,3.74-8.5,3.81-5.88.12-11.03-4.17-11.97-9.96-1.13-6.89,3.85-13.19,10.68-13.81,4.02-.36,6.75,1.3,10.18,4.2,1.12.95,19.01,15.73,19.01,15.73,1.28,1.08,1.44,2.99.36,4.26h0c-.49.58-1.14.92-1.83,1.03-.54.09-.74.77-.35,1.16,5.19,5.02,12.44,7.85,20.17,7.15,14.11-1.27,24.55-13.78,23.28-27.89-1.27-14.11-13.78-24.55-27.89-23.28-6.62.6-12.43,3.67-16.61,8.22-2.59,2.83-2.24,7.27.71,9.73l.21.17c2.78,2.32,6.84,1.97,9.31-.67,2.11-2.26,5.1-3.71,8.49-3.77,5.87-.11,11,4.17,11.95,9.96,1.13,6.89-3.85,13.19-10.68,13.81-3.91.35-6.7-1.2-9.97-3.96-3.48-2.94-20-16.59-20-16.59-1.28-1.07-1.45-2.98-.38-4.26h0c.49-.58,1.15-.94,1.85-1.05.6-.09.84-.82.38-1.23-5.12-4.58-12.05-7.11-19.42-6.45-14.11,1.27-24.55,13.78-23.28,27.89,1.27,14.11,13.78,24.55,27.89,23.28Z"/></g><g id="_Repetición_de_cuadrícula_-46"><circle class="cls-3" cx="580.57" cy="722.12" r="12.48"/><circle class="cls-3" cx="537.74" cy="725.74" r="12.48"/><path class="cls-3" d="M542.19,794.26c6.61-.6,12.41-3.65,16.58-8.19,2.61-2.84,2.27-7.3-.68-9.79h0c-2.79-2.36-6.99-2.2-9.48.49-2.11,2.28-5.11,3.74-8.5,3.81-5.88.12-11.03-4.17-11.97-9.96-1.13-6.89,3.85-13.19,10.68-13.81,4.02-.36,6.75,1.3,10.18,4.2,1.12.95,19.01,15.73,19.01,15.73,1.28,1.08,1.44,2.99.36,4.26h0c-.49.58-1.14.92-1.83,1.03-.54.09-.74.77-.35,1.16,5.19,5.02,12.44,7.85,20.17,7.15,14.11-1.27,24.55-13.78,23.28-27.89-1.27-14.11-13.78-24.55-27.89-23.28-6.62.6-12.43,3.67-16.61,8.22-2.59,2.83-2.24,7.27.71,9.73l.21.17c2.78,2.32,6.84,1.97,9.31-.67,2.11-2.26,5.1-3.71,8.49-3.77,5.87-.11,11,4.17,11.95,9.96,1.13,6.89-3.85,13.19-10.68,13.81-3.91.35-6.7-1.2-9.97-3.96-3.48-2.94-20-16.59-20-16.59-1.28-1.07-1.45-2.98-.38-4.26h0c.49-.58,1.15-.94,1.85-1.05.6-.09.84-.82.38-1.23-5.12-4.58-12.05-7.11-19.42-6.45-14.11,1.27-24.55,13.78-23.28,27.89,1.27,14.11,13.78,24.55,27.89,23.28Z"/></g><g id="_Repetición_de_cuadrícula_-47"><circle class="cls-3" cx="685.73" cy="654.28" r="12.48"/><circle class="cls-3" cx="642.9" cy="657.9" r="12.48"/><path class="cls-3" d="M647.35,726.42c6.61-.6,12.41-3.65,16.58-8.19,2.61-2.84,2.27-7.3-.68-9.79h0c-2.79-2.36-6.99-2.2-9.48.49-2.11,2.28-5.11,3.74-8.5,3.81-5.88.12-11.03-4.17-11.97-9.96-1.13-6.89,3.85-13.19,10.68-13.81,4.02-.36,6.75,1.3,10.18,4.2,1.12.95,19.01,15.73,19.01,15.73,1.28,1.08,1.44,2.99.36,4.26h0c-.49.58-1.14.92-1.83,1.03-.54.09-.74.77-.35,1.16,5.19,5.02,12.44,7.85,20.17,7.15,14.11-1.27,24.55-13.78,23.28-27.89-1.27-14.11-13.78-24.55-27.89-23.28-6.62.6-12.43,3.67-16.61,8.22-2.59,2.83-2.24,7.27.71,9.73l.21.17c2.78,2.32,6.84,1.97,9.31-.67,2.11-2.26,5.1-3.71,8.49-3.77,5.87-.11,11,4.17,11.95,9.96,1.13,6.89-3.85,13.19-10.68,13.81-3.91.35-6.7-1.2-9.97-3.96-3.48-2.94-20-16.59-20-16.59-1.28-1.07-1.45-2.98-.38-4.26h0c.49-.58,1.15-.94,1.85-1.05.6-.09.84-.82.38-1.23-5.12-4.58-12.05-7.11-19.42-6.45-14.11,1.27-24.55,13.78-23.28,27.89,1.27,14.11,13.78,24.55,27.89,23.28Z"/></g><g id="_Repetición_de_cuadrícula_-48"><circle class="cls-3" cx="790.89" cy="722.12" r="12.48"/><circle class="cls-3" cx="748.07" cy="725.74" r="12.48"/><path class="cls-3" d="M752.52,794.26c6.61-.6,12.41-3.65,16.58-8.19,2.61-2.84,2.27-7.3-.68-9.79h0c-2.79-2.36-6.99-2.2-9.48.49-2.11,2.28-5.11,3.74-8.5,3.81-5.88.12-11.03-4.17-11.97-9.96-1.13-6.89,3.85-13.19,10.68-13.81,4.02-.36,6.75,1.3,10.18,4.2,1.12.95,19.01,15.73,19.01,15.73,1.28,1.08,1.44,2.99.36,4.26h0c-.49.58-1.14.92-1.83,1.03-.54.09-.74.77-.35,1.16,5.19,5.02,12.44,7.85,20.17,7.15,14.11-1.27,24.55-13.78,23.28-27.89-1.27-14.11-13.78-24.55-27.89-23.28-6.62.6-12.43,3.67-16.61,8.22-2.59,2.83-2.24,7.27.71,9.73l.21.17c2.78,2.32,6.84,1.97,9.31-.67,2.11-2.26,5.1-3.71,8.49-3.77,5.87-.11,11,4.17,11.95,9.96,1.13,6.89-3.85,13.19-10.68,13.81-3.91.35-6.7-1.2-9.97-3.96-3.48-2.94-20-16.59-20-16.59-1.28-1.07-1.45-2.98-.38-4.26h0c.49-.58,1.15-.94,1.85-1.05.6-.09.84-.82.38-1.23-5.12-4.58-12.05-7.11-19.42-6.45-14.11,1.27-24.55,13.78-23.28,27.89,1.27,14.11,13.78,24.55,27.89,23.28Z"/></g><g id="_Repetición_de_cuadrícula_-49"><circle class="cls-3" cx="54.76" cy="789.97" r="12.48"/><circle class="cls-3" cx="11.93" cy="793.58" r="12.48"/></g><g id="_Repetición_de_cuadrícula_-50"><circle class="cls-3" cx="265.08" cy="789.97" r="12.48"/><circle class="cls-3" cx="222.25" cy="793.58" r="12.48"/></g><g id="_Repetición_de_cuadrícula_-51"><circle class="cls-3" cx="475.4" cy="789.97" r="12.48"/><circle class="cls-3" cx="432.58" cy="793.58" r="12.48"/></g><g id="_Repetición_de_cuadrícula_-52"><circle class="cls-3" cx="685.73" cy="789.97" r="12.48"/><circle class="cls-3" cx="642.9" cy="793.58" r="12.48"/></g></g></g></g></svg>