<?xml version="1.0" encoding="UTF-8"?><svg id="Capa_2" xmlns="http://www.w3.org/2000/svg" viewBox="0 0 298.56 259.57"><defs><style>.cls-1{fill:#006bcf;}.cls-1,.cls-2{stroke-width:0px;}.cls-3{opacity:.55;}.cls-4{fill:none;stroke:#fff;stroke-width:10.21px;}.cls-2{fill:#fff;}</style></defs><g id="Capa_1-2"><path class="cls-2" d="M269.05,110.37c-8.79-8.91-19.19-15.63-30.56-19.89,9.64-8.98,15.69-21.75,15.71-35.93.04-27.14-22.01-49.25-49.15-49.28-27.14-.04-49.25,22.01-49.28,49.15-.02,15.42,7.1,29.22,18.22,38.26-9,4.07-17.3,9.69-24.44,16.69-.75-.84-1.54-1.66-2.39-2.43-7.35-6.79-15.73-12.15-24.77-15.93,10.07-9,16.43-22.08,16.45-36.61.04-27.14-22.01-49.25-49.15-49.28-27.14-.04-49.25,22.01-49.28,49.15-.02,14.64,6.39,27.81,16.56,36.84-30.23,12.79-51.62,42.67-51.86,77.44-.16,22.58,8.51,43.9,24.4,60.02,15.89,16.12,37.08,25.08,59.67,25.24h.48c22.25.03,43.54-8.73,59.36-24.24.78.88,1.61,1.73,2.49,2.54,15.51,14.28,35.64,22.22,56.69,22.37h.48c46.42.07,84.45-37.65,84.78-84.07.16-22.58-8.51-43.9-24.4-60.02ZM104.25,177.16c-7.02,7-10.26,8.23-14.49,8.22h-.11c-4.55-.03-8.77-1.91-11.87-5.29-3.09-3.37-4.59-7.75-4.23-12.32.63-7.97,7.13-14.36,15.1-14.88.38-.02.75-.04,1.13-.04,4.02,0,7.88,1.5,10.87,4.21,4.5,4.08,9.92,6.86,15.72,8.14-5.37,5.27-9.84,9.67-12.13,11.96ZM224.99,171.14c-.63,7.98-7.14,14.38-15.14,14.88-.36.02-.73.03-1.09.03-4.05,0-7.93-1.52-10.92-4.26-4.42-4.04-9.79-6.79-15.58-8.04,6.05-5.92,10.68-10.45,11.54-11.31,7.7-7.68,10.73-8.92,14.99-8.91h.1c4.55.03,8.77,1.91,11.87,5.29,3.09,3.37,4.59,7.74,4.23,12.32Z"/><g class="cls-3"><path class="cls-4" d="M269.05,110.37c-8.79-8.91-19.19-15.63-30.56-19.89,9.64-8.98,15.69-21.75,15.71-35.93.04-27.14-22.01-49.25-49.15-49.28-27.14-.04-49.25,22.01-49.28,49.15-.02,15.42,7.1,29.22,18.22,38.26-9,4.07-17.3,9.69-24.44,16.69-.75-.84-1.54-1.66-2.39-2.43-7.35-6.79-15.73-12.15-24.77-15.93,10.07-9,16.43-22.08,16.45-36.61.04-27.14-22.01-49.25-49.15-49.28-27.14-.04-49.25,22.01-49.28,49.15-.02,14.64,6.39,27.81,16.56,36.84-30.23,12.79-51.62,42.67-51.86,77.44-.16,22.58,8.51,43.9,24.4,60.02,15.89,16.12,37.08,25.08,59.67,25.24h.48c22.25.03,43.54-8.73,59.36-24.24.78.88,1.61,1.73,2.49,2.54,15.51,14.28,35.64,22.22,56.69,22.37h.48c46.42.07,84.45-37.65,84.78-84.07.16-22.58-8.51-43.9-24.4-60.02ZM104.25,177.16c-7.02,7-10.26,8.23-14.49,8.22h-.11c-4.55-.03-8.77-1.91-11.87-5.29-3.09-3.37-4.59-7.75-4.23-12.32.63-7.97,7.13-14.36,15.1-14.88.38-.02.75-.04,1.13-.04,4.02,0,7.88,1.5,10.87,4.21,4.5,4.08,9.92,6.86,15.72,8.14-5.37,5.27-9.84,9.67-12.13,11.96ZM224.99,171.14c-.63,7.98-7.14,14.38-15.14,14.88-.36.02-.73.03-1.09.03-4.05,0-7.93-1.52-10.92-4.26-4.42-4.04-9.79-6.79-15.58-8.04,6.05-5.92,10.68-10.45,11.54-11.31,7.7-7.68,10.73-8.92,14.99-8.91h.1c4.55.03,8.77,1.91,11.87,5.29,3.09,3.37,4.59,7.74,4.23,12.32Z"/></g><circle class="cls-1" cx="89.52" cy="54.4" r="33.51"/><circle class="cls-1" cx="204.88" cy="54.4" r="33.51"/><path class="cls-1" d="M208.46,238.67c-17.8-.1-34-6.97-46.19-18.15-7.62-7-7.71-19.02-.39-26.34h0c6.94-6.94,18.2-7.45,25.45-.84,6.15,5.61,14.5,8.86,23.61,8.28,15.74-1.01,28.55-13.63,29.77-29.36,1.46-18.69-13.28-34.41-31.69-34.52-10.83-.06-17.76,5.02-26.27,13.53-2.78,2.78-47.29,46.36-47.29,46.36-3.17,3.17-3.17,8.31,0,11.48h0c1.43,1.43,3.26,2.21,5.13,2.35,1.47.11,2.16,1.9,1.19,3.02-12.74,14.6-31.49,23.79-52.34,23.68-38.02-.21-68.78-31.32-68.57-69.34.21-38.02,31.32-68.78,69.34-68.57,17.84.1,34.08,7.01,46.27,18.24,7.57,6.97,7.63,18.93.31,26.17l-.52.52c-6.9,6.83-17.84,6.82-25.05.31-6.16-5.57-14.49-8.78-23.57-8.18-15.71,1.04-28.48,13.65-29.71,29.35-1.46,18.69,13.28,34.42,31.69,34.52,10.52.06,17.65-4.72,25.78-12.84,8.66-8.66,49.73-48.88,49.73-48.88,3.19-3.15,3.22-8.29.06-11.48h0c-1.44-1.45-3.28-2.25-5.17-2.38-1.63-.12-2.43-2.01-1.3-3.2,12.67-13.41,30.63-21.74,50.49-21.63,38.02.21,68.78,31.32,68.57,69.34-.21,38.02-31.32,68.78-69.34,68.57Z"/></g></svg>