<?xml version="1.0" encoding="UTF-8"?><svg id="Capa_2" xmlns="http://www.w3.org/2000/svg" viewBox="0 0 591.56 501.39"><defs><style>.cls-1{fill:#006bcf;stroke-width:0px;}</style></defs><g id="Capa_1-2"><circle class="cls-1" cx="158.07" cy="77.14" r="77.14"/><circle class="cls-1" cx="423.66" cy="77.14" r="77.14"/><path class="cls-1" d="M431.9,501.39c-40.98-.23-78.29-16.05-106.34-41.8-17.56-16.11-17.75-43.79-.9-60.64h0c15.98-15.98,41.91-17.16,58.6-1.93,14.17,12.92,33.39,20.4,54.35,19.06,36.24-2.32,65.73-31.39,68.55-67.59,3.36-43.02-30.58-79.23-72.97-79.47-24.93-.14-40.88,11.55-60.5,31.16-6.41,6.41-108.87,106.73-108.87,106.73-7.3,7.3-7.3,19.14,0,26.44h0c3.29,3.29,7.5,5.1,11.81,5.42,3.39.25,4.97,4.39,2.74,6.95-29.32,33.6-72.51,54.78-120.5,54.51C70.34,499.74-.49,428.12,0,340.58c.49-87.54,72.11-158.36,159.65-157.88,41.08.23,78.47,16.13,106.54,41.99,17.43,16.06,17.57,43.59.71,60.25l-1.2,1.19c-15.9,15.72-41.08,15.71-57.66.72-14.18-12.82-33.36-20.2-54.26-18.82-36.18,2.39-65.57,31.43-68.4,67.57-3.36,43.03,30.57,79.24,72.97,79.48,24.23.14,40.64-10.86,59.35-29.57,19.93-19.93,114.5-112.55,114.5-112.55,7.34-7.26,7.41-19.1.15-26.44h0c-3.31-3.34-7.56-5.17-11.91-5.49-3.75-.27-5.59-4.63-3-7.36,29.17-30.86,70.53-50.06,116.24-49.81,87.54.49,158.36,72.11,157.87,159.65-.49,87.54-72.11,158.36-159.65,157.88Z"/></g></svg>