<?xml version="1.0" encoding="UTF-8"?>
<svg id="Capa_2" data-name="Capa 2" xmlns="http://www.w3.org/2000/svg" version="1.1" viewBox="0 0 369.2 300.7">
  <defs>
    <style>
      .cls-1 {
        fill: #006bcf;
        stroke-width: 0px;
      }

      .cls-2 {
        isolation: isolate;
      }
    </style>
  </defs>
  <g id="Capa_1-2" data-name="Capa 1-2">
    <circle class="cls-1" cx="122.6" cy="34.7" r="34.7"/>
    <circle class="cls-1" cx="242.1" cy="34.7" r="34.7"/>
    <path class="cls-1" d="M245.8,225.5c-18.4-.1-35.2-7.2-47.8-18.8-7.9-7.2-8-19.7-.4-27.3h0c7.2-7.2,18.9-7.7,26.4-.9,6.4,5.8,15,9.2,24.4,8.6,16.3-1,29.6-14.1,30.8-30.4,1.5-19.4-13.8-35.6-32.8-35.8-11.2,0-18.4,5.2-27.2,14-2.9,2.9-49,48-49,48-3.3,3.3-3.3,8.6,0,11.9h0c1.5,1.5,3.4,2.3,5.3,2.4,1.5.1,2.2,2,1.2,3.1-13.2,15.1-32.6,24.6-54.2,24.5-39.4-.2-71.2-32.4-71-71.8.2-39.4,32.4-71.2,71.8-71,18.5,0,35.3,7.3,47.9,18.9,7.8,7.2,7.9,19.6.3,27.1l-.5.5c-7.1,7.1-18.5,7.1-25.9.3-6.4-5.8-15-9.1-24.4-8.5-16.3,1.1-29.5,14.1-30.8,30.4-1.5,19.4,13.8,35.6,32.8,35.8,10.9,0,18.3-4.9,26.7-13.3s51.5-50.6,51.5-50.6c3.3-3.3,3.3-8.6,0-11.9h0c-1.5-1.5-3.4-2.3-5.4-2.5-1.7-.1-2.5-2.1-1.4-3.3,13.1-13.9,31.7-22.5,52.3-22.4,39.4.2,71.2,32.4,71,71.8-.2,39.4-32.4,71.2-71.8,71h0Z"/>
    <g class="cls-2">
      <g class="cls-2">
        <path class="cls-1" d="M40.4,278.6v-30.5h-12v-6.8h32.2v6.8h-12v30.5h-8.2Z"/>
      </g>
      <g class="cls-2">
        <path class="cls-1" d="M72.7,279.3c-2.9,0-5.2-.8-6.9-2.4-1.7-1.6-2.6-4.2-2.6-7.7v-19.2h7.6v17.9c0,.9.1,1.7.3,2.4.2.6.5,1.2,1,1.6.4.4.9.7,1.6.9.6.2,1.3.3,2.1.3,1.1,0,2.1-.3,3-.8.9-.5,1.6-1.3,2.1-2.3.5-1,.8-2,.8-3.2v-16.7h7.6v28.6h-6.2l-.5-3.9h-.4c-.7.9-1.5,1.7-2.4,2.4-.9.7-2,1.2-3.1,1.6-1.2.4-2.4.6-3.8.6Z"/>
        <path class="cls-1" d="M107.8,279.3c-2,0-3.8-.2-5.4-.7-1.6-.4-3-1-4.1-1.8-1.1-.8-2-1.7-2.6-2.8-.6-1.1-.9-2.3-.9-3.7v-.4c0-.1,0-.3,0-.3h7.3v.4c0,.9.3,1.6.9,2.2.5.6,1.3,1,2.2,1.2.9.3,1.8.4,2.8.4s1.7,0,2.5-.2c.8-.2,1.5-.5,2.1-.9.6-.4.8-1,.8-1.7s-.4-1.5-1.1-2c-.7-.5-1.6-.9-2.8-1.1-1.1-.3-2.4-.6-3.7-1-1.2-.3-2.5-.6-3.7-1-1.2-.4-2.4-.9-3.3-1.5s-1.8-1.4-2.4-2.4c-.6-1-.9-2.3-.9-3.8s.3-2.8,1-3.9,1.6-2,2.7-2.8c1.1-.7,2.5-1.3,4-1.6,1.5-.3,3.2-.5,5-.5s3.2.2,4.7.5c1.5.3,2.7.9,3.8,1.5,1.1.7,1.9,1.5,2.6,2.5.6,1,.9,2.1.9,3.3v.7c0,.2,0,.4,0,.4h-7.2v-.4c0-.7-.2-1.2-.6-1.7-.4-.5-1-.8-1.7-1.1-.7-.3-1.6-.4-2.7-.4s-1.4,0-2,.2c-.6.1-1.1.3-1.6.5s-.8.5-1,.8c-.2.3-.4.7-.4,1.1,0,.6.3,1.1.8,1.5s1.2.7,2.1,1c.9.3,1.8.5,2.9.8,1.3.4,2.7.7,4.1,1.1s2.8.8,4,1.4c1.2.6,2.2,1.4,3,2.5.8,1.1,1.1,2.5,1.1,4.3s-.3,3.2-1,4.4c-.7,1.2-1.6,2.2-2.8,2.9s-2.6,1.3-4.2,1.6c-1.6.3-3.3.5-5.2.5Z"/>
        <path class="cls-1" d="M134,278.6l14.4-37.3h10l14.4,37.3h-8.8l-2.7-7.3h-16.3l-2.7,7.3h-8.4ZM147.4,264.7h11.6l-3.3-9.2c-.1-.4-.3-.9-.5-1.4-.2-.6-.4-1.2-.6-1.9s-.4-1.4-.6-2c-.2-.7-.4-1.3-.6-1.8h-.3c-.2.7-.4,1.5-.7,2.4-.3.9-.6,1.8-.9,2.7-.3.9-.5,1.6-.7,2.1l-3.3,9.2Z"/>
        <path class="cls-1" d="M176.6,278.6v-39.4h7.6v39.4h-7.6Z"/>
        <path class="cls-1" d="M191.1,245.8v-6.5h7.6v6.5h-7.6ZM191.1,278.6v-28.6h7.6v28.6h-7.6Z"/>
        <path class="cls-1" d="M213.2,279.3c-.9,0-2-.1-3-.3-1.1-.2-2.1-.6-3-1.2-.9-.6-1.7-1.4-2.3-2.5-.6-1.1-.9-2.4-.9-4.1s.4-3.6,1.3-5c.9-1.3,2.1-2.3,3.7-3.1,1.6-.7,3.5-1.3,5.8-1.6,2.2-.3,4.7-.4,7.5-.4v-2.1c0-.8-.1-1.6-.4-2.2-.3-.6-.7-1.1-1.4-1.5-.7-.4-1.6-.5-2.8-.5s-2.2.1-2.9.4c-.7.3-1.3.7-1.6,1.1-.3.5-.5,1-.5,1.5v.7h-7.3c0-.2,0-.4,0-.5v-.6c0-1.7.5-3.1,1.5-4.3,1-1.2,2.4-2.2,4.3-2.8,1.9-.7,4-1,6.5-1s4.9.3,6.7,1c1.8.7,3.2,1.7,4.1,3,1,1.3,1.4,3,1.4,5.1v13c0,.7.2,1.1.6,1.4.4.3.8.5,1.3.5h1.8v5c-.4.2-.9.4-1.7.6-.8.2-1.7.3-2.8.3s-2-.2-2.8-.5c-.8-.3-1.5-.7-2-1.3-.5-.6-.9-1.2-1.1-2h-.4c-.6.8-1.4,1.4-2.3,2s-1.9,1-3.1,1.4c-1.2.3-2.5.5-4.1.5ZM215.8,273.5c1,0,1.9-.2,2.7-.5.8-.3,1.5-.7,2-1.3.5-.5,1-1.2,1.3-1.9.3-.8.5-1.6.5-2.5v-1.6c-2,0-3.8.1-5.4.4-1.6.3-2.9.7-3.8,1.4-.9.7-1.4,1.6-1.4,2.7s.2,1.2.5,1.7c.3.5.8.8,1.4,1.1.6.3,1.4.4,2.2.4Z"/>
        <path class="cls-1" d="M247.3,279.3c-2.4,0-4.4-.5-6.1-1.6-1.7-1.1-3.1-2.7-4-4.9-.9-2.2-1.4-5-1.4-8.5s.5-6.3,1.4-8.5c1-2.2,2.3-3.8,4-4.9,1.7-1.1,3.6-1.6,5.9-1.6s2.4.1,3.5.4c1.1.3,2,.7,2.8,1.3.8.6,1.5,1.3,2.1,2.1h.3v-13.9h7.6v39.4h-6.2l-.6-3.9h-.4c-.9,1.5-2.2,2.7-3.7,3.4s-3.2,1.1-5.1,1.1ZM249.7,273.1c1.4,0,2.6-.3,3.5-1,.9-.7,1.6-1.6,2-2.8s.7-2.7.7-4.4v-1c0-1.3-.1-2.4-.4-3.5-.2-1.1-.6-1.9-1.1-2.6-.5-.7-1.1-1.3-1.9-1.6-.8-.4-1.7-.6-2.7-.6-1.5,0-2.7.3-3.6.9-.9.6-1.6,1.5-2,2.7-.4,1.2-.6,2.7-.6,4.5v1.3c0,1.8.2,3.3.6,4.5.4,1.2,1.1,2.1,2,2.7.9.6,2.1.9,3.6.9Z"/>
        <path class="cls-1" d="M283.5,279.3c-3.1,0-5.8-.5-7.9-1.6-2.2-1.1-3.8-2.7-5-5-1.1-2.2-1.7-5-1.7-8.4s.6-6.3,1.7-8.5c1.1-2.2,2.8-3.8,5-4.9,2.2-1.1,4.8-1.6,7.9-1.6s5.9.5,8,1.6c2.2,1.1,3.8,2.7,4.9,4.9,1.1,2.2,1.7,5,1.7,8.5s-.6,6.2-1.7,8.4c-1.1,2.2-2.8,3.9-4.9,5-2.2,1.1-4.8,1.6-8,1.6ZM283.5,273.4c1.7,0,3-.3,4-.9,1-.6,1.7-1.6,2.2-2.8.5-1.3.7-2.8.7-4.7v-1.3c0-1.9-.2-3.4-.7-4.7-.5-1.3-1.2-2.2-2.2-2.9-1-.6-2.3-1-4-1s-2.9.3-3.9,1c-1,.6-1.7,1.6-2.2,2.9-.5,1.3-.7,2.8-.7,4.7v1.3c0,1.9.2,3.4.7,4.7s1.2,2.2,2.2,2.8c1,.6,2.3.9,3.9.9Z"/>
        <path class="cls-1" d="M315.3,279.3c-2,0-3.8-.2-5.4-.7-1.6-.4-3-1-4.1-1.8-1.1-.8-2-1.7-2.6-2.8-.6-1.1-.9-2.3-.9-3.7v-.4c0-.1,0-.3,0-.3h7.3v.4c0,.9.3,1.6.9,2.2.5.6,1.3,1,2.2,1.2.9.3,1.8.4,2.8.4s1.7,0,2.5-.2c.8-.2,1.5-.5,2.1-.9.6-.4.8-1,.8-1.7s-.4-1.5-1.1-2c-.7-.5-1.6-.9-2.8-1.1-1.1-.3-2.4-.6-3.7-1-1.2-.3-2.5-.6-3.7-1-1.2-.4-2.4-.9-3.3-1.5s-1.8-1.4-2.4-2.4c-.6-1-.9-2.3-.9-3.8s.3-2.8,1-3.9,1.6-2,2.7-2.8c1.1-.7,2.5-1.3,4-1.6,1.5-.3,3.2-.5,5-.5s3.2.2,4.7.5c1.5.3,2.7.9,3.8,1.5,1.1.7,1.9,1.5,2.6,2.5.6,1,.9,2.1.9,3.3v.7c0,.2,0,.4,0,.4h-7.2v-.4c0-.7-.2-1.2-.6-1.7-.4-.5-1-.8-1.7-1.1-.7-.3-1.6-.4-2.7-.4s-1.4,0-2,.2c-.6.1-1.1.3-1.6.5s-.8.5-1,.8c-.2.3-.4.7-.4,1.1,0,.6.3,1.1.8,1.5s1.2.7,2.1,1c.9.3,1.8.5,2.9.8,1.3.4,2.7.7,4.1,1.1s2.8.8,4,1.4c1.2.6,2.2,1.4,3,2.5.8,1.1,1.1,2.5,1.1,4.3s-.3,3.2-1,4.4c-.7,1.2-1.6,2.2-2.8,2.9s-2.6,1.3-4.2,1.6c-1.6.3-3.3.5-5.2.5Z"/>
      </g>
    </g>
  </g>
</svg>