<?xml version="1.0" encoding="UTF-8"?>
<svg id="Capa_2" data-name="Capa 2" xmlns="http://www.w3.org/2000/svg" version="1.1" viewBox="0 0 894.9 742.2">
  <defs>
    <style>
      .cls-1 {
        fill: #006bcf;
        stroke-width: 0px;
      }

      .cls-2 {
        isolation: isolate;
      }
    </style>
  </defs>
  <g id="Capa_1-2" data-name="Capa 1-2">
    <circle class="cls-1" cx="309.8" cy="77.1" r="77.1"/>
    <circle class="cls-1" cx="575.3" cy="77.1" r="77.1"/>
    <path class="cls-1" d="M583.6,501.4c-41-.2-78.3-16-106.3-41.8-17.6-16.1-17.8-43.8-.9-60.6h0c16-16,41.9-17.2,58.6-1.9,14.2,12.9,33.4,20.4,54.3,19.1,36.2-2.3,65.7-31.4,68.5-67.6,3.4-43-30.6-79.2-73-79.5-24.9-.1-40.9,11.5-60.5,31.2-6.4,6.4-108.9,106.7-108.9,106.7-7.3,7.3-7.3,19.1,0,26.4h0c3.3,3.3,7.5,5.1,11.8,5.4,3.4.2,5,4.4,2.7,7-29.3,33.6-72.5,54.8-120.5,54.5-87.5-.5-158.4-72.1-157.9-159.6.5-87.5,72.1-158.4,159.6-157.9,41.1.2,78.5,16.1,106.5,42,17.4,16.1,17.6,43.6.7,60.2l-1.2,1.2c-15.9,15.7-41.1,15.7-57.7.7-14.2-12.8-33.4-20.2-54.3-18.8-36.2,2.4-65.6,31.4-68.4,67.6-3.4,43,30.6,79.2,73,79.5,24.2.1,40.6-10.9,59.4-29.6,19.9-19.9,114.5-112.5,114.5-112.5,7.3-7.3,7.4-19.1.1-26.4h0c-3.3-3.3-7.6-5.2-11.9-5.5-3.8-.3-5.6-4.6-3-7.4,29.2-30.9,70.5-50.1,116.2-49.8,87.5.5,158.4,72.1,157.9,159.6-.5,87.5-72.1,158.4-159.7,157.9h0Z"/>
    <g class="cls-2">
      <g class="cls-2">
        <path class="cls-1" d="M129.6,618.6v-67.3h-26.4v-15h70.9v15h-26.5v67.3h-18Z"/>
      </g>
      <g class="cls-2">
        <path class="cls-1" d="M200.9,620.1c-6.4,0-11.5-1.8-15.2-5.3-3.8-3.5-5.6-9.2-5.6-17v-42.2h16.7v39.5c0,2.1.2,3.8.7,5.2.5,1.4,1.2,2.5,2.1,3.4.9.9,2.1,1.5,3.4,1.9,1.4.4,2.9.6,4.6.6,2.5,0,4.7-.6,6.7-1.8,2-1.2,3.6-2.9,4.7-5,1.1-2.1,1.7-4.5,1.7-7.1v-36.7h16.7v63.1h-13.7l-1.2-8.6h-.8c-1.5,2-3.3,3.8-5.3,5.3-2,1.5-4.3,2.7-6.9,3.5-2.6.8-5.4,1.3-8.4,1.3Z"/>
        <path class="cls-1" d="M278.2,620.1c-4.4,0-8.4-.5-11.9-1.4-3.5-1-6.5-2.3-9-4-2.5-1.7-4.4-3.8-5.7-6.2-1.3-2.4-2-5.1-2-8.2v-1c0-.3,0-.6.1-.7h16.1v1c0,2,.7,3.6,1.9,4.9,1.2,1.2,2.8,2.1,4.7,2.7,2,.6,4,.8,6.2.8s3.8-.2,5.6-.5c1.8-.4,3.3-1,4.6-2,1.2-1,1.9-2.2,1.9-3.7s-.8-3.4-2.3-4.4c-1.6-1-3.6-1.9-6.1-2.5-2.5-.6-5.3-1.4-8.2-2.2-2.7-.6-5.4-1.4-8.2-2.2-2.7-.8-5.2-1.9-7.4-3.3-2.2-1.4-4-3.1-5.3-5.3-1.4-2.2-2-5-2-8.3s.7-6.1,2.2-8.6c1.4-2.4,3.4-4.5,5.9-6.1,2.5-1.6,5.5-2.8,8.9-3.5,3.4-.8,7.1-1.1,11-1.1s7.1.4,10.3,1.1c3.2.8,6,1.9,8.4,3.4,2.4,1.5,4.3,3.3,5.6,5.5,1.4,2.2,2,4.7,2,7.4v1.6c0,.5,0,.8-.1,1h-16v-1c0-1.4-.4-2.7-1.3-3.7-.9-1-2.1-1.8-3.8-2.3-1.6-.6-3.6-.8-5.9-.8s-3.1.1-4.4.4-2.5.6-3.4,1.1-1.7,1.1-2.2,1.7c-.5.7-.8,1.5-.8,2.5,0,1.4.6,2.5,1.7,3.3,1.2.8,2.7,1.5,4.6,2.1,1.9.6,4,1.2,6.4,1.8,2.9.8,5.9,1.6,9.1,2.3,3.2.8,6.1,1.8,8.8,3.1,2.7,1.3,4.9,3.1,6.6,5.5,1.7,2.4,2.5,5.5,2.5,9.5s-.7,7.1-2.2,9.7c-1.5,2.6-3.5,4.8-6.2,6.4-2.6,1.6-5.7,2.8-9.2,3.5-3.5.7-7.3,1.1-11.4,1.1Z"/>
        <path class="cls-1" d="M335.9,618.6l31.7-82.3h22.1l31.7,82.3h-19.3l-5.9-16.2h-35.9l-5.9,16.2h-18.5ZM365.4,588h25.6l-7.3-20.3c-.3-.9-.7-1.9-1.1-3.2-.4-1.2-.9-2.6-1.4-4.1-.5-1.5-.9-3-1.4-4.5-.4-1.5-.9-2.8-1.3-4h-.7c-.4,1.5-.9,3.3-1.6,5.3-.6,2-1.3,4-1.9,5.9-.6,1.9-1.2,3.4-1.6,4.6l-7.3,20.3Z"/>
        <path class="cls-1" d="M429.8,618.6v-86.8h16.7v86.8h-16.7Z"/>
        <path class="cls-1" d="M461.8,546.3v-14.4h16.7v14.4h-16.7ZM461.8,618.6v-63.1h16.7v63.1h-16.7Z"/>
        <path class="cls-1" d="M510.5,620.1c-2.1,0-4.3-.2-6.7-.7-2.4-.5-4.6-1.3-6.7-2.6-2.1-1.2-3.8-3-5.1-5.4-1.3-2.4-2-5.4-2-9.1s1-8,2.9-10.9,4.7-5.1,8.2-6.8c3.6-1.6,7.8-2.8,12.8-3.4,5-.6,10.4-1,16.4-1v-4.7c0-1.8-.3-3.4-.9-4.8-.6-1.4-1.6-2.4-3.1-3.2-1.5-.8-3.5-1.2-6.2-1.2s-4.8.3-6.4,1c-1.6.6-2.8,1.5-3.5,2.5-.7,1-1,2.1-1,3.3v1.4h-16.2c0-.4-.1-.8-.1-1.1v-1.4c0-3.7,1.1-6.9,3.4-9.5,2.2-2.7,5.4-4.7,9.5-6.2,4.1-1.4,8.8-2.2,14.3-2.2s10.7.8,14.7,2.3c4,1.5,7,3.8,9.1,6.7,2.1,3,3.2,6.7,3.2,11.2v28.7c0,1.4.4,2.5,1.3,3.2.8.7,1.8,1,2.8,1h4v10.9c-.8.4-2,.8-3.7,1.3-1.7.4-3.7.7-6.1.7s-4.4-.3-6.2-1-3.3-1.6-4.5-2.9c-1.2-1.2-2-2.7-2.5-4.5h-.8c-1.4,1.7-3,3.2-5,4.4-2,1.3-4.2,2.3-6.8,3-2.6.7-5.6,1.1-8.9,1.1ZM516.2,607.5c2.2,0,4.2-.3,6-1,1.8-.7,3.2-1.6,4.4-2.8,1.2-1.2,2.1-2.6,2.8-4.3.7-1.7,1-3.5,1-5.4v-3.5c-4.5,0-8.5.3-12,.9-3.5.6-6.3,1.6-8.3,3.1-2,1.4-3.1,3.4-3.1,6s.4,2.7,1.1,3.7c.7,1,1.8,1.8,3.1,2.4,1.4.6,3,.8,4.9.8Z"/>
        <path class="cls-1" d="M585.8,620.1c-5.2,0-9.7-1.2-13.5-3.5-3.8-2.4-6.7-6-8.8-10.9-2.1-4.9-3.1-11.1-3.1-18.7s1.1-13.8,3.2-18.7c2.1-4.8,5-8.4,8.8-10.7,3.7-2.3,8-3.5,12.9-3.5s5.3.3,7.6.9c2.4.6,4.4,1.5,6.2,2.8,1.8,1.3,3.3,2.8,4.6,4.7h.7v-30.6h16.7v86.8h-13.7l-1.3-8.5h-.8c-2.1,3.4-4.8,5.9-8.2,7.5-3.4,1.6-7.1,2.5-11.3,2.5ZM591,606.4c3.1,0,5.7-.7,7.6-2.2,2-1.4,3.4-3.5,4.4-6.2,1-2.7,1.4-6,1.4-9.7v-2.2c0-2.8-.3-5.4-.8-7.7-.5-2.3-1.3-4.3-2.5-5.8-1.1-1.6-2.5-2.8-4.2-3.6-1.7-.8-3.7-1.3-6-1.3-3.4,0-6,.7-8,2-2,1.3-3.4,3.3-4.3,6-.9,2.7-1.3,6-1.3,10v2.8c0,4,.4,7.3,1.3,10,.9,2.6,2.3,4.6,4.3,5.9,2,1.3,4.7,2,8,2Z"/>
        <path class="cls-1" d="M665.4,620.1c-6.9,0-12.7-1.2-17.5-3.5-4.8-2.4-8.4-6-10.9-10.9-2.5-4.9-3.7-11.1-3.7-18.5s1.2-13.8,3.7-18.7c2.5-4.8,6.1-8.4,10.9-10.8,4.8-2.4,10.6-3.5,17.5-3.5s12.9,1.2,17.7,3.5c4.8,2.4,8.4,6,10.9,10.8,2.5,4.8,3.7,11.1,3.7,18.7s-1.2,13.6-3.7,18.5c-2.5,4.9-6.1,8.6-10.9,10.9-4.8,2.4-10.7,3.5-17.7,3.5ZM665.4,607.1c3.7,0,6.6-.7,8.8-2,2.2-1.4,3.8-3.4,4.9-6.2,1-2.8,1.6-6.2,1.6-10.3v-2.9c0-4.1-.5-7.5-1.6-10.3-1-2.8-2.7-4.9-4.9-6.3-2.2-1.4-5.1-2.1-8.8-2.1s-6.5.7-8.7,2.1c-2.2,1.4-3.8,3.5-4.9,6.3-1,2.8-1.6,6.2-1.6,10.3v2.9c0,4.1.5,7.5,1.6,10.3,1,2.8,2.7,4.9,4.9,6.2,2.2,1.4,5.1,2,8.7,2Z"/>
        <path class="cls-1" d="M735.5,620.1c-4.4,0-8.4-.5-11.9-1.4-3.5-1-6.5-2.3-9-4-2.5-1.7-4.4-3.8-5.7-6.2-1.3-2.4-2-5.1-2-8.2v-1c0-.3,0-.6.1-.7h16.1v1c0,2,.7,3.6,1.9,4.9,1.2,1.2,2.8,2.1,4.7,2.7,2,.6,4,.8,6.2.8s3.8-.2,5.6-.5c1.8-.4,3.3-1,4.6-2,1.2-1,1.9-2.2,1.9-3.7s-.8-3.4-2.3-4.4c-1.6-1-3.6-1.9-6.1-2.5-2.5-.6-5.3-1.4-8.2-2.2-2.7-.6-5.4-1.4-8.2-2.2-2.7-.8-5.2-1.9-7.4-3.3-2.2-1.4-4-3.1-5.3-5.3-1.4-2.2-2-5-2-8.3s.7-6.1,2.2-8.6c1.4-2.4,3.4-4.5,5.9-6.1,2.5-1.6,5.5-2.8,8.9-3.5,3.4-.8,7.1-1.1,11-1.1s7.1.4,10.3,1.1c3.2.8,6,1.9,8.4,3.4,2.4,1.5,4.3,3.3,5.6,5.5,1.4,2.2,2,4.7,2,7.4v1.6c0,.5,0,.8-.1,1h-16v-1c0-1.4-.4-2.7-1.3-3.7-.9-1-2.1-1.8-3.8-2.3-1.6-.6-3.6-.8-5.9-.8s-3.1.1-4.4.4c-1.3.2-2.5.6-3.4,1.1s-1.7,1.1-2.2,1.7c-.5.7-.8,1.5-.8,2.5,0,1.4.6,2.5,1.7,3.3,1.2.8,2.7,1.5,4.6,2.1,1.9.6,4,1.2,6.4,1.8,2.9.8,5.9,1.6,9.1,2.3,3.2.8,6.1,1.8,8.8,3.1,2.7,1.3,4.9,3.1,6.6,5.5,1.7,2.4,2.5,5.5,2.5,9.5s-.7,7.1-2.2,9.7c-1.5,2.6-3.5,4.8-6.2,6.4-2.6,1.6-5.7,2.8-9.2,3.5-3.5.7-7.3,1.1-11.4,1.1Z"/>
      </g>
    </g>
    <g class="cls-2">
      <g class="cls-2">
        <path class="cls-1" d="M105.3,687.9c-4.2,0-7.8-.8-10.7-2.3-2.9-1.6-5.1-3.9-6.6-7.1-1.5-3.2-2.2-7.1-2.2-11.9,0-7.1,1.7-12.5,5.2-16,3.4-3.5,8.3-5.3,14.5-5.3s6.7.6,9.4,1.7,4.8,2.8,6.4,5.1c1.5,2.3,2.3,5.1,2.3,8.6h-4.8c0-2.6-.5-4.7-1.6-6.4s-2.6-2.9-4.6-3.7c-2-.8-4.4-1.2-7.1-1.2s-5.5.6-7.7,1.7c-2.2,1.2-3.9,3-5.1,5.4s-1.8,5.7-1.8,9.6v1.3c0,3.9.6,7,1.8,9.4,1.2,2.4,2.9,4.2,5.1,5.3,2.2,1.1,4.8,1.7,7.8,1.7s5.1-.4,7.1-1.2c2-.8,3.5-2.1,4.6-3.7s1.6-3.8,1.6-6.4h4.7c0,3.5-.8,6.4-2.4,8.7-1.6,2.3-3.7,4-6.4,5.1-2.7,1.1-5.8,1.6-9.4,1.6Z"/>
        <path class="cls-1" d="M143.1,687.9c-3,0-5.6-.6-7.8-1.8-2.1-1.2-3.8-3-4.9-5.4-1.1-2.4-1.6-5.5-1.6-9.3s.5-6.9,1.6-9.3c1.1-2.4,2.7-4.2,4.9-5.4,2.1-1.2,4.7-1.8,7.8-1.8s5.7.6,7.8,1.8c2.1,1.2,3.7,3,4.8,5.4,1.1,2.4,1.6,5.5,1.6,9.3s-.6,6.9-1.6,9.3c-1.1,2.4-2.7,4.3-4.8,5.4-2.1,1.2-4.7,1.8-7.8,1.8ZM143.1,684.2c2.1,0,3.9-.4,5.3-1.3s2.5-2.1,3.3-3.9c.8-1.8,1.1-4.1,1.1-6.9v-1.4c0-2.8-.4-5.1-1.1-6.9-.8-1.8-1.9-3.1-3.3-3.9-1.4-.8-3.2-1.3-5.3-1.3s-3.9.4-5.3,1.3c-1.4.8-2.5,2.2-3.3,3.9-.8,1.8-1.1,4.1-1.1,6.9v1.4c0,2.8.4,5.2,1.1,6.9.8,1.8,1.9,3.1,3.3,3.9s3.2,1.3,5.3,1.3Z"/>
        <path class="cls-1" d="M164,687.1v-31.6h3.4l.4,5h.4c.9-1.4,1.9-2.6,3-3.4,1.1-.8,2.3-1.4,3.6-1.8,1.3-.4,2.7-.5,4.2-.5s3.8.3,5.2,1,2.7,1.7,3.5,3.2c.8,1.5,1.3,3.5,1.3,6.1v22h-4.3v-21.6c0-1.4-.2-2.5-.5-3.4s-.9-1.6-1.5-2.1c-.6-.5-1.4-.8-2.2-1-.9-.2-1.8-.3-2.9-.3-1.6,0-3.1.4-4.5,1.2-1.4.8-2.6,1.9-3.5,3.3-.9,1.4-1.3,3.2-1.3,5.3v18.7h-4.3Z"/>
        <path class="cls-1" d="M209.4,687.9c-3,0-5.5-.6-7.6-1.8-2.1-1.2-3.7-3-4.7-5.4-1.1-2.4-1.6-5.5-1.6-9.3s.5-6.9,1.6-9.3c1.1-2.4,2.7-4.2,4.8-5.4,2.1-1.2,4.8-1.8,7.9-1.8s5.4.6,7.3,1.7c2,1.2,3.5,2.8,4.5,5,1,2.2,1.5,4.9,1.5,8.1v2.8h-23.2c0,2.8.4,5,1.1,6.8.8,1.8,1.8,3,3.3,3.8,1.4.8,3.2,1.2,5.2,1.2s2.9-.2,4-.6c1.1-.4,2.1-.9,2.8-1.6.7-.7,1.3-1.5,1.7-2.5.4-1,.6-2,.6-3h4.2c0,1.6-.3,3-.9,4.4-.6,1.4-1.4,2.6-2.5,3.6-1.1,1-2.5,1.9-4.2,2.4-1.7.6-3.7.9-5.9.9ZM199.9,669.1h18.7c0-2-.2-3.7-.7-5-.5-1.3-1.1-2.4-1.9-3.2-.8-.8-1.8-1.4-2.9-1.8-1.1-.4-2.3-.5-3.7-.5-2,0-3.6.4-5,1.1-1.4.7-2.5,1.9-3.2,3.5-.7,1.6-1.2,3.6-1.4,6Z"/>
        <path class="cls-1" d="M241.2,687.9c-2.9,0-5.4-.6-7.4-1.8-2-1.2-3.6-3-4.6-5.5-1-2.4-1.6-5.5-1.6-9.2s.5-6.7,1.6-9.2c1-2.4,2.6-4.3,4.6-5.5,2.1-1.2,4.6-1.8,7.6-1.8s4.1.3,5.6.9c1.5.6,2.8,1.4,3.8,2.5,1,1.1,1.7,2.4,2.1,3.9.4,1.5.7,3.2.7,5.1h-4.3c0-2-.3-3.7-.8-5s-1.4-2.2-2.6-2.8c-1.2-.6-2.7-.9-4.7-.9s-3.4.4-4.8,1.2c-1.4.8-2.5,2.1-3.2,3.8-.8,1.7-1.2,4.1-1.2,7.1v1.4c0,2.8.4,5.2,1.1,6.9.7,1.8,1.8,3.1,3.1,3.9,1.4.8,3,1.3,4.9,1.3s3.6-.3,4.8-1c1.2-.7,2-1.7,2.6-3,.5-1.3.8-2.8.8-4.6h4.2c0,1.7-.2,3.3-.7,4.8-.4,1.5-1.2,2.8-2.1,3.9-1,1.1-2.3,2-3.8,2.7-1.6.7-3.5,1-5.8,1Z"/>
        <path class="cls-1" d="M266.9,687.8c-1.4,0-2.6-.3-3.5-.8-.9-.5-1.5-1.2-1.8-2.2-.3-.9-.5-1.9-.5-3.1v-22.6h-4.3v-3.7h4.3l.8-8.8h3.5v8.8h6.1v3.7h-6.1v21.8c0,1.1.1,1.9.4,2.4.3.5,1,.8,2,.8h3.6v2.8c-.4.2-.9.3-1.4.4s-1.1.2-1.6.3c-.6,0-1.1,0-1.6,0Z"/>
        <path class="cls-1" d="M285.2,687.9c-1.2,0-2.5-.1-3.7-.5-1.2-.3-2.3-.8-3.2-1.4-.9-.7-1.7-1.5-2.2-2.7-.6-1.1-.8-2.5-.8-4.1s.5-3.9,1.6-5.3c1.1-1.4,2.6-2.5,4.5-3.2,1.9-.8,4.2-1.3,6.8-1.6,2.6-.3,5.5-.4,8.5-.4v-4c0-1.3-.2-2.4-.7-3.3-.5-.9-1.3-1.6-2.4-2.1-1.1-.5-2.8-.8-4.8-.8s-3.6.3-4.7.8c-1.2.5-2,1.2-2.4,2-.5.8-.7,1.7-.7,2.7v1h-4.1c0-.2,0-.4,0-.6v-.7c0-2,.5-3.6,1.6-4.9,1-1.3,2.5-2.2,4.4-2.9,1.9-.6,4.1-1,6.6-1s4.6.4,6.4,1.1c1.7.7,3,1.8,4,3.2.9,1.4,1.4,3,1.4,4.9v18.1c0,.8.2,1.3.5,1.6.3.3.7.4,1.2.4h2.5v2.8c-.6.2-1.2.4-1.9.6-.7.2-1.4.2-2.1.2-1,0-1.9-.2-2.5-.7-.6-.4-1.1-1.1-1.3-1.9-.3-.8-.4-1.7-.5-2.6h-.4c-.8,1.1-1.7,2-2.9,2.8-1.2.8-2.5,1.4-3.9,1.8-1.4.4-2.9.6-4.5.6ZM286.1,684.2c1.3,0,2.6-.2,3.8-.7,1.2-.4,2.4-1.1,3.4-1.8,1-.8,1.8-1.7,2.4-2.8.6-1.1.9-2.3.9-3.6v-3.2c-3.7,0-6.8.2-9.3.6-2.5.4-4.4,1.1-5.6,2.1-1.3,1-1.9,2.4-1.9,4.2s.3,2.2.8,3c.5.8,1.3,1.4,2.2,1.7,1,.4,2,.5,3.2.5Z"/>
        <path class="cls-1" d="M310.9,687.1v-5.6h5v5.6h-5Z"/>
        <path class="cls-1" d="M334.7,687.1l16.4-41.2h6.4l16.4,41.2h-5.1l-4.3-10.9h-20.6l-4.3,10.9h-4.9ZM345.5,672.2h17.4l-5.4-13.7c-.1-.3-.3-.8-.5-1.4-.2-.6-.5-1.4-.8-2.2-.3-.8-.6-1.7-.9-2.5-.3-.8-.6-1.6-.9-2.3h-.4c-.2.8-.6,1.7-.9,2.7-.4,1-.8,2.1-1.1,3.1-.4,1-.7,1.9-1,2.6l-5.4,13.7Z"/>
        <path class="cls-1" d="M384,698.1c-1.5,0-2.9-.3-4.2-1-1.3-.7-2.3-1.6-3.1-2.8-.8-1.2-1.1-2.5-1.1-4.1s.5-3.3,1.4-4.5c.9-1.2,2.1-2.2,3.6-2.8-1-.4-1.8-1.1-2.4-2-.6-.9-.8-1.8-.8-2.9s.5-2.5,1.5-3.5c1-1,2.2-1.6,3.7-1.9-1.3-.9-2.4-2-3.1-3.4-.8-1.4-1.2-2.8-1.2-4.4s.5-3.7,1.4-5.2c.9-1.5,2.3-2.7,4.2-3.5,1.9-.9,4.2-1.3,7-1.3s2.6.1,3.7.3c1.1.2,2.2.5,3.1.9,1.4-.5,2.5-1.3,3.2-2.2.8-1,1.3-2.1,1.5-3.3h4.3c0,1.1-.3,2.2-.8,3.2-.5,1-1.2,1.9-2.2,2.6-.9.7-2,1.2-3.3,1.4,1,1,1.8,2,2.3,3.2.5,1.2.7,2.5.7,3.8s-.4,3.6-1.3,5.1c-.9,1.5-2.3,2.7-4.1,3.6-1.8.9-4.2,1.3-7,1.3h-5c-1.2,0-2.2.2-2.9.7-.8.5-1.1,1.2-1.1,2.3s.4,1.6,1.2,2.2c.8.5,1.8.8,3,.8h12.4c2.3,0,4.2.8,5.7,2.3,1.5,1.6,2.2,3.5,2.2,5.9s-.4,3.2-1.3,4.6-2,2.5-3.5,3.3c-1.5.8-3.2,1.2-5.1,1.2h-12.3ZM384.9,694.6h11.2c1,0,2-.2,2.8-.7.8-.4,1.5-1,2-1.8.5-.8.8-1.6.8-2.5,0-1.5-.4-2.7-1.3-3.7-.9-.9-2-1.4-3.3-1.4h-12.2c-1.4,0-2.5.5-3.5,1.5-1,1-1.5,2.2-1.5,3.6s.5,2.7,1.5,3.6c1,.9,2.2,1.3,3.6,1.3ZM390.6,671.4c2.8,0,4.9-.6,6.2-1.8,1.3-1.2,2-2.8,2-4.8s-.7-3.7-2-4.8c-1.3-1.2-3.4-1.8-6.2-1.8s-4.8.6-6.1,1.8c-1.4,1.2-2,2.8-2,4.8s.3,2.4.9,3.4c.6,1,1.5,1.8,2.7,2.3,1.2.6,2.7.8,4.5.8Z"/>
        <path class="cls-1" d="M423.2,687.9c-3,0-5.5-.6-7.6-1.8-2.1-1.2-3.7-3-4.7-5.4-1.1-2.4-1.6-5.5-1.6-9.3s.5-6.9,1.6-9.3c1.1-2.4,2.7-4.2,4.8-5.4,2.1-1.2,4.8-1.8,7.9-1.8s5.4.6,7.3,1.7c2,1.2,3.5,2.8,4.5,5,1,2.2,1.5,4.9,1.5,8.1v2.8h-23.2c0,2.8.4,5,1.1,6.8.8,1.8,1.8,3,3.3,3.8,1.4.8,3.2,1.2,5.2,1.2s2.9-.2,4-.6c1.1-.4,2.1-.9,2.8-1.6.7-.7,1.3-1.5,1.7-2.5.4-1,.6-2,.6-3h4.2c0,1.6-.3,3-.9,4.4-.6,1.4-1.4,2.6-2.5,3.6-1.1,1-2.5,1.9-4.2,2.4-1.7.6-3.7.9-5.9.9ZM413.7,669.1h18.7c0-2-.2-3.7-.7-5-.5-1.3-1.1-2.4-1.9-3.2-.8-.8-1.8-1.4-2.9-1.8-1.1-.4-2.3-.5-3.7-.5-2,0-3.6.4-5,1.1-1.4.7-2.5,1.9-3.2,3.5-.7,1.6-1.2,3.6-1.4,6Z"/>
        <path class="cls-1" d="M443.4,687.1v-31.6h3.4l.4,5h.4c.9-1.4,1.9-2.6,3-3.4,1.1-.8,2.3-1.4,3.6-1.8,1.3-.4,2.7-.5,4.2-.5s3.8.3,5.2,1,2.7,1.7,3.5,3.2c.8,1.5,1.3,3.5,1.3,6.1v22h-4.3v-21.6c0-1.4-.2-2.5-.5-3.4-.4-.9-.9-1.6-1.5-2.1s-1.4-.8-2.2-1-1.8-.3-2.8-.3c-1.6,0-3.1.4-4.5,1.2-1.4.8-2.6,1.9-3.5,3.3-.9,1.4-1.3,3.2-1.3,5.3v18.7h-4.3Z"/>
        <path class="cls-1" d="M487.3,687.9c-2.6,0-4.8-.6-6.7-1.7-1.9-1.2-3.3-3-4.3-5.4-1-2.5-1.5-5.7-1.5-9.6s.5-6.8,1.5-9.2c1-2.4,2.4-4.1,4.3-5.3,1.9-1.2,4.1-1.7,6.6-1.7s2.6.2,3.8.5,2.3.8,3.2,1.5,1.8,1.6,2.5,2.8h.4v-15.9h4.3v43.4h-3.4l-.5-4.6h-.4c-1.1,1.8-2.5,3.1-4.3,4-1.7.9-3.6,1.3-5.6,1.3ZM488,684.1c2.2,0,3.9-.5,5.2-1.4,1.3-1,2.3-2.3,2.9-4.1.6-1.8.9-4,.9-6.6v-1.1c0-2.5-.2-4.5-.8-6.1-.5-1.6-1.2-2.8-2-3.7-.9-.9-1.8-1.5-2.8-1.8-1-.3-2.1-.5-3.2-.5-2,0-3.7.4-5,1.2-1.3.8-2.3,2.1-3,3.9-.7,1.8-1,4.1-1,6.9v1.5c0,3,.4,5.3,1.1,7,.7,1.7,1.7,3,3,3.8,1.3.8,2.8,1.1,4.6,1.1Z"/>
        <path class="cls-1" d="M517.8,687.9c-1.2,0-2.5-.1-3.7-.5-1.2-.3-2.3-.8-3.2-1.4-.9-.7-1.7-1.5-2.2-2.7-.6-1.1-.8-2.5-.8-4.1s.5-3.9,1.6-5.3,2.6-2.5,4.5-3.2c1.9-.8,4.2-1.3,6.8-1.6,2.6-.3,5.5-.4,8.5-.4v-4c0-1.3-.2-2.4-.7-3.3-.5-.9-1.3-1.6-2.4-2.1s-2.8-.8-4.8-.8-3.6.3-4.7.8c-1.2.5-2,1.2-2.4,2-.5.8-.7,1.7-.7,2.7v1h-4.1c0-.2,0-.4,0-.6v-.7c0-2,.5-3.6,1.6-4.9,1-1.3,2.5-2.2,4.4-2.9,1.9-.6,4.1-1,6.6-1s4.6.4,6.4,1.1c1.7.7,3,1.8,4,3.2.9,1.4,1.4,3,1.4,4.9v18.1c0,.8.2,1.3.5,1.6.3.3.7.4,1.2.4h2.5v2.8c-.6.2-1.2.4-1.9.6-.7.2-1.3.2-2.1.2-1,0-1.9-.2-2.5-.7-.6-.4-1.1-1.1-1.3-1.9-.3-.8-.4-1.7-.5-2.6h-.4c-.8,1.1-1.7,2-2.9,2.8-1.2.8-2.5,1.4-3.9,1.8-1.4.4-2.9.6-4.5.6ZM518.7,684.2c1.3,0,2.6-.2,3.8-.7,1.2-.4,2.4-1.1,3.4-1.8,1-.8,1.8-1.7,2.4-2.8.6-1.1.9-2.3.9-3.6v-3.2c-3.7,0-6.8.2-9.3.6-2.5.4-4.4,1.1-5.6,2.1-1.3,1-1.9,2.4-1.9,4.2s.3,2.2.8,3c.5.8,1.3,1.4,2.2,1.7,1,.4,2,.5,3.2.5Z"/>
        <path class="cls-1" d="M543.5,687.1v-5.6h5v5.6h-5Z"/>
      </g>
      <g class="cls-2">
        <path class="cls-1" d="M572.3,687.1v-41.2h21.6c2.7,0,5,.5,6.8,1.5,1.8,1,3.1,2.4,4,4.2.9,1.8,1.3,3.8,1.3,6s-.7,5.4-2,7.4c-1.3,2-3.1,3.5-5.3,4.3l8.8,17.8h-5.2l-8.2-16.9h-17v16.9h-4.7ZM577.1,666.1h16.4c2.4,0,4.4-.8,5.8-2.2,1.4-1.5,2.1-3.6,2.1-6.2s-.3-3-.9-4.1c-.6-1.1-1.5-2-2.6-2.6-1.2-.6-2.6-.9-4.3-.9h-16.4v16.1Z"/>
      </g>
      <g class="cls-2">
        <path class="cls-1" d="M626.6,687.9c-3,0-5.5-.6-7.6-1.8-2.1-1.2-3.7-3-4.7-5.4-1.1-2.4-1.6-5.5-1.6-9.3s.5-6.9,1.6-9.3c1.1-2.4,2.7-4.2,4.8-5.4,2.1-1.2,4.8-1.8,7.9-1.8s5.4.6,7.3,1.7c2,1.2,3.5,2.8,4.5,5,1,2.2,1.5,4.9,1.5,8.1v2.8h-23.2c0,2.8.4,5,1.1,6.8.8,1.8,1.8,3,3.3,3.8,1.4.8,3.2,1.2,5.2,1.2s2.8-.2,4-.6c1.1-.4,2.1-.9,2.8-1.6.7-.7,1.3-1.5,1.7-2.5.4-1,.6-2,.6-3h4.2c0,1.6-.3,3-.9,4.4s-1.4,2.6-2.5,3.6c-1.1,1-2.5,1.9-4.2,2.4-1.7.6-3.7.9-5.9.9ZM617.1,669.1h18.7c0-2-.2-3.7-.7-5-.5-1.3-1.1-2.4-1.9-3.2-.8-.8-1.8-1.4-2.8-1.8-1.1-.4-2.3-.5-3.7-.5-2,0-3.6.4-5,1.1s-2.5,1.9-3.2,3.5c-.7,1.6-1.2,3.6-1.3,6Z"/>
        <path class="cls-1" d="M657.3,687.9c-2.1,0-3.9-.2-5.5-.6-1.6-.4-2.9-1-4-1.9-1.1-.8-1.9-1.8-2.4-3-.5-1.2-.8-2.5-.8-4v-.5c0-.2,0-.4,0-.5h4.3c0,.2,0,.4,0,.5v.4c0,1.6.4,2.8,1.1,3.6.7.9,1.7,1.5,3.1,1.8,1.3.4,2.8.5,4.6.5s2.8-.2,4-.6c1.2-.4,2.1-1,2.8-1.8.7-.8,1-1.8,1-2.9s-.5-2.6-1.4-3.4c-.9-.8-2.1-1.4-3.5-1.8-1.4-.4-2.9-.9-4.5-1.3-1.3-.4-2.5-.8-3.8-1.2-1.2-.4-2.4-1-3.4-1.6-1-.6-1.8-1.5-2.4-2.5-.6-1-.9-2.3-.9-3.8s.3-2.5.8-3.5,1.3-1.9,2.3-2.7c1-.7,2.3-1.3,3.8-1.7,1.5-.4,3.2-.6,5-.6s3.9.2,5.3.7c1.5.5,2.7,1.1,3.6,1.9.9.8,1.6,1.7,2,2.8.4,1,.7,2.1.7,3.2s0,.3,0,.5,0,.4,0,.5h-4.3v-.8c0-.8-.2-1.7-.6-2.5-.4-.8-1.2-1.5-2.2-2-1.1-.6-2.6-.8-4.7-.8s-2.3.1-3.2.3-1.7.5-2.3.9c-.6.4-1.1.9-1.4,1.5-.3.6-.5,1.3-.5,2,0,1.2.4,2.1,1.1,2.7.7.6,1.7,1.1,2.9,1.5s2.5.8,3.8,1.2c1.4.4,2.8.8,4.2,1.3,1.4.4,2.7,1,3.9,1.6,1.2.6,2.2,1.5,2.9,2.5.7,1.1,1.1,2.5,1.1,4.2s-.3,3-1,4.2c-.6,1.2-1.5,2.2-2.6,3-1.1.8-2.5,1.4-4,1.8s-3.2.6-5,.6Z"/>
        <path class="cls-1" d="M686.3,687.9c-3,0-5.4-.8-7.3-2.3-1.8-1.5-2.8-4.2-2.8-8v-22h4.3v21.6c0,1.4.2,2.5.5,3.4.4.9.9,1.6,1.5,2.1.6.5,1.4.8,2.2,1,.9.2,1.8.3,2.8.3,1.6,0,3.1-.4,4.5-1.2,1.4-.8,2.6-1.9,3.4-3.4.9-1.5,1.3-3.2,1.3-5.2v-18.7h4.3v31.6h-3.4l-.5-5h-.4c-.9,1.4-1.9,2.6-3,3.4-1.1.8-2.3,1.4-3.6,1.8-1.3.4-2.7.5-4.2.5Z"/>
        <path class="cls-1" d="M721.9,687.9c-3,0-5.5-.6-7.6-1.8-2.1-1.2-3.7-3-4.7-5.4-1.1-2.4-1.6-5.5-1.6-9.3s.5-6.9,1.6-9.3c1.1-2.4,2.7-4.2,4.8-5.4s4.8-1.8,7.9-1.8,5.4.6,7.3,1.7c2,1.2,3.5,2.8,4.5,5,1,2.2,1.5,4.9,1.5,8.1v2.8h-23.2c0,2.8.4,5,1.1,6.8.8,1.8,1.8,3,3.3,3.8s3.2,1.2,5.2,1.2,2.9-.2,4-.6c1.1-.4,2.1-.9,2.8-1.6.7-.7,1.3-1.5,1.7-2.5.4-1,.6-2,.6-3h4.2c0,1.6-.3,3-.9,4.4-.6,1.4-1.4,2.6-2.5,3.6-1.1,1-2.5,1.9-4.2,2.4-1.7.6-3.7.9-5.9.9ZM712.4,669.1h18.7c0-2-.2-3.7-.7-5-.5-1.3-1.1-2.4-1.9-3.2-.8-.8-1.8-1.4-2.9-1.8-1.1-.4-2.3-.5-3.7-.5-2,0-3.6.4-5,1.1-1.4.7-2.5,1.9-3.2,3.5-.7,1.6-1.2,3.6-1.4,6Z"/>
        <path class="cls-1" d="M742.2,687.1v-43.4h4.3v43.4h-4.3Z"/>
      </g>
      <g class="cls-2">
        <path class="cls-1" d="M763.4,687.1l-11.7-31.6h4.6l6.1,16.5c.3.8.6,1.8,1,2.9.4,1.1.8,2.3,1.1,3.5.4,1.2.7,2.2,1,3.1h.3c.3-.9.6-1.9,1-3,.4-1.1.8-2.3,1.2-3.5.4-1.2.7-2.1,1-2.9l6-16.5h4.4l-11.7,31.6h-4.2Z"/>
      </g>
      <g class="cls-2">
        <path class="cls-1" d="M796.3,687.9c-3,0-5.5-.6-7.6-1.8-2.1-1.2-3.7-3-4.7-5.4-1.1-2.4-1.6-5.5-1.6-9.3s.5-6.9,1.6-9.3c1.1-2.4,2.7-4.2,4.8-5.4,2.1-1.2,4.8-1.8,7.9-1.8s5.4.6,7.3,1.7c2,1.2,3.5,2.8,4.5,5,1,2.2,1.5,4.9,1.5,8.1v2.8h-23.2c0,2.8.4,5,1.1,6.8.8,1.8,1.8,3,3.3,3.8,1.4.8,3.2,1.2,5.2,1.2s2.8-.2,4-.6c1.1-.4,2.1-.9,2.8-1.6.7-.7,1.3-1.5,1.7-2.5.4-1,.6-2,.6-3h4.2c0,1.6-.3,3-.9,4.4s-1.4,2.6-2.5,3.6c-1.1,1-2.5,1.9-4.2,2.4-1.7.6-3.7.9-5.9.9ZM786.8,669.1h18.7c0-2-.2-3.7-.7-5-.5-1.3-1.1-2.4-1.9-3.2-.8-.8-1.8-1.4-2.9-1.8s-2.3-.5-3.7-.5c-2,0-3.6.4-5,1.1-1.4.7-2.5,1.9-3.2,3.5-.7,1.6-1.2,3.6-1.3,6Z"/>
      </g>
    </g>
  </g>
</svg>