<?xml version="1.0" encoding="UTF-8"?><svg id="Capa_2" xmlns="http://www.w3.org/2000/svg" xmlns:xlink="http://www.w3.org/1999/xlink" viewBox="0 0 810.63 802.99"><defs><style>.cls-1{fill:#b0d9ff;}.cls-1,.cls-2,.cls-3{stroke-width:0px;}.cls-4{clip-path:url(#clippath);}.cls-2{fill:none;}.cls-3{fill:#006bcf;}.cls-5{clip-path:url(#clippath-1);}</style><clipPath id="clippath"><rect class="cls-2" y=".23" width="802.76" height="802.76" rx="37.33" ry="37.33"/></clipPath><clipPath id="clippath-1"><rect class="cls-2" x="1.94" width="808.69" height="802.47"/></clipPath></defs><g id="Capa_1-2"><rect class="cls-3" x="2.12" y=".23" width="802.76" height="802.76" rx="37.33" ry="37.33"/><g class="cls-4"><g class="cls-5"><g id="_Repetición_de_cuadrícula_"><path class="cls-1" d="M-39,37.56c6.15-2.49,10.81-7.1,13.49-12.65,1.68-3.47.05-7.65-3.49-9.17h0c-3.36-1.45-7.33-.07-8.93,3.21-1.36,2.79-3.8,5.06-7.03,6.12-5.59,1.82-11.76-.79-14.35-6.06-3.08-6.27-.14-13.74,6.22-16.31,3.74-1.51,6.84-.71,10.96,1.07,1.35.58,22.75,9.53,22.75,9.53,1.53.66,2.24,2.44,1.58,3.98h0c-.3.69-.82,1.22-1.45,1.52-.49.24-.49.96,0,1.21,6.42,3.3,14.18,3.9,21.38.99C15.27,15.68,21.63.68,16.32-12.46,11.01-25.59-3.99-31.95-17.13-26.64c-6.16,2.49-10.83,7.12-13.51,12.69-1.66,3.46-.03,7.6,3.5,9.1l.25.11c3.33,1.41,7.12-.1,8.71-3.34,1.37-2.78,3.81-5.03,7.03-6.08,5.58-1.8,11.74.8,14.33,6.07,3.08,6.27.14,13.74-6.22,16.32-3.64,1.47-6.76.8-10.69-.9-4.19-1.8-23.95-10.07-23.95-10.07-1.54-.65-2.26-2.43-1.6-3.97h0c.3-.7.83-1.23,1.46-1.54.55-.27.56-1.03.01-1.29-6.23-2.9-13.6-3.31-20.46-.54-13.13,5.31-19.5,20.32-14.19,33.45,5.31,13.13,20.32,19.5,33.45,14.19Z"/></g><g id="_Repetición_de_cuadrícula_-2"><path class="cls-1" d="M167.86,37.56c6.15-2.49,10.81-7.1,13.49-12.65,1.68-3.47.05-7.65-3.49-9.17h0c-3.36-1.45-7.33-.07-8.93,3.21-1.36,2.79-3.8,5.06-7.03,6.12-5.59,1.82-11.76-.79-14.35-6.06-3.08-6.27-.14-13.74,6.22-16.31,3.74-1.51,6.84-.71,10.96,1.07,1.35.58,22.75,9.53,22.75,9.53,1.53.66,2.24,2.44,1.58,3.98h0c-.3.69-.82,1.22-1.45,1.52-.49.24-.49.96,0,1.21,6.42,3.3,14.18,3.9,21.38.99,13.13-5.31,19.5-20.32,14.19-33.45-5.31-13.13-20.32-19.5-33.45-14.19-6.16,2.49-10.83,7.12-13.51,12.69-1.66,3.46-.03,7.6,3.5,9.1l.25.11c3.33,1.41,7.12-.1,8.71-3.34,1.37-2.78,3.81-5.03,7.03-6.08,5.58-1.8,11.74.8,14.33,6.07,3.08,6.27.14,13.74-6.22,16.32-3.64,1.47-6.76.8-10.69-.9-4.19-1.8-23.95-10.07-23.95-10.07-1.54-.65-2.26-2.43-1.6-3.97h0c.3-.7.83-1.23,1.46-1.54.55-.27.56-1.03.01-1.29-6.23-2.9-13.6-3.31-20.46-.54-13.13,5.31-19.5,20.32-14.19,33.45,5.31,13.13,20.32,19.5,33.45,14.19Z"/></g><g id="_Repetición_de_cuadrícula_-3"><path class="cls-1" d="M374.71,37.56c6.15-2.49,10.81-7.1,13.49-12.65,1.68-3.47.05-7.65-3.49-9.17h0c-3.36-1.45-7.33-.07-8.93,3.21-1.36,2.79-3.8,5.06-7.03,6.12-5.59,1.82-11.76-.79-14.35-6.06-3.08-6.27-.14-13.74,6.22-16.31,3.74-1.51,6.84-.71,10.96,1.07,1.35.58,22.75,9.53,22.75,9.53,1.53.66,2.24,2.44,1.58,3.98h0c-.3.69-.82,1.22-1.45,1.52-.49.24-.49.96,0,1.21,6.42,3.3,14.18,3.9,21.38.99,13.13-5.31,19.5-20.32,14.19-33.45-5.31-13.13-20.32-19.5-33.45-14.19-6.16,2.49-10.83,7.12-13.51,12.69-1.66,3.46-.03,7.6,3.5,9.1l.25.11c3.33,1.41,7.12-.1,8.71-3.34,1.37-2.78,3.81-5.03,7.03-6.08,5.58-1.8,11.74.8,14.33,6.07,3.08,6.27.14,13.74-6.22,16.32-3.64,1.47-6.76.8-10.69-.9-4.19-1.8-23.95-10.07-23.95-10.07-1.54-.65-2.26-2.43-1.6-3.97h0c.3-.7.83-1.23,1.46-1.54.55-.27.56-1.03.01-1.29-6.23-2.9-13.6-3.31-20.46-.54-13.13,5.31-19.5,20.32-14.19,33.45,5.31,13.13,20.32,19.5,33.45,14.19Z"/></g><g id="_Repetición_de_cuadrícula_-4"><path class="cls-1" d="M581.56,37.56c6.15-2.49,10.81-7.1,13.49-12.65,1.68-3.47.05-7.65-3.49-9.17h0c-3.36-1.45-7.33-.07-8.93,3.21-1.36,2.79-3.8,5.06-7.03,6.12-5.59,1.82-11.76-.79-14.35-6.06-3.08-6.27-.14-13.74,6.22-16.31,3.74-1.51,6.84-.71,10.96,1.07,1.35.58,22.75,9.53,22.75,9.53,1.53.66,2.24,2.44,1.58,3.98h0c-.3.69-.82,1.22-1.45,1.52-.49.24-.49.96,0,1.21,6.42,3.3,14.18,3.9,21.38.99,13.13-5.31,19.5-20.32,14.19-33.45-5.31-13.13-20.32-19.5-33.45-14.19-6.16,2.49-10.83,7.12-13.51,12.69-1.66,3.46-.03,7.6,3.5,9.1l.25.11c3.33,1.41,7.12-.1,8.71-3.34,1.37-2.78,3.81-5.03,7.03-6.08,5.58-1.8,11.74.8,14.33,6.07,3.08,6.27.14,13.74-6.22,16.32-3.64,1.47-6.76.8-10.69-.9-4.19-1.8-23.95-10.07-23.95-10.07-1.54-.65-2.26-2.43-1.6-3.97h0c.3-.7.83-1.23,1.46-1.54.55-.27.56-1.03.01-1.29-6.23-2.9-13.6-3.31-20.46-.54-13.13,5.31-19.5,20.32-14.19,33.45,5.31,13.13,20.32,19.5,33.45,14.19Z"/></g><g id="_Repetición_de_cuadrícula_-5"><path class="cls-1" d="M788.42,37.56c6.15-2.49,10.81-7.1,13.49-12.65,1.68-3.47.05-7.65-3.49-9.17h0c-3.36-1.45-7.33-.07-8.93,3.21-1.36,2.79-3.8,5.06-7.03,6.12-5.59,1.82-11.76-.79-14.35-6.06-3.08-6.27-.14-13.74,6.22-16.31,3.74-1.51,6.84-.71,10.96,1.07,1.35.58,22.75,9.53,22.75,9.53,1.53.66,2.24,2.44,1.58,3.98h0c-.3.69-.82,1.22-1.45,1.52-.49.24-.49.96,0,1.21,6.42,3.3,14.18,3.9,21.38.99,13.13-5.31,19.5-20.32,14.19-33.45-5.31-13.13-20.32-19.5-33.45-14.19-6.16,2.49-10.83,7.12-13.51,12.69-1.66,3.46-.03,7.6,3.5,9.1l.25.11c3.33,1.41,7.12-.1,8.71-3.34,1.37-2.78,3.81-5.03,7.03-6.08,5.58-1.8,11.74.8,14.33,6.07,3.08,6.27.14,13.74-6.22,16.32-3.64,1.47-6.76.8-10.69-.9-4.19-1.8-23.95-10.07-23.95-10.07-1.54-.65-2.26-2.43-1.6-3.97h0c.3-.7.83-1.23,1.46-1.54.55-.27.56-1.03.01-1.29-6.23-2.9-13.6-3.31-20.46-.54-13.13,5.31-19.5,20.32-14.19,33.45,5.31,13.13,20.32,19.5,33.45,14.19Z"/></g><g id="_Repetición_de_cuadrícula_-6"><path class="cls-1" d="M-39,161.76c6.15-2.49,10.81-7.1,13.49-12.65,1.68-3.47.05-7.65-3.49-9.17h0c-3.36-1.45-7.33-.07-8.93,3.21-1.36,2.79-3.8,5.06-7.03,6.12-5.59,1.82-11.76-.79-14.35-6.06-3.08-6.27-.14-13.74,6.22-16.31,3.74-1.51,6.84-.71,10.96,1.07,1.35.58,22.75,9.53,22.75,9.53,1.53.66,2.24,2.44,1.58,3.98h0c-.3.69-.82,1.22-1.45,1.52-.49.24-.49.96,0,1.21,6.42,3.3,14.18,3.9,21.38.99,13.13-5.31,19.5-20.32,14.19-33.45-5.31-13.13-20.32-19.5-33.45-14.19-6.16,2.49-10.83,7.12-13.51,12.69-1.66,3.46-.03,7.6,3.5,9.1l.25.11c3.33,1.41,7.12-.1,8.71-3.34,1.37-2.78,3.81-5.03,7.03-6.08,5.58-1.8,11.74.8,14.33,6.07,3.08,6.27.14,13.74-6.22,16.32-3.64,1.47-6.76.8-10.69-.9-4.19-1.8-23.95-10.07-23.95-10.07-1.54-.65-2.26-2.43-1.6-3.97h0c.3-.7.83-1.23,1.46-1.54.55-.27.56-1.03.01-1.29-6.23-2.9-13.6-3.31-20.46-.54-13.13,5.31-19.5,20.32-14.19,33.45,5.31,13.13,20.32,19.5,33.45,14.19Z"/></g><g id="_Repetición_de_cuadrícula_-7"><circle class="cls-1" cx="80.22" cy="19.49" r="12.48"/><circle class="cls-1" cx="40.29" cy="35.38" r="12.48"/><path class="cls-1" d="M64.43,99.66c6.15-2.49,10.81-7.1,13.49-12.65,1.68-3.47.05-7.65-3.49-9.17h0c-3.36-1.45-7.33-.07-8.93,3.21-1.36,2.79-3.8,5.06-7.03,6.12-5.59,1.82-11.76-.79-14.35-6.06-3.08-6.27-.14-13.74,6.22-16.31,3.74-1.51,6.84-.71,10.96,1.07,1.35.58,22.75,9.53,22.75,9.53,1.53.66,2.24,2.44,1.58,3.98h0c-.3.69-.82,1.22-1.45,1.52-.49.24-.49.96,0,1.21,6.42,3.3,14.18,3.9,21.38.99,13.13-5.31,19.5-20.32,14.19-33.45-5.31-13.13-20.32-19.5-33.45-14.19-6.16,2.49-10.83,7.12-13.51,12.69-1.66,3.46-.03,7.6,3.5,9.1l.25.11c3.33,1.41,7.12-.1,8.71-3.34,1.37-2.78,3.81-5.03,7.03-6.08,5.58-1.8,11.74.8,14.33,6.07,3.08,6.27.14,13.74-6.22,16.32-3.64,1.47-6.76.8-10.69-.9-4.19-1.8-23.95-10.07-23.95-10.07-1.54-.65-2.26-2.43-1.6-3.97h0c.3-.7.83-1.23,1.46-1.54.55-.27.56-1.03.01-1.29-6.23-2.9-13.6-3.31-20.46-.54-13.13,5.31-19.5,20.32-14.19,33.45,5.31,13.13,20.32,19.5,33.45,14.19Z"/></g><g id="_Repetición_de_cuadrícula_-8"><circle class="cls-1" cx="183.65" cy="81.59" r="12.48"/><circle class="cls-1" cx="143.72" cy="97.48" r="12.48"/><path class="cls-1" d="M167.86,161.76c6.15-2.49,10.81-7.1,13.49-12.65,1.68-3.47.05-7.65-3.49-9.17h0c-3.36-1.45-7.33-.07-8.93,3.21-1.36,2.79-3.8,5.06-7.03,6.12-5.59,1.82-11.76-.79-14.35-6.06-3.08-6.27-.14-13.74,6.22-16.31,3.74-1.51,6.84-.71,10.96,1.07,1.35.58,22.75,9.53,22.75,9.53,1.53.66,2.24,2.44,1.58,3.98h0c-.3.69-.82,1.22-1.45,1.52-.49.24-.49.96,0,1.21,6.42,3.3,14.18,3.9,21.38.99,13.13-5.31,19.5-20.32,14.19-33.45-5.31-13.13-20.32-19.5-33.45-14.19-6.16,2.49-10.83,7.12-13.51,12.69-1.66,3.46-.03,7.6,3.5,9.1l.25.11c3.33,1.41,7.12-.1,8.71-3.34,1.37-2.78,3.81-5.03,7.03-6.08,5.58-1.8,11.74.8,14.33,6.07,3.08,6.27.14,13.74-6.22,16.32-3.64,1.47-6.76.8-10.69-.9-4.19-1.8-23.95-10.07-23.95-10.07-1.54-.65-2.26-2.43-1.6-3.97h0c.3-.7.83-1.23,1.46-1.54.55-.27.56-1.03.01-1.29-6.23-2.9-13.6-3.31-20.46-.54-13.13,5.31-19.5,20.32-14.19,33.45,5.31,13.13,20.32,19.5,33.45,14.19Z"/></g><g id="_Repetición_de_cuadrícula_-9"><circle class="cls-1" cx="287.08" cy="19.49" r="12.48"/><circle class="cls-1" cx="247.14" cy="35.38" r="12.48"/><path class="cls-1" d="M271.28,99.66c6.15-2.49,10.81-7.1,13.49-12.65,1.68-3.47.05-7.65-3.49-9.17h0c-3.36-1.45-7.33-.07-8.93,3.21-1.36,2.79-3.8,5.06-7.03,6.12-5.59,1.82-11.76-.79-14.35-6.06-3.08-6.27-.14-13.74,6.22-16.31,3.74-1.51,6.84-.71,10.96,1.07,1.35.58,22.75,9.53,22.75,9.53,1.53.66,2.24,2.44,1.58,3.98h0c-.3.69-.82,1.22-1.45,1.52-.49.24-.49.96,0,1.21,6.42,3.3,14.18,3.9,21.38.99,13.13-5.31,19.5-20.32,14.19-33.45-5.31-13.13-20.32-19.5-33.45-14.19-6.16,2.49-10.83,7.12-13.51,12.69-1.66,3.46-.03,7.6,3.5,9.1l.25.11c3.33,1.41,7.12-.1,8.71-3.34,1.37-2.78,3.81-5.03,7.03-6.08,5.58-1.8,11.74.8,14.33,6.07,3.08,6.27.14,13.74-6.22,16.32-3.64,1.47-6.76.8-10.69-.9-4.19-1.8-23.95-10.07-23.95-10.07-1.54-.65-2.26-2.43-1.6-3.97h0c.3-.7.83-1.23,1.46-1.54.55-.27.56-1.03.01-1.29-6.23-2.9-13.6-3.31-20.46-.54-13.13,5.31-19.5,20.32-14.19,33.45,5.31,13.13,20.32,19.5,33.45,14.19Z"/></g><g id="_Repetición_de_cuadrícula_-10"><circle class="cls-1" cx="390.51" cy="81.59" r="12.48"/><circle class="cls-1" cx="350.57" cy="97.48" r="12.48"/><path class="cls-1" d="M374.71,161.76c6.15-2.49,10.81-7.1,13.49-12.65,1.68-3.47.05-7.65-3.49-9.17h0c-3.36-1.45-7.33-.07-8.93,3.21-1.36,2.79-3.8,5.06-7.03,6.12-5.59,1.82-11.76-.79-14.35-6.06-3.08-6.27-.14-13.74,6.22-16.31,3.74-1.51,6.84-.71,10.96,1.07,1.35.58,22.75,9.53,22.75,9.53,1.53.66,2.24,2.44,1.58,3.98h0c-.3.69-.82,1.22-1.45,1.52-.49.24-.49.96,0,1.21,6.42,3.3,14.18,3.9,21.38.99,13.13-5.31,19.5-20.32,14.19-33.45-5.31-13.13-20.32-19.5-33.45-14.19-6.16,2.49-10.83,7.12-13.51,12.69-1.66,3.46-.03,7.6,3.5,9.1l.25.11c3.33,1.41,7.12-.1,8.71-3.34,1.37-2.78,3.81-5.03,7.03-6.08,5.58-1.8,11.74.8,14.33,6.07,3.08,6.27.14,13.74-6.22,16.32-3.64,1.47-6.76.8-10.69-.9-4.19-1.8-23.95-10.07-23.95-10.07-1.54-.65-2.26-2.43-1.6-3.97h0c.3-.7.83-1.23,1.46-1.54.55-.27.56-1.03.01-1.29-6.23-2.9-13.6-3.31-20.46-.54-13.13,5.31-19.5,20.32-14.19,33.45,5.31,13.13,20.32,19.5,33.45,14.19Z"/></g><g id="_Repetición_de_cuadrícula_-11"><circle class="cls-1" cx="493.93" cy="19.49" r="12.48"/><circle class="cls-1" cx="454" cy="35.38" r="12.48"/><path class="cls-1" d="M478.14,99.66c6.15-2.49,10.81-7.1,13.49-12.65,1.68-3.47.05-7.65-3.49-9.17h0c-3.36-1.45-7.33-.07-8.93,3.21-1.36,2.79-3.8,5.06-7.03,6.12-5.59,1.82-11.76-.79-14.35-6.06-3.08-6.27-.14-13.74,6.22-16.31,3.74-1.51,6.84-.71,10.96,1.07,1.35.58,22.75,9.53,22.75,9.53,1.53.66,2.24,2.44,1.58,3.98h0c-.3.69-.82,1.22-1.45,1.52-.49.24-.49.96,0,1.21,6.42,3.3,14.18,3.9,21.38.99,13.13-5.31,19.5-20.32,14.19-33.45-5.31-13.13-20.32-19.5-33.45-14.19-6.16,2.49-10.83,7.12-13.51,12.69-1.66,3.46-.03,7.6,3.5,9.1l.25.11c3.33,1.41,7.12-.1,8.71-3.34,1.37-2.78,3.81-5.03,7.03-6.08,5.58-1.8,11.74.8,14.33,6.07,3.08,6.27.14,13.74-6.22,16.32-3.64,1.47-6.76.8-10.69-.9-4.19-1.8-23.95-10.07-23.95-10.07-1.54-.65-2.26-2.43-1.6-3.97h0c.3-.7.83-1.23,1.46-1.54.55-.27.56-1.03.01-1.29-6.23-2.9-13.6-3.31-20.46-.54-13.13,5.31-19.5,20.32-14.19,33.45,5.31,13.13,20.32,19.5,33.45,14.19Z"/></g><g id="_Repetición_de_cuadrícula_-12"><circle class="cls-1" cx="597.36" cy="81.59" r="12.48"/><circle class="cls-1" cx="557.43" cy="97.48" r="12.48"/><path class="cls-1" d="M581.56,161.76c6.15-2.49,10.81-7.1,13.49-12.65,1.68-3.47.05-7.65-3.49-9.17h0c-3.36-1.45-7.33-.07-8.93,3.21-1.36,2.79-3.8,5.06-7.03,6.12-5.59,1.82-11.76-.79-14.35-6.06-3.08-6.27-.14-13.74,6.22-16.31,3.74-1.51,6.84-.71,10.96,1.07,1.35.58,22.75,9.53,22.75,9.53,1.53.66,2.24,2.44,1.58,3.98h0c-.3.69-.82,1.22-1.45,1.52-.49.24-.49.96,0,1.21,6.42,3.3,14.18,3.9,21.38.99,13.13-5.31,19.5-20.32,14.19-33.45-5.31-13.13-20.32-19.5-33.45-14.19-6.16,2.49-10.83,7.12-13.51,12.69-1.66,3.46-.03,7.6,3.5,9.1l.25.11c3.33,1.41,7.12-.1,8.71-3.34,1.37-2.78,3.81-5.03,7.03-6.08,5.58-1.8,11.74.8,14.33,6.07,3.08,6.27.14,13.74-6.22,16.32-3.64,1.47-6.76.8-10.69-.9-4.19-1.8-23.95-10.07-23.95-10.07-1.54-.65-2.26-2.43-1.6-3.97h0c.3-.7.83-1.23,1.46-1.54.55-.27.56-1.03.01-1.29-6.23-2.9-13.6-3.31-20.46-.54-13.13,5.31-19.5,20.32-14.19,33.45,5.31,13.13,20.32,19.5,33.45,14.19Z"/></g><g id="_Repetición_de_cuadrícula_-13"><circle class="cls-1" cx="700.79" cy="19.49" r="12.48"/><circle class="cls-1" cx="660.85" cy="35.38" r="12.48"/><path class="cls-1" d="M684.99,99.66c6.15-2.49,10.81-7.1,13.49-12.65,1.68-3.47.05-7.65-3.49-9.17h0c-3.36-1.45-7.33-.07-8.93,3.21-1.36,2.79-3.8,5.06-7.03,6.12-5.59,1.82-11.76-.79-14.35-6.06-3.08-6.27-.14-13.74,6.22-16.31,3.74-1.51,6.84-.71,10.96,1.07,1.35.58,22.75,9.53,22.75,9.53,1.53.66,2.24,2.44,1.58,3.98h0c-.3.69-.82,1.22-1.45,1.52-.49.24-.49.96,0,1.21,6.42,3.3,14.18,3.9,21.38.99,13.13-5.31,19.5-20.32,14.19-33.45-5.31-13.13-20.32-19.5-33.45-14.19-6.16,2.49-10.83,7.12-13.51,12.69-1.66,3.46-.03,7.6,3.5,9.1l.25.11c3.33,1.41,7.12-.1,8.71-3.34,1.37-2.78,3.81-5.03,7.03-6.08,5.58-1.8,11.74.8,14.33,6.07,3.08,6.27.14,13.74-6.22,16.32-3.64,1.47-6.76.8-10.69-.9-4.19-1.8-23.95-10.07-23.95-10.07-1.54-.65-2.26-2.43-1.6-3.97h0c.3-.7.83-1.23,1.46-1.54.55-.27.56-1.03.01-1.29-6.23-2.9-13.6-3.31-20.46-.54-13.13,5.31-19.5,20.32-14.19,33.45,5.31,13.13,20.32,19.5,33.45,14.19Z"/></g><g id="_Repetición_de_cuadrícula_-14"><circle class="cls-1" cx="804.21" cy="81.59" r="12.48"/><circle class="cls-1" cx="764.28" cy="97.48" r="12.48"/><path class="cls-1" d="M788.42,161.76c6.15-2.49,10.81-7.1,13.49-12.65,1.68-3.47.05-7.65-3.49-9.17h0c-3.36-1.45-7.33-.07-8.93,3.21-1.36,2.79-3.8,5.06-7.03,6.12-5.59,1.82-11.76-.79-14.35-6.06-3.08-6.27-.14-13.74,6.22-16.31,3.74-1.51,6.84-.71,10.96,1.07,1.35.58,22.75,9.53,22.75,9.53,1.53.66,2.24,2.44,1.58,3.98h0c-.3.69-.82,1.22-1.45,1.52-.49.24-.49.96,0,1.21,6.42,3.3,14.18,3.9,21.38.99,13.13-5.31,19.5-20.32,14.19-33.45-5.31-13.13-20.32-19.5-33.45-14.19-6.16,2.49-10.83,7.12-13.51,12.69-1.66,3.46-.03,7.6,3.5,9.1l.25.11c3.33,1.41,7.12-.1,8.71-3.34,1.37-2.78,3.81-5.03,7.03-6.08,5.58-1.8,11.74.8,14.33,6.07,3.08,6.27.14,13.74-6.22,16.32-3.64,1.47-6.76.8-10.69-.9-4.19-1.8-23.95-10.07-23.95-10.07-1.54-.65-2.26-2.43-1.6-3.97h0c.3-.7.83-1.23,1.46-1.54.55-.27.56-1.03.01-1.29-6.23-2.9-13.6-3.31-20.46-.54-13.13,5.31-19.5,20.32-14.19,33.45,5.31,13.13,20.32,19.5,33.45,14.19Z"/></g><g id="_Repetición_de_cuadrícula_-15"><path class="cls-1" d="M-39,285.96c6.15-2.49,10.81-7.1,13.49-12.65,1.68-3.47.05-7.65-3.49-9.17h0c-3.36-1.45-7.33-.07-8.93,3.21-1.36,2.79-3.8,5.06-7.03,6.12-5.59,1.82-11.76-.79-14.35-6.06-3.08-6.27-.14-13.74,6.22-16.31,3.74-1.51,6.84-.71,10.96,1.07,1.35.58,22.75,9.53,22.75,9.53,1.53.66,2.24,2.44,1.58,3.98h0c-.3.69-.82,1.22-1.45,1.52-.49.24-.49.96,0,1.21,6.42,3.3,14.18,3.9,21.38.99,13.13-5.31,19.5-20.32,14.19-33.45-5.31-13.13-20.32-19.5-33.45-14.19-6.16,2.49-10.83,7.12-13.51,12.69-1.66,3.46-.03,7.6,3.5,9.1l.25.11c3.33,1.41,7.12-.1,8.71-3.34,1.37-2.78,3.81-5.03,7.03-6.08,5.58-1.8,11.74.8,14.33,6.07,3.08,6.27.14,13.74-6.22,16.32-3.64,1.47-6.76.8-10.69-.9-4.19-1.8-23.95-10.07-23.95-10.07-1.54-.65-2.26-2.43-1.6-3.97h0c.3-.7.83-1.23,1.46-1.54.55-.27.56-1.03.01-1.29-6.23-2.9-13.6-3.31-20.46-.54-13.13,5.31-19.5,20.32-14.19,33.45,5.31,13.13,20.32,19.5,33.45,14.19Z"/></g><g id="_Repetición_de_cuadrícula_-16"><circle class="cls-1" cx="80.22" cy="143.69" r="12.48"/><circle class="cls-1" cx="40.29" cy="159.57" r="12.48"/><path class="cls-1" d="M64.43,223.86c6.15-2.49,10.81-7.1,13.49-12.65,1.68-3.47.05-7.65-3.49-9.17h0c-3.36-1.45-7.33-.07-8.93,3.21-1.36,2.79-3.8,5.06-7.03,6.12-5.59,1.82-11.76-.79-14.35-6.06-3.08-6.27-.14-13.74,6.22-16.31,3.74-1.51,6.84-.71,10.96,1.07,1.35.58,22.75,9.53,22.75,9.53,1.53.66,2.24,2.44,1.58,3.98h0c-.3.69-.82,1.22-1.45,1.52-.49.24-.49.96,0,1.21,6.42,3.3,14.18,3.9,21.38.99,13.13-5.31,19.5-20.32,14.19-33.45-5.31-13.13-20.32-19.5-33.45-14.19-6.16,2.49-10.83,7.12-13.51,12.69-1.66,3.46-.03,7.6,3.5,9.1l.25.11c3.33,1.41,7.12-.1,8.71-3.34,1.37-2.78,3.81-5.03,7.03-6.08,5.58-1.8,11.74.8,14.33,6.07,3.08,6.27.14,13.74-6.22,16.32-3.64,1.47-6.76.8-10.69-.9-4.19-1.8-23.95-10.07-23.95-10.07-1.54-.65-2.26-2.43-1.6-3.97h0c.3-.7.83-1.23,1.46-1.54.55-.27.56-1.03.01-1.29-6.23-2.9-13.6-3.31-20.46-.54-13.13,5.31-19.5,20.32-14.19,33.45,5.31,13.13,20.32,19.5,33.45,14.19Z"/></g><g id="_Repetición_de_cuadrícula_-17"><circle class="cls-1" cx="183.65" cy="205.79" r="12.48"/><circle class="cls-1" cx="143.72" cy="221.67" r="12.48"/><path class="cls-1" d="M167.86,285.96c6.15-2.49,10.81-7.1,13.49-12.65,1.68-3.47.05-7.65-3.49-9.17h0c-3.36-1.45-7.33-.07-8.93,3.21-1.36,2.79-3.8,5.06-7.03,6.12-5.59,1.82-11.76-.79-14.35-6.06-3.08-6.27-.14-13.74,6.22-16.31,3.74-1.51,6.84-.71,10.96,1.07,1.35.58,22.75,9.53,22.75,9.53,1.53.66,2.24,2.44,1.58,3.98h0c-.3.69-.82,1.22-1.45,1.52-.49.24-.49.96,0,1.21,6.42,3.3,14.18,3.9,21.38.99,13.13-5.31,19.5-20.32,14.19-33.45-5.31-13.13-20.32-19.5-33.45-14.19-6.16,2.49-10.83,7.12-13.51,12.69-1.66,3.46-.03,7.6,3.5,9.1l.25.11c3.33,1.41,7.12-.1,8.71-3.34,1.37-2.78,3.81-5.03,7.03-6.08,5.58-1.8,11.74.8,14.33,6.07,3.08,6.27.14,13.74-6.22,16.32-3.64,1.47-6.76.8-10.69-.9-4.19-1.8-23.95-10.07-23.95-10.07-1.54-.65-2.26-2.43-1.6-3.97h0c.3-.7.83-1.23,1.46-1.54.55-.27.56-1.03.01-1.29-6.23-2.9-13.6-3.31-20.46-.54-13.13,5.31-19.5,20.32-14.19,33.45,5.31,13.13,20.32,19.5,33.45,14.19Z"/></g><g id="_Repetición_de_cuadrícula_-18"><circle class="cls-1" cx="287.08" cy="143.69" r="12.48"/><circle class="cls-1" cx="247.14" cy="159.57" r="12.48"/><path class="cls-1" d="M271.28,223.86c6.15-2.49,10.81-7.1,13.49-12.65,1.68-3.47.05-7.65-3.49-9.17h0c-3.36-1.45-7.33-.07-8.93,3.21-1.36,2.79-3.8,5.06-7.03,6.12-5.59,1.82-11.76-.79-14.35-6.06-3.08-6.27-.14-13.74,6.22-16.31,3.74-1.51,6.84-.71,10.96,1.07,1.35.58,22.75,9.53,22.75,9.53,1.53.66,2.24,2.44,1.58,3.98h0c-.3.69-.82,1.22-1.45,1.52-.49.24-.49.96,0,1.21,6.42,3.3,14.18,3.9,21.38.99,13.13-5.31,19.5-20.32,14.19-33.45-5.31-13.13-20.32-19.5-33.45-14.19-6.16,2.49-10.83,7.12-13.51,12.69-1.66,3.46-.03,7.6,3.5,9.1l.25.11c3.33,1.41,7.12-.1,8.71-3.34,1.37-2.78,3.81-5.03,7.03-6.08,5.58-1.8,11.74.8,14.33,6.07,3.08,6.27.14,13.74-6.22,16.32-3.64,1.47-6.76.8-10.69-.9-4.19-1.8-23.95-10.07-23.95-10.07-1.54-.65-2.26-2.43-1.6-3.97h0c.3-.7.83-1.23,1.46-1.54.55-.27.56-1.03.01-1.29-6.23-2.9-13.6-3.31-20.46-.54-13.13,5.31-19.5,20.32-14.19,33.45,5.31,13.13,20.32,19.5,33.45,14.19Z"/></g><g id="_Repetición_de_cuadrícula_-19"><circle class="cls-1" cx="390.51" cy="205.79" r="12.48"/><circle class="cls-1" cx="350.57" cy="221.67" r="12.48"/><path class="cls-1" d="M374.71,285.96c6.15-2.49,10.81-7.1,13.49-12.65,1.68-3.47.05-7.65-3.49-9.17h0c-3.36-1.45-7.33-.07-8.93,3.21-1.36,2.79-3.8,5.06-7.03,6.12-5.59,1.82-11.76-.79-14.35-6.06-3.08-6.27-.14-13.74,6.22-16.31,3.74-1.51,6.84-.71,10.96,1.07,1.35.58,22.75,9.53,22.75,9.53,1.53.66,2.24,2.44,1.58,3.98h0c-.3.69-.82,1.22-1.45,1.52-.49.24-.49.96,0,1.21,6.42,3.3,14.18,3.9,21.38.99,13.13-5.31,19.5-20.32,14.19-33.45-5.31-13.13-20.32-19.5-33.45-14.19-6.16,2.49-10.83,7.12-13.51,12.69-1.66,3.46-.03,7.6,3.5,9.1l.25.11c3.33,1.41,7.12-.1,8.71-3.34,1.37-2.78,3.81-5.03,7.03-6.08,5.58-1.8,11.74.8,14.33,6.07,3.08,6.27.14,13.74-6.22,16.32-3.64,1.47-6.76.8-10.69-.9-4.19-1.8-23.95-10.07-23.95-10.07-1.54-.65-2.26-2.43-1.6-3.97h0c.3-.7.83-1.23,1.46-1.54.55-.27.56-1.03.01-1.29-6.23-2.9-13.6-3.31-20.46-.54-13.13,5.31-19.5,20.32-14.19,33.45,5.31,13.13,20.32,19.5,33.45,14.19Z"/></g><g id="_Repetición_de_cuadrícula_-20"><circle class="cls-1" cx="493.93" cy="143.69" r="12.48"/><circle class="cls-1" cx="454" cy="159.57" r="12.48"/><path class="cls-1" d="M478.14,223.86c6.15-2.49,10.81-7.1,13.49-12.65,1.68-3.47.05-7.65-3.49-9.17h0c-3.36-1.45-7.33-.07-8.93,3.21-1.36,2.79-3.8,5.06-7.03,6.12-5.59,1.82-11.76-.79-14.35-6.06-3.08-6.27-.14-13.74,6.22-16.31,3.74-1.51,6.84-.71,10.96,1.07,1.35.58,22.75,9.53,22.75,9.53,1.53.66,2.24,2.44,1.58,3.98h0c-.3.69-.82,1.22-1.45,1.52-.49.24-.49.96,0,1.21,6.42,3.3,14.18,3.9,21.38.99,13.13-5.31,19.5-20.32,14.19-33.45-5.31-13.13-20.32-19.5-33.45-14.19-6.16,2.49-10.83,7.12-13.51,12.69-1.66,3.46-.03,7.6,3.5,9.1l.25.11c3.33,1.41,7.12-.1,8.71-3.34,1.37-2.78,3.81-5.03,7.03-6.08,5.58-1.8,11.74.8,14.33,6.07,3.08,6.27.14,13.74-6.22,16.32-3.64,1.47-6.76.8-10.69-.9-4.19-1.8-23.95-10.07-23.95-10.07-1.54-.65-2.26-2.43-1.6-3.97h0c.3-.7.83-1.23,1.46-1.54.55-.27.56-1.03.01-1.29-6.23-2.9-13.6-3.31-20.46-.54-13.13,5.31-19.5,20.32-14.19,33.45,5.31,13.13,20.32,19.5,33.45,14.19Z"/></g><g id="_Repetición_de_cuadrícula_-21"><circle class="cls-1" cx="597.36" cy="205.79" r="12.48"/><circle class="cls-1" cx="557.43" cy="221.67" r="12.48"/><path class="cls-1" d="M581.56,285.96c6.15-2.49,10.81-7.1,13.49-12.65,1.68-3.47.05-7.65-3.49-9.17h0c-3.36-1.45-7.33-.07-8.93,3.21-1.36,2.79-3.8,5.06-7.03,6.12-5.59,1.82-11.76-.79-14.35-6.06-3.08-6.27-.14-13.74,6.22-16.31,3.74-1.51,6.84-.71,10.96,1.07,1.35.58,22.75,9.53,22.75,9.53,1.53.66,2.24,2.44,1.58,3.98h0c-.3.69-.82,1.22-1.45,1.52-.49.24-.49.96,0,1.21,6.42,3.3,14.18,3.9,21.38.99,13.13-5.31,19.5-20.32,14.19-33.45-5.31-13.13-20.32-19.5-33.45-14.19-6.16,2.49-10.83,7.12-13.51,12.69-1.66,3.46-.03,7.6,3.5,9.1l.25.11c3.33,1.41,7.12-.1,8.71-3.34,1.37-2.78,3.81-5.03,7.03-6.08,5.58-1.8,11.74.8,14.33,6.07,3.08,6.27.14,13.74-6.22,16.32-3.64,1.47-6.76.8-10.69-.9-4.19-1.8-23.95-10.07-23.95-10.07-1.54-.65-2.26-2.43-1.6-3.97h0c.3-.7.83-1.23,1.46-1.54.55-.27.56-1.03.01-1.29-6.23-2.9-13.6-3.31-20.46-.54-13.13,5.31-19.5,20.32-14.19,33.45,5.31,13.13,20.32,19.5,33.45,14.19Z"/></g><g id="_Repetición_de_cuadrícula_-22"><circle class="cls-1" cx="700.79" cy="143.69" r="12.48"/><circle class="cls-1" cx="660.85" cy="159.57" r="12.48"/><path class="cls-1" d="M684.99,223.86c6.15-2.49,10.81-7.1,13.49-12.65,1.68-3.47.05-7.65-3.49-9.17h0c-3.36-1.45-7.33-.07-8.93,3.21-1.36,2.79-3.8,5.06-7.03,6.12-5.59,1.82-11.76-.79-14.35-6.06-3.08-6.27-.14-13.74,6.22-16.31,3.74-1.51,6.84-.71,10.96,1.07,1.35.58,22.75,9.53,22.75,9.53,1.53.66,2.24,2.44,1.58,3.98h0c-.3.69-.82,1.22-1.45,1.52-.49.24-.49.96,0,1.21,6.42,3.3,14.18,3.9,21.38.99,13.13-5.31,19.5-20.32,14.19-33.45-5.31-13.13-20.32-19.5-33.45-14.19-6.16,2.49-10.83,7.12-13.51,12.69-1.66,3.46-.03,7.6,3.5,9.1l.25.11c3.33,1.41,7.12-.1,8.71-3.34,1.37-2.78,3.81-5.03,7.03-6.08,5.58-1.8,11.74.8,14.33,6.07,3.08,6.27.14,13.74-6.22,16.32-3.64,1.47-6.76.8-10.69-.9-4.19-1.8-23.95-10.07-23.95-10.07-1.54-.65-2.26-2.43-1.6-3.97h0c.3-.7.83-1.23,1.46-1.54.55-.27.56-1.03.01-1.29-6.23-2.9-13.6-3.31-20.46-.54-13.13,5.31-19.5,20.32-14.19,33.45,5.31,13.13,20.32,19.5,33.45,14.19Z"/></g><g id="_Repetición_de_cuadrícula_-23"><circle class="cls-1" cx="804.21" cy="205.79" r="12.48"/><circle class="cls-1" cx="764.28" cy="221.67" r="12.48"/><path class="cls-1" d="M788.42,285.96c6.15-2.49,10.81-7.1,13.49-12.65,1.68-3.47.05-7.65-3.49-9.17h0c-3.36-1.45-7.33-.07-8.93,3.21-1.36,2.79-3.8,5.06-7.03,6.12-5.59,1.82-11.76-.79-14.35-6.06-3.08-6.27-.14-13.74,6.22-16.31,3.74-1.51,6.84-.71,10.96,1.07,1.35.58,22.75,9.53,22.75,9.53,1.53.66,2.24,2.44,1.58,3.98h0c-.3.69-.82,1.22-1.45,1.52-.49.24-.49.96,0,1.21,6.42,3.3,14.18,3.9,21.38.99,13.13-5.31,19.5-20.32,14.19-33.45-5.31-13.13-20.32-19.5-33.45-14.19-6.16,2.49-10.83,7.12-13.51,12.69-1.66,3.46-.03,7.6,3.5,9.1l.25.11c3.33,1.41,7.12-.1,8.71-3.34,1.37-2.78,3.81-5.03,7.03-6.08,5.58-1.8,11.74.8,14.33,6.07,3.08,6.27.14,13.74-6.22,16.32-3.64,1.47-6.76.8-10.69-.9-4.19-1.8-23.95-10.07-23.95-10.07-1.54-.65-2.26-2.43-1.6-3.97h0c.3-.7.83-1.23,1.46-1.54.55-.27.56-1.03.01-1.29-6.23-2.9-13.6-3.31-20.46-.54-13.13,5.31-19.5,20.32-14.19,33.45,5.31,13.13,20.32,19.5,33.45,14.19Z"/></g><g id="_Repetición_de_cuadrícula_-24"><path class="cls-1" d="M-39,410.16c6.15-2.49,10.81-7.1,13.49-12.65,1.68-3.47.05-7.65-3.49-9.17h0c-3.36-1.45-7.33-.07-8.93,3.21-1.36,2.79-3.8,5.06-7.03,6.12-5.59,1.82-11.76-.79-14.35-6.06-3.08-6.27-.14-13.74,6.22-16.31,3.74-1.51,6.84-.71,10.96,1.07,1.35.58,22.75,9.53,22.75,9.53,1.53.66,2.24,2.44,1.58,3.98h0c-.3.69-.82,1.22-1.45,1.52-.49.24-.49.96,0,1.21,6.42,3.3,14.18,3.9,21.38.99,13.13-5.31,19.5-20.32,14.19-33.45-5.31-13.13-20.32-19.5-33.45-14.19-6.16,2.49-10.83,7.12-13.51,12.69-1.66,3.46-.03,7.6,3.5,9.1l.25.11c3.33,1.41,7.12-.1,8.71-3.34,1.37-2.78,3.81-5.03,7.03-6.08,5.58-1.8,11.74.8,14.33,6.07,3.08,6.27.14,13.74-6.22,16.32-3.64,1.47-6.76.8-10.69-.9-4.19-1.8-23.95-10.07-23.95-10.07-1.54-.65-2.26-2.43-1.6-3.97h0c.3-.7.83-1.23,1.46-1.54.55-.27.56-1.03.01-1.29-6.23-2.9-13.6-3.31-20.46-.54-13.13,5.31-19.5,20.32-14.19,33.45,5.31,13.13,20.32,19.5,33.45,14.19Z"/></g><g id="_Repetición_de_cuadrícula_-25"><circle class="cls-1" cx="80.22" cy="267.89" r="12.48"/><circle class="cls-1" cx="40.29" cy="283.77" r="12.48"/><path class="cls-1" d="M64.43,348.06c6.15-2.49,10.81-7.1,13.49-12.65,1.68-3.47.05-7.65-3.49-9.17h0c-3.36-1.45-7.33-.07-8.93,3.21-1.36,2.79-3.8,5.06-7.03,6.12-5.59,1.82-11.76-.79-14.35-6.06-3.08-6.27-.14-13.74,6.22-16.31,3.74-1.51,6.84-.71,10.96,1.07,1.35.58,22.75,9.53,22.75,9.53,1.53.66,2.24,2.44,1.58,3.98h0c-.3.69-.82,1.22-1.45,1.52-.49.24-.49.96,0,1.21,6.42,3.3,14.18,3.9,21.38.99,13.13-5.31,19.5-20.32,14.19-33.45-5.31-13.13-20.32-19.5-33.45-14.19-6.16,2.49-10.83,7.12-13.51,12.69-1.66,3.46-.03,7.6,3.5,9.1l.25.11c3.33,1.41,7.12-.1,8.71-3.34,1.37-2.78,3.81-5.03,7.03-6.08,5.58-1.8,11.74.8,14.33,6.07,3.08,6.27.14,13.74-6.22,16.32-3.64,1.47-6.76.8-10.69-.9-4.19-1.8-23.95-10.07-23.95-10.07-1.54-.65-2.26-2.43-1.6-3.97h0c.3-.7.83-1.23,1.46-1.54.55-.27.56-1.03.01-1.29-6.23-2.9-13.6-3.31-20.46-.54-13.13,5.31-19.5,20.32-14.19,33.45,5.31,13.13,20.32,19.5,33.45,14.19Z"/></g><g id="_Repetición_de_cuadrícula_-26"><circle class="cls-1" cx="183.65" cy="329.99" r="12.48"/><circle class="cls-1" cx="143.72" cy="345.87" r="12.48"/><path class="cls-1" d="M167.86,410.16c6.15-2.49,10.81-7.1,13.49-12.65,1.68-3.47.05-7.65-3.49-9.17h0c-3.36-1.45-7.33-.07-8.93,3.21-1.36,2.79-3.8,5.06-7.03,6.12-5.59,1.82-11.76-.79-14.35-6.06-3.08-6.27-.14-13.74,6.22-16.31,3.74-1.51,6.84-.71,10.96,1.07,1.35.58,22.75,9.53,22.75,9.53,1.53.66,2.24,2.44,1.58,3.98h0c-.3.69-.82,1.22-1.45,1.52-.49.24-.49.96,0,1.21,6.42,3.3,14.18,3.9,21.38.99,13.13-5.31,19.5-20.32,14.19-33.45-5.31-13.13-20.32-19.5-33.45-14.19-6.16,2.49-10.83,7.12-13.51,12.69-1.66,3.46-.03,7.6,3.5,9.1l.25.11c3.33,1.41,7.12-.1,8.71-3.34,1.37-2.78,3.81-5.03,7.03-6.08,5.58-1.8,11.74.8,14.33,6.07,3.08,6.27.14,13.74-6.22,16.32-3.64,1.47-6.76.8-10.69-.9-4.19-1.8-23.95-10.07-23.95-10.07-1.54-.65-2.26-2.43-1.6-3.97h0c.3-.7.83-1.23,1.46-1.54.55-.27.56-1.03.01-1.29-6.23-2.9-13.6-3.31-20.46-.54-13.13,5.31-19.5,20.32-14.19,33.45,5.31,13.13,20.32,19.5,33.45,14.19Z"/></g><g id="_Repetición_de_cuadrícula_-27"><circle class="cls-1" cx="287.08" cy="267.89" r="12.48"/><circle class="cls-1" cx="247.14" cy="283.77" r="12.48"/><path class="cls-1" d="M271.28,348.06c6.15-2.49,10.81-7.1,13.49-12.65,1.68-3.47.05-7.65-3.49-9.17h0c-3.36-1.45-7.33-.07-8.93,3.21-1.36,2.79-3.8,5.06-7.03,6.12-5.59,1.82-11.76-.79-14.35-6.06-3.08-6.27-.14-13.74,6.22-16.31,3.74-1.51,6.84-.71,10.96,1.07,1.35.58,22.75,9.53,22.75,9.53,1.53.66,2.24,2.44,1.58,3.98h0c-.3.69-.82,1.22-1.45,1.52-.49.24-.49.96,0,1.21,6.42,3.3,14.18,3.9,21.38.99,13.13-5.31,19.5-20.32,14.19-33.45-5.31-13.13-20.32-19.5-33.45-14.19-6.16,2.49-10.83,7.12-13.51,12.69-1.66,3.46-.03,7.6,3.5,9.1l.25.11c3.33,1.41,7.12-.1,8.71-3.34,1.37-2.78,3.81-5.03,7.03-6.08,5.58-1.8,11.74.8,14.33,6.07,3.08,6.27.14,13.74-6.22,16.32-3.64,1.47-6.76.8-10.69-.9-4.19-1.8-23.95-10.07-23.95-10.07-1.54-.65-2.26-2.43-1.6-3.97h0c.3-.7.83-1.23,1.46-1.54.55-.27.56-1.03.01-1.29-6.23-2.9-13.6-3.31-20.46-.54-13.13,5.31-19.5,20.32-14.19,33.45,5.31,13.13,20.32,19.5,33.45,14.19Z"/></g><g id="_Repetición_de_cuadrícula_-28"><circle class="cls-1" cx="390.51" cy="329.99" r="12.48"/><circle class="cls-1" cx="350.57" cy="345.87" r="12.48"/><path class="cls-1" d="M374.71,410.16c6.15-2.49,10.81-7.1,13.49-12.65,1.68-3.47.05-7.65-3.49-9.17h0c-3.36-1.45-7.33-.07-8.93,3.21-1.36,2.79-3.8,5.06-7.03,6.12-5.59,1.82-11.76-.79-14.35-6.06-3.08-6.27-.14-13.74,6.22-16.31,3.74-1.51,6.84-.71,10.96,1.07,1.35.58,22.75,9.53,22.75,9.53,1.53.66,2.24,2.44,1.58,3.98h0c-.3.69-.82,1.22-1.45,1.52-.49.24-.49.96,0,1.21,6.42,3.3,14.18,3.9,21.38.99,13.13-5.31,19.5-20.32,14.19-33.45-5.31-13.13-20.32-19.5-33.45-14.19-6.16,2.49-10.83,7.12-13.51,12.69-1.66,3.46-.03,7.6,3.5,9.1l.25.11c3.33,1.41,7.12-.1,8.71-3.34,1.37-2.78,3.81-5.03,7.03-6.08,5.58-1.8,11.74.8,14.33,6.07,3.08,6.27.14,13.74-6.22,16.32-3.64,1.47-6.76.8-10.69-.9-4.19-1.8-23.95-10.07-23.95-10.07-1.54-.65-2.26-2.43-1.6-3.97h0c.3-.7.83-1.23,1.46-1.54.55-.27.56-1.03.01-1.29-6.23-2.9-13.6-3.31-20.46-.54-13.13,5.31-19.5,20.32-14.19,33.45,5.31,13.13,20.32,19.5,33.45,14.19Z"/></g><g id="_Repetición_de_cuadrícula_-29"><circle class="cls-1" cx="493.93" cy="267.89" r="12.48"/><circle class="cls-1" cx="454" cy="283.77" r="12.48"/><path class="cls-1" d="M478.14,348.06c6.15-2.49,10.81-7.1,13.49-12.65,1.68-3.47.05-7.65-3.49-9.17h0c-3.36-1.45-7.33-.07-8.93,3.21-1.36,2.79-3.8,5.06-7.03,6.12-5.59,1.82-11.76-.79-14.35-6.06-3.08-6.27-.14-13.74,6.22-16.31,3.74-1.51,6.84-.71,10.96,1.07,1.35.58,22.75,9.53,22.75,9.53,1.53.66,2.24,2.44,1.58,3.98h0c-.3.69-.82,1.22-1.45,1.52-.49.24-.49.96,0,1.21,6.42,3.3,14.18,3.9,21.38.99,13.13-5.31,19.5-20.32,14.19-33.45-5.31-13.13-20.32-19.5-33.45-14.19-6.16,2.49-10.83,7.12-13.51,12.69-1.66,3.46-.03,7.6,3.5,9.1l.25.11c3.33,1.41,7.12-.1,8.71-3.34,1.37-2.78,3.81-5.03,7.03-6.08,5.58-1.8,11.74.8,14.33,6.07,3.08,6.27.14,13.74-6.22,16.32-3.64,1.47-6.76.8-10.69-.9-4.19-1.8-23.95-10.07-23.95-10.07-1.54-.65-2.26-2.43-1.6-3.97h0c.3-.7.83-1.23,1.46-1.54.55-.27.56-1.03.01-1.29-6.23-2.9-13.6-3.31-20.46-.54-13.13,5.31-19.5,20.32-14.19,33.45,5.31,13.13,20.32,19.5,33.45,14.19Z"/></g><g id="_Repetición_de_cuadrícula_-30"><circle class="cls-1" cx="597.36" cy="329.99" r="12.48"/><circle class="cls-1" cx="557.43" cy="345.87" r="12.48"/><path class="cls-1" d="M581.56,410.16c6.15-2.49,10.81-7.1,13.49-12.65,1.68-3.47.05-7.65-3.49-9.17h0c-3.36-1.45-7.33-.07-8.93,3.21-1.36,2.79-3.8,5.06-7.03,6.12-5.59,1.82-11.76-.79-14.35-6.06-3.08-6.27-.14-13.74,6.22-16.31,3.74-1.51,6.84-.71,10.96,1.07,1.35.58,22.75,9.53,22.75,9.53,1.53.66,2.24,2.44,1.58,3.98h0c-.3.69-.82,1.22-1.45,1.52-.49.24-.49.96,0,1.21,6.42,3.3,14.18,3.9,21.38.99,13.13-5.31,19.5-20.32,14.19-33.45-5.31-13.13-20.32-19.5-33.45-14.19-6.16,2.49-10.83,7.12-13.51,12.69-1.66,3.46-.03,7.6,3.5,9.1l.25.11c3.33,1.41,7.12-.1,8.71-3.34,1.37-2.78,3.81-5.03,7.03-6.08,5.58-1.8,11.74.8,14.33,6.07,3.08,6.27.14,13.74-6.22,16.32-3.64,1.47-6.76.8-10.69-.9-4.19-1.8-23.95-10.07-23.95-10.07-1.54-.65-2.26-2.43-1.6-3.97h0c.3-.7.83-1.23,1.46-1.54.55-.27.56-1.03.01-1.29-6.23-2.9-13.6-3.31-20.46-.54-13.13,5.31-19.5,20.32-14.19,33.45,5.31,13.13,20.32,19.5,33.45,14.19Z"/></g><g id="_Repetición_de_cuadrícula_-31"><circle class="cls-1" cx="700.79" cy="267.89" r="12.48"/><circle class="cls-1" cx="660.85" cy="283.77" r="12.48"/><path class="cls-1" d="M684.99,348.06c6.15-2.49,10.81-7.1,13.49-12.65,1.68-3.47.05-7.65-3.49-9.17h0c-3.36-1.45-7.33-.07-8.93,3.21-1.36,2.79-3.8,5.06-7.03,6.12-5.59,1.82-11.76-.79-14.35-6.06-3.08-6.27-.14-13.74,6.22-16.31,3.74-1.51,6.84-.71,10.96,1.07,1.35.58,22.75,9.53,22.75,9.53,1.53.66,2.24,2.44,1.58,3.98h0c-.3.69-.82,1.22-1.45,1.52-.49.24-.49.96,0,1.21,6.42,3.3,14.18,3.9,21.38.99,13.13-5.31,19.5-20.32,14.19-33.45-5.31-13.13-20.32-19.5-33.45-14.19-6.16,2.49-10.83,7.12-13.51,12.69-1.66,3.46-.03,7.6,3.5,9.1l.25.11c3.33,1.41,7.12-.1,8.71-3.34,1.37-2.78,3.81-5.03,7.03-6.08,5.58-1.8,11.74.8,14.33,6.07,3.08,6.27.14,13.74-6.22,16.32-3.64,1.47-6.76.8-10.69-.9-4.19-1.8-23.95-10.07-23.95-10.07-1.54-.65-2.26-2.43-1.6-3.97h0c.3-.7.83-1.23,1.46-1.54.55-.27.56-1.03.01-1.29-6.23-2.9-13.6-3.31-20.46-.54-13.13,5.31-19.5,20.32-14.19,33.45,5.31,13.13,20.32,19.5,33.45,14.19Z"/></g><g id="_Repetición_de_cuadrícula_-32"><circle class="cls-1" cx="804.21" cy="329.99" r="12.48"/><circle class="cls-1" cx="764.28" cy="345.87" r="12.48"/><path class="cls-1" d="M788.42,410.16c6.15-2.49,10.81-7.1,13.49-12.65,1.68-3.47.05-7.65-3.49-9.17h0c-3.36-1.45-7.33-.07-8.93,3.21-1.36,2.79-3.8,5.06-7.03,6.12-5.59,1.82-11.76-.79-14.35-6.06-3.08-6.27-.14-13.74,6.22-16.31,3.74-1.51,6.84-.71,10.96,1.07,1.35.58,22.75,9.53,22.75,9.53,1.53.66,2.24,2.44,1.58,3.98h0c-.3.69-.82,1.22-1.45,1.52-.49.24-.49.96,0,1.21,6.42,3.3,14.18,3.9,21.38.99,13.13-5.31,19.5-20.32,14.19-33.45-5.31-13.13-20.32-19.5-33.45-14.19-6.16,2.49-10.83,7.12-13.51,12.69-1.66,3.46-.03,7.6,3.5,9.1l.25.11c3.33,1.41,7.12-.1,8.71-3.34,1.37-2.78,3.81-5.03,7.03-6.08,5.58-1.8,11.74.8,14.33,6.07,3.08,6.27.14,13.74-6.22,16.32-3.64,1.47-6.76.8-10.69-.9-4.19-1.8-23.95-10.07-23.95-10.07-1.54-.65-2.26-2.43-1.6-3.97h0c.3-.7.83-1.23,1.46-1.54.55-.27.56-1.03.01-1.29-6.23-2.9-13.6-3.31-20.46-.54-13.13,5.31-19.5,20.32-14.19,33.45,5.31,13.13,20.32,19.5,33.45,14.19Z"/></g><g id="_Repetición_de_cuadrícula_-33"><path class="cls-1" d="M-39,534.35c6.15-2.49,10.81-7.1,13.49-12.65,1.68-3.47.05-7.65-3.49-9.17h0c-3.36-1.45-7.33-.07-8.93,3.21-1.36,2.79-3.8,5.06-7.03,6.12-5.59,1.82-11.76-.79-14.35-6.06-3.08-6.27-.14-13.74,6.22-16.31,3.74-1.51,6.84-.71,10.96,1.07,1.35.58,22.75,9.53,22.75,9.53,1.53.66,2.24,2.44,1.58,3.98h0c-.3.69-.82,1.22-1.45,1.52-.49.24-.49.96,0,1.21,6.42,3.3,14.18,3.9,21.38.99,13.13-5.31,19.5-20.32,14.19-33.45-5.31-13.13-20.32-19.5-33.45-14.19-6.16,2.49-10.83,7.12-13.51,12.69-1.66,3.46-.03,7.6,3.5,9.1l.25.11c3.33,1.41,7.12-.1,8.71-3.34,1.37-2.78,3.81-5.03,7.03-6.08,5.58-1.8,11.74.8,14.33,6.07,3.08,6.27.14,13.74-6.22,16.32-3.64,1.47-6.76.8-10.69-.9-4.19-1.8-23.95-10.07-23.95-10.07-1.54-.65-2.26-2.43-1.6-3.97h0c.3-.7.83-1.23,1.46-1.54.55-.27.56-1.03.01-1.29-6.23-2.9-13.6-3.31-20.46-.54-13.13,5.31-19.5,20.32-14.19,33.45,5.31,13.13,20.32,19.5,33.45,14.19Z"/></g><g id="_Repetición_de_cuadrícula_-34"><circle class="cls-1" cx="80.22" cy="392.09" r="12.48"/><circle class="cls-1" cx="40.29" cy="407.97" r="12.48"/><path class="cls-1" d="M64.43,472.25c6.15-2.49,10.81-7.1,13.49-12.65,1.68-3.47.05-7.65-3.49-9.17h0c-3.36-1.45-7.33-.07-8.93,3.21-1.36,2.79-3.8,5.06-7.03,6.12-5.59,1.82-11.76-.79-14.35-6.06-3.08-6.27-.14-13.74,6.22-16.31,3.74-1.51,6.84-.71,10.96,1.07,1.35.58,22.75,9.53,22.75,9.53,1.53.66,2.24,2.44,1.58,3.98h0c-.3.69-.82,1.22-1.45,1.52-.49.24-.49.96,0,1.21,6.42,3.3,14.18,3.9,21.38.99,13.13-5.31,19.5-20.32,14.19-33.45-5.31-13.13-20.32-19.5-33.45-14.19-6.16,2.49-10.83,7.12-13.51,12.69-1.66,3.46-.03,7.6,3.5,9.1l.25.11c3.33,1.41,7.12-.1,8.71-3.34,1.37-2.78,3.81-5.03,7.03-6.08,5.58-1.8,11.74.8,14.33,6.07,3.08,6.27.14,13.74-6.22,16.32-3.64,1.47-6.76.8-10.69-.9-4.19-1.8-23.95-10.07-23.95-10.07-1.54-.65-2.26-2.43-1.6-3.97h0c.3-.7.83-1.23,1.46-1.54.55-.27.56-1.03.01-1.29-6.23-2.9-13.6-3.31-20.46-.54-13.13,5.31-19.5,20.32-14.19,33.45,5.31,13.13,20.32,19.5,33.45,14.19Z"/></g><g id="_Repetición_de_cuadrícula_-35"><circle class="cls-1" cx="183.65" cy="454.18" r="12.48"/><circle class="cls-1" cx="143.72" cy="470.07" r="12.48"/><path class="cls-1" d="M167.86,534.35c6.15-2.49,10.81-7.1,13.49-12.65,1.68-3.47.05-7.65-3.49-9.17h0c-3.36-1.45-7.33-.07-8.93,3.21-1.36,2.79-3.8,5.06-7.03,6.12-5.59,1.82-11.76-.79-14.35-6.06-3.08-6.27-.14-13.74,6.22-16.31,3.74-1.51,6.84-.71,10.96,1.07,1.35.58,22.75,9.53,22.75,9.53,1.53.66,2.24,2.44,1.58,3.98h0c-.3.69-.82,1.22-1.45,1.52-.49.24-.49.96,0,1.21,6.42,3.3,14.18,3.9,21.38.99,13.13-5.31,19.5-20.32,14.19-33.45-5.31-13.13-20.32-19.5-33.45-14.19-6.16,2.49-10.83,7.12-13.51,12.69-1.66,3.46-.03,7.6,3.5,9.1l.25.11c3.33,1.41,7.12-.1,8.71-3.34,1.37-2.78,3.81-5.03,7.03-6.08,5.58-1.8,11.74.8,14.33,6.07,3.08,6.27.14,13.74-6.22,16.32-3.64,1.47-6.76.8-10.69-.9-4.19-1.8-23.95-10.07-23.95-10.07-1.54-.65-2.26-2.43-1.6-3.97h0c.3-.7.83-1.23,1.46-1.54.55-.27.56-1.03.01-1.29-6.23-2.9-13.6-3.31-20.46-.54-13.13,5.31-19.5,20.32-14.19,33.45,5.31,13.13,20.32,19.5,33.45,14.19Z"/></g><g id="_Repetición_de_cuadrícula_-36"><circle class="cls-1" cx="287.08" cy="392.09" r="12.48"/><circle class="cls-1" cx="247.14" cy="407.97" r="12.48"/><path class="cls-1" d="M271.28,472.25c6.15-2.49,10.81-7.1,13.49-12.65,1.68-3.47.05-7.65-3.49-9.17h0c-3.36-1.45-7.33-.07-8.93,3.21-1.36,2.79-3.8,5.06-7.03,6.12-5.59,1.82-11.76-.79-14.35-6.06-3.08-6.27-.14-13.74,6.22-16.31,3.74-1.51,6.84-.71,10.96,1.07,1.35.58,22.75,9.53,22.75,9.53,1.53.66,2.24,2.44,1.58,3.98h0c-.3.69-.82,1.22-1.45,1.52-.49.24-.49.96,0,1.21,6.42,3.3,14.18,3.9,21.38.99,13.13-5.31,19.5-20.32,14.19-33.45-5.31-13.13-20.32-19.5-33.45-14.19-6.16,2.49-10.83,7.12-13.51,12.69-1.66,3.46-.03,7.6,3.5,9.1l.25.11c3.33,1.41,7.12-.1,8.71-3.34,1.37-2.78,3.81-5.03,7.03-6.08,5.58-1.8,11.74.8,14.33,6.07,3.08,6.27.14,13.74-6.22,16.32-3.64,1.47-6.76.8-10.69-.9-4.19-1.8-23.95-10.07-23.95-10.07-1.54-.65-2.26-2.43-1.6-3.97h0c.3-.7.83-1.23,1.46-1.54.55-.27.56-1.03.01-1.29-6.23-2.9-13.6-3.31-20.46-.54-13.13,5.31-19.5,20.32-14.19,33.45,5.31,13.13,20.32,19.5,33.45,14.19Z"/></g><g id="_Repetición_de_cuadrícula_-37"><circle class="cls-1" cx="390.51" cy="454.18" r="12.48"/><circle class="cls-1" cx="350.57" cy="470.07" r="12.48"/><path class="cls-1" d="M374.71,534.35c6.15-2.49,10.81-7.1,13.49-12.65,1.68-3.47.05-7.65-3.49-9.17h0c-3.36-1.45-7.33-.07-8.93,3.21-1.36,2.79-3.8,5.06-7.03,6.12-5.59,1.82-11.76-.79-14.35-6.06-3.08-6.27-.14-13.74,6.22-16.31,3.74-1.51,6.84-.71,10.96,1.07,1.35.58,22.75,9.53,22.75,9.53,1.53.66,2.24,2.44,1.58,3.98h0c-.3.69-.82,1.22-1.45,1.52-.49.24-.49.96,0,1.21,6.42,3.3,14.18,3.9,21.38.99,13.13-5.31,19.5-20.32,14.19-33.45-5.31-13.13-20.32-19.5-33.45-14.19-6.16,2.49-10.83,7.12-13.51,12.69-1.66,3.46-.03,7.6,3.5,9.1l.25.11c3.33,1.41,7.12-.1,8.71-3.34,1.37-2.78,3.81-5.03,7.03-6.08,5.58-1.8,11.74.8,14.33,6.07,3.08,6.27.14,13.74-6.22,16.32-3.64,1.47-6.76.8-10.69-.9-4.19-1.8-23.95-10.07-23.95-10.07-1.54-.65-2.26-2.43-1.6-3.97h0c.3-.7.83-1.23,1.46-1.54.55-.27.56-1.03.01-1.29-6.23-2.9-13.6-3.31-20.46-.54-13.13,5.31-19.5,20.32-14.19,33.45,5.31,13.13,20.32,19.5,33.45,14.19Z"/></g><g id="_Repetición_de_cuadrícula_-38"><circle class="cls-1" cx="493.93" cy="392.09" r="12.48"/><circle class="cls-1" cx="454" cy="407.97" r="12.48"/><path class="cls-1" d="M478.14,472.25c6.15-2.49,10.81-7.1,13.49-12.65,1.68-3.47.05-7.65-3.49-9.17h0c-3.36-1.45-7.33-.07-8.93,3.21-1.36,2.79-3.8,5.06-7.03,6.12-5.59,1.82-11.76-.79-14.35-6.06-3.08-6.27-.14-13.74,6.22-16.31,3.74-1.51,6.84-.71,10.96,1.07,1.35.58,22.75,9.53,22.75,9.53,1.53.66,2.24,2.44,1.58,3.98h0c-.3.69-.82,1.22-1.45,1.52-.49.24-.49.96,0,1.21,6.42,3.3,14.18,3.9,21.38.99,13.13-5.31,19.5-20.32,14.19-33.45-5.31-13.13-20.32-19.5-33.45-14.19-6.16,2.49-10.83,7.12-13.51,12.69-1.66,3.46-.03,7.6,3.5,9.1l.25.11c3.33,1.41,7.12-.1,8.71-3.34,1.37-2.78,3.81-5.03,7.03-6.08,5.58-1.8,11.74.8,14.33,6.07,3.08,6.27.14,13.74-6.22,16.32-3.64,1.47-6.76.8-10.69-.9-4.19-1.8-23.95-10.07-23.95-10.07-1.54-.65-2.26-2.43-1.6-3.97h0c.3-.7.83-1.23,1.46-1.54.55-.27.56-1.03.01-1.29-6.23-2.9-13.6-3.31-20.46-.54-13.13,5.31-19.5,20.32-14.19,33.45,5.31,13.13,20.32,19.5,33.45,14.19Z"/></g><g id="_Repetición_de_cuadrícula_-39"><circle class="cls-1" cx="597.36" cy="454.18" r="12.48"/><circle class="cls-1" cx="557.43" cy="470.07" r="12.48"/><path class="cls-1" d="M581.56,534.35c6.15-2.49,10.81-7.1,13.49-12.65,1.68-3.47.05-7.65-3.49-9.17h0c-3.36-1.45-7.33-.07-8.93,3.21-1.36,2.79-3.8,5.06-7.03,6.12-5.59,1.82-11.76-.79-14.35-6.06-3.08-6.27-.14-13.74,6.22-16.31,3.74-1.51,6.84-.71,10.96,1.07,1.35.58,22.75,9.53,22.75,9.53,1.53.66,2.24,2.44,1.58,3.98h0c-.3.69-.82,1.22-1.45,1.52-.49.24-.49.96,0,1.21,6.42,3.3,14.18,3.9,21.38.99,13.13-5.31,19.5-20.32,14.19-33.45-5.31-13.13-20.32-19.5-33.45-14.19-6.16,2.49-10.83,7.12-13.51,12.69-1.66,3.46-.03,7.6,3.5,9.1l.25.11c3.33,1.41,7.12-.1,8.71-3.34,1.37-2.78,3.81-5.03,7.03-6.08,5.58-1.8,11.74.8,14.33,6.07,3.08,6.27.14,13.74-6.22,16.32-3.64,1.47-6.76.8-10.69-.9-4.19-1.8-23.95-10.07-23.95-10.07-1.54-.65-2.26-2.43-1.6-3.97h0c.3-.7.83-1.23,1.46-1.54.55-.27.56-1.03.01-1.29-6.23-2.9-13.6-3.31-20.46-.54-13.13,5.31-19.5,20.32-14.19,33.45,5.31,13.13,20.32,19.5,33.45,14.19Z"/></g><g id="_Repetición_de_cuadrícula_-40"><circle class="cls-1" cx="700.79" cy="392.09" r="12.48"/><circle class="cls-1" cx="660.85" cy="407.97" r="12.48"/><path class="cls-1" d="M684.99,472.25c6.15-2.49,10.81-7.1,13.49-12.65,1.68-3.47.05-7.65-3.49-9.17h0c-3.36-1.45-7.33-.07-8.93,3.21-1.36,2.79-3.8,5.06-7.03,6.12-5.59,1.82-11.76-.79-14.35-6.06-3.08-6.27-.14-13.74,6.22-16.31,3.74-1.51,6.84-.71,10.96,1.07,1.35.58,22.75,9.53,22.75,9.53,1.53.66,2.24,2.44,1.58,3.98h0c-.3.69-.82,1.22-1.45,1.52-.49.24-.49.96,0,1.21,6.42,3.3,14.18,3.9,21.38.99,13.13-5.31,19.5-20.32,14.19-33.45-5.31-13.13-20.32-19.5-33.45-14.19-6.16,2.49-10.83,7.12-13.51,12.69-1.66,3.46-.03,7.6,3.5,9.1l.25.11c3.33,1.41,7.12-.1,8.71-3.34,1.37-2.78,3.81-5.03,7.03-6.08,5.58-1.8,11.74.8,14.33,6.07,3.08,6.27.14,13.74-6.22,16.32-3.64,1.47-6.76.8-10.69-.9-4.19-1.8-23.95-10.07-23.95-10.07-1.54-.65-2.26-2.43-1.6-3.97h0c.3-.7.83-1.23,1.46-1.54.55-.27.56-1.03.01-1.29-6.23-2.9-13.6-3.31-20.46-.54-13.13,5.31-19.5,20.32-14.19,33.45,5.31,13.13,20.32,19.5,33.45,14.19Z"/></g><g id="_Repetición_de_cuadrícula_-41"><circle class="cls-1" cx="804.21" cy="454.18" r="12.48"/><circle class="cls-1" cx="764.28" cy="470.07" r="12.48"/><path class="cls-1" d="M788.42,534.35c6.15-2.49,10.81-7.1,13.49-12.65,1.68-3.47.05-7.65-3.49-9.17h0c-3.36-1.45-7.33-.07-8.93,3.21-1.36,2.79-3.8,5.06-7.03,6.12-5.59,1.82-11.76-.79-14.35-6.06-3.08-6.27-.14-13.74,6.22-16.31,3.74-1.51,6.84-.71,10.96,1.07,1.35.58,22.75,9.53,22.75,9.53,1.53.66,2.24,2.44,1.58,3.98h0c-.3.69-.82,1.22-1.45,1.52-.49.24-.49.96,0,1.21,6.42,3.3,14.18,3.9,21.38.99,13.13-5.31,19.5-20.32,14.19-33.45-5.31-13.13-20.32-19.5-33.45-14.19-6.16,2.49-10.83,7.12-13.51,12.69-1.66,3.46-.03,7.6,3.5,9.1l.25.11c3.33,1.41,7.12-.1,8.71-3.34,1.37-2.78,3.81-5.03,7.03-6.08,5.58-1.8,11.74.8,14.33,6.07,3.08,6.27.14,13.74-6.22,16.32-3.64,1.47-6.76.8-10.69-.9-4.19-1.8-23.95-10.07-23.95-10.07-1.54-.65-2.26-2.43-1.6-3.97h0c.3-.7.83-1.23,1.46-1.54.55-.27.56-1.03.01-1.29-6.23-2.9-13.6-3.31-20.46-.54-13.13,5.31-19.5,20.32-14.19,33.45,5.31,13.13,20.32,19.5,33.45,14.19Z"/></g><g id="_Repetición_de_cuadrícula_-42"><path class="cls-1" d="M-39,658.55c6.15-2.49,10.81-7.1,13.49-12.65,1.68-3.47.05-7.65-3.49-9.17h0c-3.36-1.45-7.33-.07-8.93,3.21-1.36,2.79-3.8,5.06-7.03,6.12-5.59,1.82-11.76-.79-14.35-6.06-3.08-6.27-.14-13.74,6.22-16.31,3.74-1.51,6.84-.71,10.96,1.07,1.35.58,22.75,9.53,22.75,9.53,1.53.66,2.24,2.44,1.58,3.98h0c-.3.69-.82,1.22-1.45,1.52-.49.24-.49.96,0,1.21,6.42,3.3,14.18,3.9,21.38.99,13.13-5.31,19.5-20.32,14.19-33.45-5.31-13.13-20.32-19.5-33.45-14.19-6.16,2.49-10.83,7.12-13.51,12.69-1.66,3.46-.03,7.6,3.5,9.1l.25.11c3.33,1.41,7.12-.1,8.71-3.34,1.37-2.78,3.81-5.03,7.03-6.08,5.58-1.8,11.74.8,14.33,6.07,3.08,6.27.14,13.74-6.22,16.32-3.64,1.47-6.76.8-10.69-.9-4.19-1.8-23.95-10.07-23.95-10.07-1.54-.65-2.26-2.43-1.6-3.97h0c.3-.7.83-1.23,1.46-1.54.55-.27.56-1.03.01-1.29-6.23-2.9-13.6-3.31-20.46-.54-13.13,5.31-19.5,20.32-14.19,33.45,5.31,13.13,20.32,19.5,33.45,14.19Z"/></g><g id="_Repetición_de_cuadrícula_-43"><circle class="cls-1" cx="80.22" cy="516.28" r="12.48"/><circle class="cls-1" cx="40.29" cy="532.17" r="12.48"/><path class="cls-1" d="M64.43,596.45c6.15-2.49,10.81-7.1,13.49-12.65,1.68-3.47.05-7.65-3.49-9.17h0c-3.36-1.45-7.33-.07-8.93,3.21-1.36,2.79-3.8,5.06-7.03,6.12-5.59,1.82-11.76-.79-14.35-6.06-3.08-6.27-.14-13.74,6.22-16.31,3.74-1.51,6.84-.71,10.96,1.07,1.35.58,22.75,9.53,22.75,9.53,1.53.66,2.24,2.44,1.58,3.98h0c-.3.69-.82,1.22-1.45,1.52-.49.24-.49.96,0,1.21,6.42,3.3,14.18,3.9,21.38.99,13.13-5.31,19.5-20.32,14.19-33.45-5.31-13.13-20.32-19.5-33.45-14.19-6.16,2.49-10.83,7.12-13.51,12.69-1.66,3.46-.03,7.6,3.5,9.1l.25.11c3.33,1.41,7.12-.1,8.71-3.34,1.37-2.78,3.81-5.03,7.03-6.08,5.58-1.8,11.74.8,14.33,6.07,3.08,6.27.14,13.74-6.22,16.32-3.64,1.47-6.76.8-10.69-.9-4.19-1.8-23.95-10.07-23.95-10.07-1.54-.65-2.26-2.43-1.6-3.97h0c.3-.7.83-1.23,1.46-1.54.55-.27.56-1.03.01-1.29-6.23-2.9-13.6-3.31-20.46-.54-13.13,5.31-19.5,20.32-14.19,33.45,5.31,13.13,20.32,19.5,33.45,14.19Z"/></g><g id="_Repetición_de_cuadrícula_-44"><circle class="cls-1" cx="183.65" cy="578.38" r="12.48"/><circle class="cls-1" cx="143.72" cy="594.27" r="12.48"/><path class="cls-1" d="M167.86,658.55c6.15-2.49,10.81-7.1,13.49-12.65,1.68-3.47.05-7.65-3.49-9.17h0c-3.36-1.45-7.33-.07-8.93,3.21-1.36,2.79-3.8,5.06-7.03,6.12-5.59,1.82-11.76-.79-14.35-6.06-3.08-6.27-.14-13.74,6.22-16.31,3.74-1.51,6.84-.71,10.96,1.07,1.35.58,22.75,9.53,22.75,9.53,1.53.66,2.24,2.44,1.58,3.98h0c-.3.69-.82,1.22-1.45,1.52-.49.24-.49.96,0,1.21,6.42,3.3,14.18,3.9,21.38.99,13.13-5.31,19.5-20.32,14.19-33.45-5.31-13.13-20.32-19.5-33.45-14.19-6.16,2.49-10.83,7.12-13.51,12.69-1.66,3.46-.03,7.6,3.5,9.1l.25.11c3.33,1.41,7.12-.1,8.71-3.34,1.37-2.78,3.81-5.03,7.03-6.08,5.58-1.8,11.74.8,14.33,6.07,3.08,6.27.14,13.74-6.22,16.32-3.64,1.47-6.76.8-10.69-.9-4.19-1.8-23.95-10.07-23.95-10.07-1.54-.65-2.26-2.43-1.6-3.97h0c.3-.7.83-1.23,1.46-1.54.55-.27.56-1.03.01-1.29-6.23-2.9-13.6-3.31-20.46-.54-13.13,5.31-19.5,20.32-14.19,33.45,5.31,13.13,20.32,19.5,33.45,14.19Z"/></g><g id="_Repetición_de_cuadrícula_-45"><circle class="cls-1" cx="287.08" cy="516.28" r="12.48"/><circle class="cls-1" cx="247.14" cy="532.17" r="12.48"/><path class="cls-1" d="M271.28,596.45c6.15-2.49,10.81-7.1,13.49-12.65,1.68-3.47.05-7.65-3.49-9.17h0c-3.36-1.45-7.33-.07-8.93,3.21-1.36,2.79-3.8,5.06-7.03,6.12-5.59,1.82-11.76-.79-14.35-6.06-3.08-6.27-.14-13.74,6.22-16.31,3.74-1.51,6.84-.71,10.96,1.07,1.35.58,22.75,9.53,22.75,9.53,1.53.66,2.24,2.44,1.58,3.98h0c-.3.69-.82,1.22-1.45,1.52-.49.24-.49.96,0,1.21,6.42,3.3,14.18,3.9,21.38.99,13.13-5.31,19.5-20.32,14.19-33.45-5.31-13.13-20.32-19.5-33.45-14.19-6.16,2.49-10.83,7.12-13.51,12.69-1.66,3.46-.03,7.6,3.5,9.1l.25.11c3.33,1.41,7.12-.1,8.71-3.34,1.37-2.78,3.81-5.03,7.03-6.08,5.58-1.8,11.74.8,14.33,6.07,3.08,6.27.14,13.74-6.22,16.32-3.64,1.47-6.76.8-10.69-.9-4.19-1.8-23.95-10.07-23.95-10.07-1.54-.65-2.26-2.43-1.6-3.97h0c.3-.7.83-1.23,1.46-1.54.55-.27.56-1.03.01-1.29-6.23-2.9-13.6-3.31-20.46-.54-13.13,5.31-19.5,20.32-14.19,33.45,5.31,13.13,20.32,19.5,33.45,14.19Z"/></g><g id="_Repetición_de_cuadrícula_-46"><circle class="cls-1" cx="390.51" cy="578.38" r="12.48"/><circle class="cls-1" cx="350.57" cy="594.27" r="12.48"/><path class="cls-1" d="M374.71,658.55c6.15-2.49,10.81-7.1,13.49-12.65,1.68-3.47.05-7.65-3.49-9.17h0c-3.36-1.45-7.33-.07-8.93,3.21-1.36,2.79-3.8,5.06-7.03,6.12-5.59,1.82-11.76-.79-14.35-6.06-3.08-6.27-.14-13.74,6.22-16.31,3.74-1.51,6.84-.71,10.96,1.07,1.35.58,22.75,9.53,22.75,9.53,1.53.66,2.24,2.44,1.58,3.98h0c-.3.69-.82,1.22-1.45,1.52-.49.24-.49.96,0,1.21,6.42,3.3,14.18,3.9,21.38.99,13.13-5.31,19.5-20.32,14.19-33.45-5.31-13.13-20.32-19.5-33.45-14.19-6.16,2.49-10.83,7.12-13.51,12.69-1.66,3.46-.03,7.6,3.5,9.1l.25.11c3.33,1.41,7.12-.1,8.71-3.34,1.37-2.78,3.81-5.03,7.03-6.08,5.58-1.8,11.74.8,14.33,6.07,3.08,6.27.14,13.74-6.22,16.32-3.64,1.47-6.76.8-10.69-.9-4.19-1.8-23.95-10.07-23.95-10.07-1.54-.65-2.26-2.43-1.6-3.97h0c.3-.7.83-1.23,1.46-1.54.55-.27.56-1.03.01-1.29-6.23-2.9-13.6-3.31-20.46-.54-13.13,5.31-19.5,20.32-14.19,33.45,5.31,13.13,20.32,19.5,33.45,14.19Z"/></g><g id="_Repetición_de_cuadrícula_-47"><circle class="cls-1" cx="493.93" cy="516.28" r="12.48"/><circle class="cls-1" cx="454" cy="532.17" r="12.48"/><path class="cls-1" d="M478.14,596.45c6.15-2.49,10.81-7.1,13.49-12.65,1.68-3.47.05-7.65-3.49-9.17h0c-3.36-1.45-7.33-.07-8.93,3.21-1.36,2.79-3.8,5.06-7.03,6.12-5.59,1.82-11.76-.79-14.35-6.06-3.08-6.27-.14-13.74,6.22-16.31,3.74-1.51,6.84-.71,10.96,1.07,1.35.58,22.75,9.53,22.75,9.53,1.53.66,2.24,2.44,1.58,3.98h0c-.3.69-.82,1.22-1.45,1.52-.49.24-.49.96,0,1.21,6.42,3.3,14.18,3.9,21.38.99,13.13-5.31,19.5-20.32,14.19-33.45-5.31-13.13-20.32-19.5-33.45-14.19-6.16,2.49-10.83,7.12-13.51,12.69-1.66,3.46-.03,7.6,3.5,9.1l.25.11c3.33,1.41,7.12-.1,8.71-3.34,1.37-2.78,3.81-5.03,7.03-6.08,5.58-1.8,11.74.8,14.33,6.07,3.08,6.27.14,13.74-6.22,16.32-3.64,1.47-6.76.8-10.69-.9-4.19-1.8-23.95-10.07-23.95-10.07-1.54-.65-2.26-2.43-1.6-3.97h0c.3-.7.83-1.23,1.46-1.54.55-.27.56-1.03.01-1.29-6.23-2.9-13.6-3.31-20.46-.54-13.13,5.31-19.5,20.32-14.19,33.45,5.31,13.13,20.32,19.5,33.45,14.19Z"/></g><g id="_Repetición_de_cuadrícula_-48"><circle class="cls-1" cx="597.36" cy="578.38" r="12.48"/><circle class="cls-1" cx="557.43" cy="594.27" r="12.48"/><path class="cls-1" d="M581.56,658.55c6.15-2.49,10.81-7.1,13.49-12.65,1.68-3.47.05-7.65-3.49-9.17h0c-3.36-1.45-7.33-.07-8.93,3.21-1.36,2.79-3.8,5.06-7.03,6.12-5.59,1.82-11.76-.79-14.35-6.06-3.08-6.27-.14-13.74,6.22-16.31,3.74-1.51,6.84-.71,10.96,1.07,1.35.58,22.75,9.53,22.75,9.53,1.53.66,2.24,2.44,1.58,3.98h0c-.3.69-.82,1.22-1.45,1.52-.49.24-.49.96,0,1.21,6.42,3.3,14.18,3.9,21.38.99,13.13-5.31,19.5-20.32,14.19-33.45-5.31-13.13-20.32-19.5-33.45-14.19-6.16,2.49-10.83,7.12-13.51,12.69-1.66,3.46-.03,7.6,3.5,9.1l.25.11c3.33,1.41,7.12-.1,8.71-3.34,1.37-2.78,3.81-5.03,7.03-6.08,5.58-1.8,11.74.8,14.33,6.07,3.08,6.27.14,13.74-6.22,16.32-3.64,1.47-6.76.8-10.69-.9-4.19-1.8-23.95-10.07-23.95-10.07-1.54-.65-2.26-2.43-1.6-3.97h0c.3-.7.83-1.23,1.46-1.54.55-.27.56-1.03.01-1.29-6.23-2.9-13.6-3.31-20.46-.54-13.13,5.31-19.5,20.32-14.19,33.45,5.31,13.13,20.32,19.5,33.45,14.19Z"/></g><g id="_Repetición_de_cuadrícula_-49"><circle class="cls-1" cx="700.79" cy="516.28" r="12.48"/><circle class="cls-1" cx="660.85" cy="532.17" r="12.48"/><path class="cls-1" d="M684.99,596.45c6.15-2.49,10.81-7.1,13.49-12.65,1.68-3.47.05-7.65-3.49-9.17h0c-3.36-1.45-7.33-.07-8.93,3.21-1.36,2.79-3.8,5.06-7.03,6.12-5.59,1.82-11.76-.79-14.35-6.06-3.08-6.27-.14-13.74,6.22-16.31,3.74-1.51,6.84-.71,10.96,1.07,1.35.58,22.75,9.53,22.75,9.53,1.53.66,2.24,2.44,1.58,3.98h0c-.3.69-.82,1.22-1.45,1.52-.49.24-.49.96,0,1.21,6.42,3.3,14.18,3.9,21.38.99,13.13-5.31,19.5-20.32,14.19-33.45-5.31-13.13-20.32-19.5-33.45-14.19-6.16,2.49-10.83,7.12-13.51,12.69-1.66,3.46-.03,7.6,3.5,9.1l.25.11c3.33,1.41,7.12-.1,8.71-3.34,1.37-2.78,3.81-5.03,7.03-6.08,5.58-1.8,11.74.8,14.33,6.07,3.08,6.27.14,13.74-6.22,16.32-3.64,1.47-6.76.8-10.69-.9-4.19-1.8-23.95-10.07-23.95-10.07-1.54-.65-2.26-2.43-1.6-3.97h0c.3-.7.83-1.23,1.46-1.54.55-.27.56-1.03.01-1.29-6.23-2.9-13.6-3.31-20.46-.54-13.13,5.31-19.5,20.32-14.19,33.45,5.31,13.13,20.32,19.5,33.45,14.19Z"/></g><g id="_Repetición_de_cuadrícula_-50"><circle class="cls-1" cx="804.21" cy="578.38" r="12.48"/><circle class="cls-1" cx="764.28" cy="594.27" r="12.48"/><path class="cls-1" d="M788.42,658.55c6.15-2.49,10.81-7.1,13.49-12.65,1.68-3.47.05-7.65-3.49-9.17h0c-3.36-1.45-7.33-.07-8.93,3.21-1.36,2.79-3.8,5.06-7.03,6.12-5.59,1.82-11.76-.79-14.35-6.06-3.08-6.27-.14-13.74,6.22-16.31,3.74-1.51,6.84-.71,10.96,1.07,1.35.58,22.75,9.53,22.75,9.53,1.53.66,2.24,2.44,1.58,3.98h0c-.3.69-.82,1.22-1.45,1.52-.49.24-.49.96,0,1.21,6.42,3.3,14.18,3.9,21.38.99,13.13-5.31,19.5-20.32,14.19-33.45-5.31-13.13-20.32-19.5-33.45-14.19-6.16,2.49-10.83,7.12-13.51,12.69-1.66,3.46-.03,7.6,3.5,9.1l.25.11c3.33,1.41,7.12-.1,8.71-3.34,1.37-2.78,3.81-5.03,7.03-6.08,5.58-1.8,11.74.8,14.33,6.07,3.08,6.27.14,13.74-6.22,16.32-3.64,1.47-6.76.8-10.69-.9-4.19-1.8-23.95-10.07-23.95-10.07-1.54-.65-2.26-2.43-1.6-3.97h0c.3-.7.83-1.23,1.46-1.54.55-.27.56-1.03.01-1.29-6.23-2.9-13.6-3.31-20.46-.54-13.13,5.31-19.5,20.32-14.19,33.45,5.31,13.13,20.32,19.5,33.45,14.19Z"/></g><g id="_Repetición_de_cuadrícula_-51"><path class="cls-1" d="M-39,782.75c6.15-2.49,10.81-7.1,13.49-12.65,1.68-3.47.05-7.65-3.49-9.17h0c-3.36-1.45-7.33-.07-8.93,3.21-1.36,2.79-3.8,5.06-7.03,6.12-5.59,1.82-11.76-.79-14.35-6.06-3.08-6.27-.14-13.74,6.22-16.31,3.74-1.51,6.84-.71,10.96,1.07,1.35.58,22.75,9.53,22.75,9.53,1.53.66,2.24,2.44,1.58,3.98h0c-.3.69-.82,1.22-1.45,1.52-.49.24-.49.96,0,1.21,6.42,3.3,14.18,3.9,21.38.99,13.13-5.31,19.5-20.32,14.19-33.45-5.31-13.13-20.32-19.5-33.45-14.19-6.16,2.49-10.83,7.12-13.51,12.69-1.66,3.46-.03,7.6,3.5,9.1l.25.11c3.33,1.41,7.12-.1,8.71-3.34,1.37-2.78,3.81-5.03,7.03-6.08,5.58-1.8,11.74.8,14.33,6.07,3.08,6.27.14,13.74-6.22,16.32-3.64,1.47-6.76.8-10.69-.9-4.19-1.8-23.95-10.07-23.95-10.07-1.54-.65-2.26-2.43-1.6-3.97h0c.3-.7.83-1.23,1.46-1.54.55-.27.56-1.03.01-1.29-6.23-2.9-13.6-3.31-20.46-.54-13.13,5.31-19.5,20.32-14.19,33.45,5.31,13.13,20.32,19.5,33.45,14.19Z"/></g><g id="_Repetición_de_cuadrícula_-52"><circle class="cls-1" cx="80.22" cy="640.48" r="12.48"/><circle class="cls-1" cx="40.29" cy="656.37" r="12.48"/><path class="cls-1" d="M64.43,720.65c6.15-2.49,10.81-7.1,13.49-12.65,1.68-3.47.05-7.65-3.49-9.17h0c-3.36-1.45-7.33-.07-8.93,3.21-1.36,2.79-3.8,5.06-7.03,6.12-5.59,1.82-11.76-.79-14.35-6.06-3.08-6.27-.14-13.74,6.22-16.31,3.74-1.51,6.84-.71,10.96,1.07,1.35.58,22.75,9.53,22.75,9.53,1.53.66,2.24,2.44,1.58,3.98h0c-.3.69-.82,1.22-1.45,1.52-.49.24-.49.96,0,1.21,6.42,3.3,14.18,3.9,21.38.99,13.13-5.31,19.5-20.32,14.19-33.45-5.31-13.13-20.32-19.5-33.45-14.19-6.16,2.49-10.83,7.12-13.51,12.69-1.66,3.46-.03,7.6,3.5,9.1l.25.11c3.33,1.41,7.12-.1,8.71-3.34,1.37-2.78,3.81-5.03,7.03-6.08,5.58-1.8,11.74.8,14.33,6.07,3.08,6.27.14,13.74-6.22,16.32-3.64,1.47-6.76.8-10.69-.9-4.19-1.8-23.95-10.07-23.95-10.07-1.54-.65-2.26-2.43-1.6-3.97h0c.3-.7.83-1.23,1.46-1.54.55-.27.56-1.03.01-1.29-6.23-2.9-13.6-3.31-20.46-.54-13.13,5.31-19.5,20.32-14.19,33.45,5.31,13.13,20.32,19.5,33.45,14.19Z"/></g><g id="_Repetición_de_cuadrícula_-53"><circle class="cls-1" cx="183.65" cy="702.58" r="12.48"/><circle class="cls-1" cx="143.72" cy="718.47" r="12.48"/><path class="cls-1" d="M167.86,782.75c6.15-2.49,10.81-7.1,13.49-12.65,1.68-3.47.05-7.65-3.49-9.17h0c-3.36-1.45-7.33-.07-8.93,3.21-1.36,2.79-3.8,5.06-7.03,6.12-5.59,1.82-11.76-.79-14.35-6.06-3.08-6.27-.14-13.74,6.22-16.31,3.74-1.51,6.84-.71,10.96,1.07,1.35.58,22.75,9.53,22.75,9.53,1.53.66,2.24,2.44,1.58,3.98h0c-.3.69-.82,1.22-1.45,1.52-.49.24-.49.96,0,1.21,6.42,3.3,14.18,3.9,21.38.99,13.13-5.31,19.5-20.32,14.19-33.45-5.31-13.13-20.32-19.5-33.45-14.19-6.16,2.49-10.83,7.12-13.51,12.69-1.66,3.46-.03,7.6,3.5,9.1l.25.11c3.33,1.41,7.12-.1,8.71-3.34,1.37-2.78,3.81-5.03,7.03-6.08,5.58-1.8,11.74.8,14.33,6.07,3.08,6.27.14,13.74-6.22,16.32-3.64,1.47-6.76.8-10.69-.9-4.19-1.8-23.95-10.07-23.95-10.07-1.54-.65-2.26-2.43-1.6-3.97h0c.3-.7.83-1.23,1.46-1.54.55-.27.56-1.03.01-1.29-6.23-2.9-13.6-3.31-20.46-.54-13.13,5.31-19.5,20.32-14.19,33.45,5.31,13.13,20.32,19.5,33.45,14.19Z"/></g><g id="_Repetición_de_cuadrícula_-54"><circle class="cls-1" cx="287.08" cy="640.48" r="12.48"/><circle class="cls-1" cx="247.14" cy="656.37" r="12.48"/><path class="cls-1" d="M271.28,720.65c6.15-2.49,10.81-7.1,13.49-12.65,1.68-3.47.05-7.65-3.49-9.17h0c-3.36-1.45-7.33-.07-8.93,3.21-1.36,2.79-3.8,5.06-7.03,6.12-5.59,1.82-11.76-.79-14.35-6.06-3.08-6.27-.14-13.74,6.22-16.31,3.74-1.51,6.84-.71,10.96,1.07,1.35.58,22.75,9.53,22.75,9.53,1.53.66,2.24,2.44,1.58,3.98h0c-.3.69-.82,1.22-1.45,1.52-.49.24-.49.96,0,1.21,6.42,3.3,14.18,3.9,21.38.99,13.13-5.31,19.5-20.32,14.19-33.45-5.31-13.13-20.32-19.5-33.45-14.19-6.16,2.49-10.83,7.12-13.51,12.69-1.66,3.46-.03,7.6,3.5,9.1l.25.11c3.33,1.41,7.12-.1,8.71-3.34,1.37-2.78,3.81-5.03,7.03-6.08,5.58-1.8,11.74.8,14.33,6.07,3.08,6.27.14,13.74-6.22,16.32-3.64,1.47-6.76.8-10.69-.9-4.19-1.8-23.95-10.07-23.95-10.07-1.54-.65-2.26-2.43-1.6-3.97h0c.3-.7.83-1.23,1.46-1.54.55-.27.56-1.03.01-1.29-6.23-2.9-13.6-3.31-20.46-.54-13.13,5.31-19.5,20.32-14.19,33.45,5.31,13.13,20.32,19.5,33.45,14.19Z"/></g><g id="_Repetición_de_cuadrícula_-55"><circle class="cls-1" cx="390.51" cy="702.58" r="12.48"/><circle class="cls-1" cx="350.57" cy="718.47" r="12.48"/><path class="cls-1" d="M374.71,782.75c6.15-2.49,10.81-7.1,13.49-12.65,1.68-3.47.05-7.65-3.49-9.17h0c-3.36-1.45-7.33-.07-8.93,3.21-1.36,2.79-3.8,5.06-7.03,6.12-5.59,1.82-11.76-.79-14.35-6.06-3.08-6.27-.14-13.74,6.22-16.31,3.74-1.51,6.84-.71,10.96,1.07,1.35.58,22.75,9.53,22.75,9.53,1.53.66,2.24,2.44,1.58,3.98h0c-.3.69-.82,1.22-1.45,1.52-.49.24-.49.96,0,1.21,6.42,3.3,14.18,3.9,21.38.99,13.13-5.31,19.5-20.32,14.19-33.45-5.31-13.13-20.32-19.5-33.45-14.19-6.16,2.49-10.83,7.12-13.51,12.69-1.66,3.46-.03,7.6,3.5,9.1l.25.11c3.33,1.41,7.12-.1,8.71-3.34,1.37-2.78,3.81-5.03,7.03-6.08,5.58-1.8,11.74.8,14.33,6.07,3.08,6.27.14,13.74-6.22,16.32-3.64,1.47-6.76.8-10.69-.9-4.19-1.8-23.95-10.07-23.95-10.07-1.54-.65-2.26-2.43-1.6-3.97h0c.3-.7.83-1.23,1.46-1.54.55-.27.56-1.03.01-1.29-6.23-2.9-13.6-3.31-20.46-.54-13.13,5.31-19.5,20.32-14.19,33.45,5.31,13.13,20.32,19.5,33.45,14.19Z"/></g><g id="_Repetición_de_cuadrícula_-56"><circle class="cls-1" cx="493.93" cy="640.48" r="12.48"/><circle class="cls-1" cx="454" cy="656.37" r="12.48"/><path class="cls-1" d="M478.14,720.65c6.15-2.49,10.81-7.1,13.49-12.65,1.68-3.47.05-7.65-3.49-9.17h0c-3.36-1.45-7.33-.07-8.93,3.21-1.36,2.79-3.8,5.06-7.03,6.12-5.59,1.82-11.76-.79-14.35-6.06-3.08-6.27-.14-13.74,6.22-16.31,3.74-1.51,6.84-.71,10.96,1.07,1.35.58,22.75,9.53,22.75,9.53,1.53.66,2.24,2.44,1.58,3.98h0c-.3.69-.82,1.22-1.45,1.52-.49.24-.49.96,0,1.21,6.42,3.3,14.18,3.9,21.38.99,13.13-5.31,19.5-20.32,14.19-33.45-5.31-13.13-20.32-19.5-33.45-14.19-6.16,2.49-10.83,7.12-13.51,12.69-1.66,3.46-.03,7.6,3.5,9.1l.25.11c3.33,1.41,7.12-.1,8.71-3.34,1.37-2.78,3.81-5.03,7.03-6.08,5.58-1.8,11.74.8,14.33,6.07,3.08,6.27.14,13.74-6.22,16.32-3.64,1.47-6.76.8-10.69-.9-4.19-1.8-23.95-10.07-23.95-10.07-1.54-.65-2.26-2.43-1.6-3.97h0c.3-.7.83-1.23,1.46-1.54.55-.27.56-1.03.01-1.29-6.23-2.9-13.6-3.31-20.46-.54-13.13,5.31-19.5,20.32-14.19,33.45,5.31,13.13,20.32,19.5,33.45,14.19Z"/></g><g id="_Repetición_de_cuadrícula_-57"><circle class="cls-1" cx="597.36" cy="702.58" r="12.48"/><circle class="cls-1" cx="557.43" cy="718.47" r="12.48"/><path class="cls-1" d="M581.56,782.75c6.15-2.49,10.81-7.1,13.49-12.65,1.68-3.47.05-7.65-3.49-9.17h0c-3.36-1.45-7.33-.07-8.93,3.21-1.36,2.79-3.8,5.06-7.03,6.12-5.59,1.82-11.76-.79-14.35-6.06-3.08-6.27-.14-13.74,6.22-16.31,3.74-1.51,6.84-.71,10.96,1.07,1.35.58,22.75,9.53,22.75,9.53,1.53.66,2.24,2.44,1.58,3.98h0c-.3.69-.82,1.22-1.45,1.52-.49.24-.49.96,0,1.21,6.42,3.3,14.18,3.9,21.38.99,13.13-5.31,19.5-20.32,14.19-33.45-5.31-13.13-20.32-19.5-33.45-14.19-6.16,2.49-10.83,7.12-13.51,12.69-1.66,3.46-.03,7.6,3.5,9.1l.25.11c3.33,1.41,7.12-.1,8.71-3.34,1.37-2.78,3.81-5.03,7.03-6.08,5.58-1.8,11.74.8,14.33,6.07,3.08,6.27.14,13.74-6.22,16.32-3.64,1.47-6.76.8-10.69-.9-4.19-1.8-23.95-10.07-23.95-10.07-1.54-.65-2.26-2.43-1.6-3.97h0c.3-.7.83-1.23,1.46-1.54.55-.27.56-1.03.01-1.29-6.23-2.9-13.6-3.31-20.46-.54-13.13,5.31-19.5,20.32-14.19,33.45,5.31,13.13,20.32,19.5,33.45,14.19Z"/></g><g id="_Repetición_de_cuadrícula_-58"><circle class="cls-1" cx="700.79" cy="640.48" r="12.48"/><circle class="cls-1" cx="660.85" cy="656.37" r="12.48"/><path class="cls-1" d="M684.99,720.65c6.15-2.49,10.81-7.1,13.49-12.65,1.68-3.47.05-7.65-3.49-9.17h0c-3.36-1.45-7.33-.07-8.93,3.21-1.36,2.79-3.8,5.06-7.03,6.12-5.59,1.82-11.76-.79-14.35-6.06-3.08-6.27-.14-13.74,6.22-16.31,3.74-1.51,6.84-.71,10.96,1.07,1.35.58,22.75,9.53,22.75,9.53,1.53.66,2.24,2.44,1.58,3.98h0c-.3.69-.82,1.22-1.45,1.52-.49.24-.49.96,0,1.21,6.42,3.3,14.18,3.9,21.38.99,13.13-5.31,19.5-20.32,14.19-33.45-5.31-13.13-20.32-19.5-33.45-14.19-6.16,2.49-10.83,7.12-13.51,12.69-1.66,3.46-.03,7.6,3.5,9.1l.25.11c3.33,1.41,7.12-.1,8.71-3.34,1.37-2.78,3.81-5.03,7.03-6.08,5.58-1.8,11.74.8,14.33,6.07,3.08,6.27.14,13.74-6.22,16.32-3.64,1.47-6.76.8-10.69-.9-4.19-1.8-23.95-10.07-23.95-10.07-1.54-.65-2.26-2.43-1.6-3.97h0c.3-.7.83-1.23,1.46-1.54.55-.27.56-1.03.01-1.29-6.23-2.9-13.6-3.31-20.46-.54-13.13,5.31-19.5,20.32-14.19,33.45,5.31,13.13,20.32,19.5,33.45,14.19Z"/></g><g id="_Repetición_de_cuadrícula_-59"><circle class="cls-1" cx="804.21" cy="702.58" r="12.48"/><circle class="cls-1" cx="764.28" cy="718.47" r="12.48"/><path class="cls-1" d="M788.42,782.75c6.15-2.49,10.81-7.1,13.49-12.65,1.68-3.47.05-7.65-3.49-9.17h0c-3.36-1.45-7.33-.07-8.93,3.21-1.36,2.79-3.8,5.06-7.03,6.12-5.59,1.82-11.76-.79-14.35-6.06-3.08-6.27-.14-13.74,6.22-16.31,3.74-1.51,6.84-.71,10.96,1.07,1.35.58,22.75,9.53,22.75,9.53,1.53.66,2.24,2.44,1.58,3.98h0c-.3.69-.82,1.22-1.45,1.52-.49.24-.49.96,0,1.21,6.42,3.3,14.18,3.9,21.38.99,13.13-5.31,19.5-20.32,14.19-33.45-5.31-13.13-20.32-19.5-33.45-14.19-6.16,2.49-10.83,7.12-13.51,12.69-1.66,3.46-.03,7.6,3.5,9.1l.25.11c3.33,1.41,7.12-.1,8.71-3.34,1.37-2.78,3.81-5.03,7.03-6.08,5.58-1.8,11.74.8,14.33,6.07,3.08,6.27.14,13.74-6.22,16.32-3.64,1.47-6.76.8-10.69-.9-4.19-1.8-23.95-10.07-23.95-10.07-1.54-.65-2.26-2.43-1.6-3.97h0c.3-.7.83-1.23,1.46-1.54.55-.27.56-1.03.01-1.29-6.23-2.9-13.6-3.31-20.46-.54-13.13,5.31-19.5,20.32-14.19,33.45,5.31,13.13,20.32,19.5,33.45,14.19Z"/></g><g id="_Repetición_de_cuadrícula_-60"><circle class="cls-1" cx="80.22" cy="764.68" r="12.48"/><circle class="cls-1" cx="40.29" cy="780.57" r="12.48"/><path class="cls-1" d="M64.43,844.85c6.15-2.49,10.81-7.1,13.49-12.65,1.68-3.47.05-7.65-3.49-9.17h0c-3.36-1.45-7.33-.07-8.93,3.21-1.36,2.79-3.8,5.06-7.03,6.12-5.59,1.82-11.76-.79-14.35-6.06-3.08-6.27-.14-13.74,6.22-16.31,3.74-1.51,6.84-.71,10.96,1.07,1.35.58,22.75,9.53,22.75,9.53,1.53.66,2.24,2.44,1.58,3.98h0c-.3.69-.82,1.22-1.45,1.52-.49.24-.49.96,0,1.21,6.42,3.3,14.18,3.9,21.38.99,13.13-5.31,19.5-20.32,14.19-33.45-5.31-13.13-20.32-19.5-33.45-14.19-6.16,2.49-10.83,7.12-13.51,12.69-1.66,3.46-.03,7.6,3.5,9.1l.25.11c3.33,1.41,7.12-.1,8.71-3.34,1.37-2.78,3.81-5.03,7.03-6.08,5.58-1.8,11.74.8,14.33,6.07,3.08,6.27.14,13.74-6.22,16.32-3.64,1.47-6.76.8-10.69-.9-4.19-1.8-23.95-10.07-23.95-10.07-1.54-.65-2.26-2.43-1.6-3.97h0c.3-.7.83-1.23,1.46-1.54.55-.27.56-1.03.01-1.29-6.23-2.9-13.6-3.31-20.46-.54-13.13,5.31-19.5,20.32-14.19,33.45,5.31,13.13,20.32,19.5,33.45,14.19Z"/></g><g id="_Repetición_de_cuadrícula_-61"><circle class="cls-1" cx="287.08" cy="764.68" r="12.48"/><circle class="cls-1" cx="247.14" cy="780.57" r="12.48"/><path class="cls-1" d="M271.28,844.85c6.15-2.49,10.81-7.1,13.49-12.65,1.68-3.47.05-7.65-3.49-9.17h0c-3.36-1.45-7.33-.07-8.93,3.21-1.36,2.79-3.8,5.06-7.03,6.12-5.59,1.82-11.76-.79-14.35-6.06-3.08-6.27-.14-13.74,6.22-16.31,3.74-1.51,6.84-.71,10.96,1.07,1.35.58,22.75,9.53,22.75,9.53,1.53.66,2.24,2.44,1.58,3.98h0c-.3.69-.82,1.22-1.45,1.52-.49.24-.49.96,0,1.21,6.42,3.3,14.18,3.9,21.38.99,13.13-5.31,19.5-20.32,14.19-33.45-5.31-13.13-20.32-19.5-33.45-14.19-6.16,2.49-10.83,7.12-13.51,12.69-1.66,3.46-.03,7.6,3.5,9.1l.25.11c3.33,1.41,7.12-.1,8.71-3.34,1.37-2.78,3.81-5.03,7.03-6.08,5.58-1.8,11.74.8,14.33,6.07,3.08,6.27.14,13.74-6.22,16.32-3.64,1.47-6.76.8-10.69-.9-4.19-1.8-23.95-10.07-23.95-10.07-1.54-.65-2.26-2.43-1.6-3.97h0c.3-.7.83-1.23,1.46-1.54.55-.27.56-1.03.01-1.29-6.23-2.9-13.6-3.31-20.46-.54-13.13,5.31-19.5,20.32-14.19,33.45,5.31,13.13,20.32,19.5,33.45,14.19Z"/></g><g id="_Repetición_de_cuadrícula_-62"><circle class="cls-1" cx="493.93" cy="764.68" r="12.48"/><circle class="cls-1" cx="454" cy="780.57" r="12.48"/><path class="cls-1" d="M478.14,844.85c6.15-2.49,10.81-7.1,13.49-12.65,1.68-3.47.05-7.65-3.49-9.17h0c-3.36-1.45-7.33-.07-8.93,3.21-1.36,2.79-3.8,5.06-7.03,6.12-5.59,1.82-11.76-.79-14.35-6.06-3.08-6.27-.14-13.74,6.22-16.31,3.74-1.51,6.84-.71,10.96,1.07,1.35.58,22.75,9.53,22.75,9.53,1.53.66,2.24,2.44,1.58,3.98h0c-.3.69-.82,1.22-1.45,1.52-.49.24-.49.96,0,1.21,6.42,3.3,14.18,3.9,21.38.99,13.13-5.31,19.5-20.32,14.19-33.45-5.31-13.13-20.32-19.5-33.45-14.19-6.16,2.49-10.83,7.12-13.51,12.69-1.66,3.46-.03,7.6,3.5,9.1l.25.11c3.33,1.41,7.12-.1,8.71-3.34,1.37-2.78,3.81-5.03,7.03-6.08,5.58-1.8,11.74.8,14.33,6.07,3.08,6.27.14,13.74-6.22,16.32-3.64,1.47-6.76.8-10.69-.9-4.19-1.8-23.95-10.07-23.95-10.07-1.54-.65-2.26-2.43-1.6-3.97h0c.3-.7.83-1.23,1.46-1.54.55-.27.56-1.03.01-1.29-6.23-2.9-13.6-3.31-20.46-.54-13.13,5.31-19.5,20.32-14.19,33.45,5.31,13.13,20.32,19.5,33.45,14.19Z"/></g><g id="_Repetición_de_cuadrícula_-63"><circle class="cls-1" cx="700.79" cy="764.68" r="12.48"/><circle class="cls-1" cx="660.85" cy="780.57" r="12.48"/><path class="cls-1" d="M684.99,844.85c6.15-2.49,10.81-7.1,13.49-12.65,1.68-3.47.05-7.65-3.49-9.17h0c-3.36-1.45-7.33-.07-8.93,3.21-1.36,2.79-3.8,5.06-7.03,6.12-5.59,1.82-11.76-.79-14.35-6.06-3.08-6.27-.14-13.74,6.22-16.31,3.74-1.51,6.84-.71,10.96,1.07,1.35.58,22.75,9.53,22.75,9.53,1.53.66,2.24,2.44,1.58,3.98h0c-.3.69-.82,1.22-1.45,1.52-.49.24-.49.96,0,1.21,6.42,3.3,14.18,3.9,21.38.99,13.13-5.31,19.5-20.32,14.19-33.45-5.31-13.13-20.32-19.5-33.45-14.19-6.16,2.49-10.83,7.12-13.51,12.69-1.66,3.46-.03,7.6,3.5,9.1l.25.11c3.33,1.41,7.12-.1,8.71-3.34,1.37-2.78,3.81-5.03,7.03-6.08,5.58-1.8,11.74.8,14.33,6.07,3.08,6.27.14,13.74-6.22,16.32-3.64,1.47-6.76.8-10.69-.9-4.19-1.8-23.95-10.07-23.95-10.07-1.54-.65-2.26-2.43-1.6-3.97h0c.3-.7.83-1.23,1.46-1.54.55-.27.56-1.03.01-1.29-6.23-2.9-13.6-3.31-20.46-.54-13.13,5.31-19.5,20.32-14.19,33.45,5.31,13.13,20.32,19.5,33.45,14.19Z"/></g></g></g></g></svg>