<?xml version="1.0" encoding="UTF-8"?><svg id="Capa_2" xmlns="http://www.w3.org/2000/svg" viewBox="0 0 571.96 212.26"><defs><style>.cls-1{font-family:Archivo-ExtraBold, Archivo;font-size:93.31px;font-weight:700;}.cls-1,.cls-2{fill:#fff;}.cls-2{stroke-width:0px;}.cls-3{letter-spacing:-.07em;}</style></defs><g id="Capa_1-2"><circle class="cls-2" cx="53.49" cy="32.92" r="26.11"/><circle class="cls-2" cx="143.37" cy="32.92" r="26.11"/><path class="cls-2" d="M146.16,176.49c-13.87-.08-26.49-5.43-35.99-14.14-5.94-5.45-6.01-14.82-.3-20.52h0c5.41-5.41,14.18-5.81,19.83-.65,4.79,4.37,11.3,6.9,18.39,6.45,12.26-.78,22.24-10.62,23.2-22.87,1.14-14.56-10.35-26.81-24.69-26.89-8.44-.05-13.83,3.91-20.47,10.54-2.17,2.17-36.84,36.12-36.84,36.12-2.47,2.47-2.47,6.48,0,8.95h0c1.11,1.11,2.54,1.73,4,1.83,1.15.09,1.68,1.48.93,2.35-9.92,11.37-24.54,18.54-40.78,18.45C23.8,175.93-.16,151.69,0,122.07c.17-29.62,24.4-53.59,54.03-53.43,13.9.08,26.55,5.46,36.05,14.21,5.9,5.43,5.94,14.75.24,20.39l-.41.4c-5.38,5.32-13.9,5.32-19.51.24-4.8-4.34-11.29-6.84-18.36-6.37-12.24.81-22.19,10.63-23.15,22.87-1.14,14.56,10.35,26.82,24.69,26.9,8.2.05,13.75-3.67,20.08-10.01,6.74-6.74,38.75-38.09,38.75-38.09,2.48-2.46,2.51-6.46.05-8.95h0c-1.12-1.13-2.56-1.75-4.03-1.86-1.27-.09-1.89-1.57-1.02-2.49,9.87-10.44,23.87-16.94,39.34-16.85,29.62.17,53.59,24.4,53.43,54.03-.17,29.62-24.4,53.59-54.03,53.43Z"/><text class="cls-1" transform="translate(209.56 78.66)"><tspan class="cls-3" x="0" y="0">T</tspan><tspan x="56.45" y="0">us </tspan><tspan x="0" y="93.03">Aliados</tspan></text></g></svg>